<svg xmlns="http://www.w3.org/2000/svg" height="464pt" version="1.1" viewBox="0 0 464 464" width="464pt">
<g id="surface1">
<path d="M 56 0 L 48 0 L 0 80 L 56 80 Z M 56 0 " style=" stroke:none;fill-rule:nonzero;fill:rgb(100%,65.490196%,20%);fill-opacity:1;" />
<path d="M 464 80 L 0 80 L 0 464 L 464 464 Z M 184 128 L 280 128 C 288.835938 128 296 135.164062 296 144 C 296 152.835938 288.835938 160 280 160 L 184 160 C 175.164062 160 168 152.835938 168 144 C 168 135.164062 175.164062 128 184 128 Z M 16 440 Z M 48 440 Z M 80 440 Z M 112 440 Z M 144 440 Z M 176 440 Z M 208 440 Z M 240 440 Z M 272 440 Z M 176 360 L 176 232 L 142.054688 265.945312 L 176 232 L 209.945312 265.945312 L 176 232 L 176 360 L 288 360 L 288 232 L 254.054688 265.945312 L 288 232 L 321.945312 265.945312 L 288 232 L 288 360 Z M 304 440 Z M 336 440 Z M 368 440 Z M 400 440 Z M 432 440 Z M 432 440 " style=" stroke:none;fill-rule:nonzero;fill:rgb(100%,85.490196%,66.666667%);fill-opacity:1;" />
<path d="M 464 80 L 416 0 L 408 0 L 408 80 Z M 464 80 " style=" stroke:none;fill-rule:nonzero;fill:rgb(100%,65.490196%,20%);fill-opacity:1;" />
<path d="M 184 160 L 280 160 C 288.835938 160 296 152.835938 296 144 C 296 135.164062 288.835938 128 280 128 L 184 128 C 175.164062 128 168 135.164062 168 144 C 168 152.835938 175.164062 160 184 160 Z M 184 160 " style=" stroke:none;fill-rule:nonzero;fill:rgb(100%,71.372549%,33.333333%);fill-opacity:1;" />
<path d="M 344 368 L 120 368 C 115.582031 368 112 364.417969 112 360 C 112 355.582031 115.582031 352 120 352 L 344 352 C 348.417969 352 352 355.582031 352 360 C 352 364.417969 348.417969 368 344 368 Z M 344 368 " style=" stroke:none;fill-rule:nonzero;fill:rgb(100%,31.372549%,13.72549%);fill-opacity:1;" />
<path d="M 176 368 C 171.582031 368 168 364.417969 168 360 L 168 232 C 168 227.582031 171.582031 224 176 224 C 180.417969 224 184 227.582031 184 232 L 184 360 C 184 364.417969 180.417969 368 176 368 Z M 176 368 " style=" stroke:none;fill-rule:nonzero;fill:rgb(100%,31.372549%,13.72549%);fill-opacity:1;" />
<path d="M 209.945312 273.9375 C 207.820312 273.941406 205.785156 273.097656 204.289062 271.59375 L 176 243.3125 L 147.710938 271.59375 C 145.703125 273.671875 142.730469 274.503906 139.933594 273.773438 C 137.136719 273.042969 134.949219 270.855469 134.21875 268.058594 C 133.484375 265.261719 134.320312 262.289062 136.398438 260.28125 L 170.34375 226.34375 C 173.46875 223.222656 178.53125 223.222656 181.65625 226.34375 L 215.601562 260.28125 C 217.886719 262.566406 218.570312 266.007812 217.332031 268.996094 C 216.09375 271.984375 213.179688 273.933594 209.945312 273.9375 Z M 209.945312 273.9375 " style=" stroke:none;fill-rule:nonzero;fill:rgb(100%,31.372549%,13.72549%);fill-opacity:1;" />
<path d="M 288 368 C 283.582031 368 280 364.417969 280 360 L 280 232 C 280 227.582031 283.582031 224 288 224 C 292.417969 224 296 227.582031 296 232 L 296 360 C 296 364.417969 292.417969 368 288 368 Z M 288 368 " style=" stroke:none;fill-rule:nonzero;fill:rgb(100%,31.372549%,13.72549%);fill-opacity:1;" />
<path d="M 321.945312 273.9375 C 319.820312 273.941406 317.785156 273.097656 316.289062 271.59375 L 288 243.3125 L 259.710938 271.59375 C 256.574219 274.625 251.582031 274.582031 248.496094 271.496094 C 245.410156 268.410156 245.367188 263.417969 248.398438 260.28125 L 282.34375 226.34375 C 285.46875 223.222656 290.53125 223.222656 293.65625 226.34375 L 327.601562 260.28125 C 329.886719 262.566406 330.570312 266.007812 329.332031 268.996094 C 328.09375 271.984375 325.179688 273.933594 321.945312 273.9375 Z M 321.945312 273.9375 " style=" stroke:none;fill-rule:nonzero;fill:rgb(100%,31.372549%,13.72549%);fill-opacity:1;" />
<path d="M 48 432 L 64 432 L 64 448 L 48 448 Z M 48 432 " style=" stroke:none;fill-rule:nonzero;fill:rgb(94.509804%,94.901961%,94.901961%);fill-opacity:1;" />
<path d="M 16 432 L 32 432 L 32 448 L 16 448 Z M 16 432 " style=" stroke:none;fill-rule:nonzero;fill:rgb(94.509804%,94.901961%,94.901961%);fill-opacity:1;" />
<path d="M 80 432 L 96 432 L 96 448 L 80 448 Z M 80 432 " style=" stroke:none;fill-rule:nonzero;fill:rgb(94.509804%,94.901961%,94.901961%);fill-opacity:1;" />
<path d="M 112 432 L 128 432 L 128 448 L 112 448 Z M 112 432 " style=" stroke:none;fill-rule:nonzero;fill:rgb(94.509804%,94.901961%,94.901961%);fill-opacity:1;" />
<path d="M 144 432 L 160 432 L 160 448 L 144 448 Z M 144 432 " style=" stroke:none;fill-rule:nonzero;fill:rgb(94.509804%,94.901961%,94.901961%);fill-opacity:1;" />
<path d="M 144 432 L 160 432 L 160 448 L 144 448 Z M 144 432 " style=" stroke:none;fill-rule:nonzero;fill:rgb(94.509804%,94.901961%,94.901961%);fill-opacity:1;" />
<path d="M 176 432 L 192 432 L 192 448 L 176 448 Z M 176 432 " style=" stroke:none;fill-rule:nonzero;fill:rgb(94.509804%,94.901961%,94.901961%);fill-opacity:1;" />
<path d="M 208 432 L 224 432 L 224 448 L 208 448 Z M 208 432 " style=" stroke:none;fill-rule:nonzero;fill:rgb(94.509804%,94.901961%,94.901961%);fill-opacity:1;" />
<path d="M 240 432 L 256 432 L 256 448 L 240 448 Z M 240 432 " style=" stroke:none;fill-rule:nonzero;fill:rgb(94.509804%,94.901961%,94.901961%);fill-opacity:1;" />
<path d="M 272 432 L 288 432 L 288 448 L 272 448 Z M 272 432 " style=" stroke:none;fill-rule:nonzero;fill:rgb(94.509804%,94.901961%,94.901961%);fill-opacity:1;" />
<path d="M 304 432 L 320 432 L 320 448 L 304 448 Z M 304 432 " style=" stroke:none;fill-rule:nonzero;fill:rgb(94.509804%,94.901961%,94.901961%);fill-opacity:1;" />
<path d="M 336 432 L 352 432 L 352 448 L 336 448 Z M 336 432 " style=" stroke:none;fill-rule:nonzero;fill:rgb(94.509804%,94.901961%,94.901961%);fill-opacity:1;" />
<path d="M 368 432 L 384 432 L 384 448 L 368 448 Z M 368 432 " style=" stroke:none;fill-rule:nonzero;fill:rgb(94.509804%,94.901961%,94.901961%);fill-opacity:1;" />
<path d="M 400 432 L 416 432 L 416 448 L 400 448 Z M 400 432 " style=" stroke:none;fill-rule:nonzero;fill:rgb(94.509804%,94.901961%,94.901961%);fill-opacity:1;" />
<path d="M 432 432 L 448 432 L 448 448 L 432 448 Z M 432 432 " style=" stroke:none;fill-rule:nonzero;fill:rgb(94.509804%,94.901961%,94.901961%);fill-opacity:1;" />
<path d="M 48 0 L 416 0 L 416 80 L 48 80 Z M 48 0 " style=" stroke:none;fill-rule:nonzero;fill:rgb(100%,71.372549%,33.333333%);fill-opacity:1;" />
</g>
</svg>