<svg id="Capa_1" enable-background="new 0 0 510 510" height="512" viewBox="0 0 510 510" width="512" xmlns="http://www.w3.org/2000/svg"><g><path d="m0 120v390h255l84.696-195-84.696-195-135-30z" fill="#e6f2ff"/><path d="m255 120v390h255v-390l-132.56-37.484z" fill="#cce6ff"/><path d="m30 150h90v90h-90z" fill="#5c7099"/><path d="m150 150h90v90h-90z" fill="#5c7099"/><path d="m270 150h90v90h-90z" fill="#405580"/><path d="m390 150h90v90h-90z" fill="#405580"/><path d="m30 270h90v90h-90z" fill="#5c7099"/><path d="m150 270h90v90h-90z" fill="#5c7099"/><path d="m270 270h90v90h-90z" fill="#405580"/><path d="m390 270h90v90h-90z" fill="#405580"/><path d="m30 390h90v90h-90z" fill="#5c7099"/><path d="m150 390h90v90h-90z" fill="#5c7099"/><path d="m270 390h90v90h-90z" fill="#405580"/><path d="m390 390h90v90h-90z" fill="#405580"/><path d="m0 30v90h255l23.934-45-23.934-45z" fill="#ff415b"/><path d="m255 30h255v90h-255z" fill="#c50048"/><g fill="#cce6ff"><path d="m420 420h30v30h-30z"/><path d="m300 420h30v30h-30z"/><path d="m180 420h30v30h-30z"/></g><path d="m60 0h30v90h-30z" fill="#ffdd70"/><path d="m180 0h30v90h-30z" fill="#ffdd70"/><path d="m300 0h30v90h-30z" fill="#f8c045"/><path d="m420 0h30v90h-30z" fill="#f8c045"/></g></svg>