<svg id="Capa_1" enable-background="new 0 0 512 512" height="512" viewBox="0 0 512 512" width="512" xmlns="http://www.w3.org/2000/svg"><g><g><path d="m482 210h-45c-8.284 0-15-6.716-15-15v-45h-332v45c0 8.284-6.716 15-15 15h-45c-16.569 0-30-13.431-30-30v-135c0-24.853 20.147-45 45-45h91c36.211 0 66.533 25.811 73.506 60h257.494c24.853 0 45 20.147 45 45v75c0 16.569-13.431 30-30 30z" fill="#fb3"/></g><path d="m467 60h-211v90h166v45c0 8.284 6.716 15 15 15h45c16.569 0 30-13.433 30-30v-75c0-24.853-20.147-45-45-45z" fill="#f93"/><g><path d="m437 210h-362c-8.291 0-15-6.709-15-15v-60c0-8.291 6.709-15 15-15h362c8.291 0 15 6.709 15 15v60c0 8.291-6.709 15-15 15z" fill="#fff5f5"/></g><g id="Folder_23_"><g><path d="m467 512h-422c-24.853 0-45-20.147-45-45v-287h260l252 287c0 24.853-20.147 45-45 45z" fill="#ffe666"/></g></g><path d="m437 120h-181v90h181c8.291 0 15-6.709 15-15v-60c0-8.291-6.709-15-15-15z" fill="#efe2dd"/><path d="m256 512h211c24.853 0 45-20.147 45-45v-287h-256z" fill="#fb3"/><g id="Folder_147_"><g><path d="m256 452c-57.891 0-105-47.109-105-105s47.109-105 105-105 105 47.109 105 105-47.109 105-105 105z" fill="#ff641a"/></g></g><path d="m361 347c0-57.891-47.109-105-105-105v210c57.891 0 105-47.109 105-105z" fill="#f03800"/><path d="m277.211 347 10.605-10.605c5.859-5.859 5.859-15.352 0-21.211s-15.352-5.859-21.211 0l-10.605 10.605-10.605-10.605c-5.859-5.859-15.352-5.859-21.211 0s-5.859 15.352 0 21.211l10.605 10.605-10.605 10.605c-5.859 5.859-5.859 15.352 0 21.211s15.351 5.86 21.211 0l10.605-10.605 10.605 10.605c5.859 5.859 15.351 5.86 21.211 0 5.859-5.859 5.859-15.352 0-21.211z" fill="#575f64"/><path d="m266.605 378.816c5.859 5.859 15.352 5.859 21.211 0s5.859-15.352 0-21.211l-10.605-10.605 10.605-10.605c5.859-5.859 5.859-15.352 0-21.211s-15.352-5.859-21.211 0l-10.605 10.605v42.422z" fill="#474f54"/></g></svg>