<svg id="Layer_1" enable-background="new 0 0 512 512" height="512" viewBox="0 0 512 512" width="512" xmlns="http://www.w3.org/2000/svg"><g><g><g><g id="XMLID_1040_"><g id="XMLID_1041_"><g id="XMLID_1042_"><g id="XMLID_1043_"><g id="XMLID_1044_"><g id="XMLID_1048_"><g id="XMLID_1049_"><g id="XMLID_1050_"><g id="XMLID_1051_"><g id="XMLID_1068_"><g id="XMLID_1080_"><g id="XMLID_1114_"><g id="XMLID_1115_"><g id="XMLID_1116_"><g id="XMLID_1117_"><circle cx="256" cy="256" fill="#fd9827" r="256"/></g></g></g></g></g></g></g></g></g></g></g></g></g></g></g></g></g><path d="m512 256c0-40.583-9.458-78.951-26.268-113.046l-58.926-58.926-89.365 101.196-98.777 2.777-106.658-106.731-5.879 336.599 91.229 91.229c12.604 1.909 25.508 2.902 38.644 2.902 141.385 0 256-114.615 256-256z" fill="#ea7b0c"/><g><path d="m432.676 241.59v-139.441c0-27.607-33.77-40.991-52.682-20.879l-71.001 75.506h-105.986l-71.001-75.506c-18.912-20.112-52.682-6.729-52.682 20.879v139.441c-1.319 6.626-2.018 13.469-2.018 20.468v42.942c0 85.525 69.975 155.5 155.5 155.5h46.387c85.525 0 155.5-69.975 155.5-155.5v-42.942c0-6.999-.698-13.842-2.017-20.468z" fill="#eef9ff"/><path d="m434.69 262.06v42.94c0 85.52-69.97 155.5-155.5 155.5h-23.19v-303.72h52.99l71-75.51c18.92-20.11 52.69-6.73 52.69 20.88v139.44c1.32 6.63 2.01 13.47 2.01 20.47z" fill="#d2ebff"/><g><g><path d="m160.92 159.04c-18.41 3.89-35.1 12.63-48.63 24.82v-47.22c0-10.52 12.87-15.63 20.08-7.96z" fill="#fc445f"/><path d="m399.71 136.64v47.22c-13.53-12.19-30.22-20.93-48.63-24.82l28.55-30.36c7.21-7.67 20.08-2.56 20.08 7.96z" fill="#e00f5a"/></g><g><path d="m306.119 348.924-4.512 16.543c-.986 3.618-3.876 6.353-7.542 7.141-4.836 1.039-9.777-1.681-11.482-6.331l-12.849-35.052h-27.469l-12.849 35.052c-1.703 4.649-6.644 7.367-11.482 6.331-3.665-.788-6.556-3.524-7.542-7.14l-4.512-16.544-31.589 8.614 4.512 16.545c4.22 15.468 16.578 27.169 32.254 30.536 2.966.637 5.939.944 8.881.944 14.514 0 28.207-7.487 36.061-19.676 7.854 12.19 21.547 19.676 36.062 19.676 2.941 0 5.914-.307 8.879-.943 15.677-3.368 28.036-15.069 32.255-30.538l4.512-16.544z" fill="#776d6b"/><path d="m337.71 357.54-4.51 16.54c-4.22 15.47-16.58 27.17-32.26 30.54-2.96.64-5.94.94-8.88.94-14.51 0-28.21-7.48-36.06-19.67v-54.66h13.73l2.07 5.63 10.78 29.42c1.71 4.65 6.65 7.37 11.49 6.33 3.66-.79 6.55-3.53 7.54-7.14l4.51-16.55z" fill="#605553"/><g><ellipse cx="167.246" cy="244.802" fill="#776d6b" rx="23.411" ry="23.411" transform="matrix(.212 -.977 .977 .212 -107.427 356.4)"/><ellipse cx="344.754" cy="244.802" fill="#605553" rx="23.411" ry="23.411" transform="matrix(.674 -.739 .739 .674 -68.472 334.402)"/></g><path d="m222.398 322.528 6.195 6.265c15.087 15.255 39.726 15.255 54.813 0l6.195-6.265c11.973-12.106 3.397-32.648-13.629-32.648h-39.945c-17.026 0-25.601 20.542-13.629 32.648z" fill="#fc445f"/><path d="m289.6 322.53-6.19 6.26c-3.45 3.49-7.39 6.18-11.61 8.07-5.01 2.25-10.41 3.38-15.8 3.38v-50.36h19.97c17.03 0 25.6 20.54 13.63 32.65z" fill="#e00f5a"/></g></g></g></g></svg>