<svg id="Capa_1" enable-background="new 0 0 512 512" height="512" viewBox="0 0 512 512" width="512" xmlns="http://www.w3.org/2000/svg" xmlns:xlink="http://www.w3.org/1999/xlink"><linearGradient id="SVGID_1_" gradientUnits="userSpaceOnUse" x1="26.124" x2="516.11" y1="86.624" y2="373.657"><stop offset="0" stop-color="#ffd9d9" stop-opacity="0"/><stop offset=".9981" stop-color="#ffb3b3"/></linearGradient><g><g><path d="m460.449 38.121c-35.472-39.195-98.702-49.759-144.99-24.225-37.141 20.489-182.114 90.687-222.165 109.717-28.074 13.339-56.099 32.387-66.854 61.55-13.023 35.316 3.472 75.506 28.607 103.526s58.084 47.65 86.78 72.01 54.446 56.541 56.48 94.127c.797 14.736-1.711 31.064 7.061 42.932 9.236 12.494 26.951 14.442 42.486 14.227 26.353-.364 53.061-3.942 77.144-14.649s45.428-29.139 55.877-53.335c22.792-52.778-10.039-117.431 13.122-170.047 15.83-35.961 53.83-56.808 76.136-89.153 30.012-43.519 25.788-107.486-9.684-146.68z" fill="url(#SVGID_1_)"/></g><g><path d="m462.566 155.669c0-12.606-10.229-22.824-22.824-22.824h-337.827v-37.143c0-6.297-5.103-11.412-11.401-11.412h-18.257c-12.605 0-22.823 10.218-22.823 22.813v282.313c0 12.595 10.218 22.813 22.812 22.813h274.484v57.729c0 4.56 5.17 7.2 8.87 4.53l23.35-16.92 23.36 16.92c3.69 2.67 8.87.03 8.87-4.53v-9.028c1.402.616 2.948.963 4.578.963h23.984c10.338 0 19.078-6.889 21.871-16.329.613-2.059.942-4.227.942-6.483z" fill="#00c" opacity=".1"/><g><g><g><g><g><g><g><g><g><g><g><path d="m439.742 436.38h-23.984c-6.297 0-11.401-5.104-11.401-11.401v-49.436h35.385c12.595 0 22.813-10.218 22.813-22.824v60.848c0 2.256-.329 4.424-.942 6.483-2.793 9.441-11.532 16.33-21.871 16.33z" fill="#ff9d33"/><path d="m462.566 409.54c0-12.605-10.229-22.823-22.824-22.823h-367.496c-12.595 0-22.812-10.218-22.812-22.813v-256.571h390.308c12.595 0 22.824 10.218 22.824 22.824z" fill="#ffc599"/><path d="m437.668 307.797v-121.544c0-2.598-1.993-4.738-4.58-4.977-23.548-2.171-42.294-20.917-44.465-44.465-.239-2.587-2.379-4.58-4.977-4.58h-255.292c-2.598 0-4.738 1.993-4.977 4.58-2.171 23.548-20.917 42.294-44.465 44.465-2.587.239-4.58 2.379-4.58 4.977v121.544c0 2.598 1.993 4.738 4.58 4.977 23.548 2.171 42.294 20.917 44.465 44.465.239 2.587 2.379 4.58 4.977 4.58h255.292c2.598 0 4.738-1.993 4.977-4.58 2.171-23.548 20.917-42.294 44.465-44.465 2.587-.239 4.58-2.379 4.58-4.977z" fill="#fff3ee"/><g><g><g><path d="m352.001 239.681h-127.552c-2.762 0-5-2.239-5-5s2.238-5 5-5h127.552c2.762 0 5 2.239 5 5s-2.239 5-5 5z" fill="#ffab66"/></g></g><g><g><path d="m198.93 239.681h-45.914c-2.762 0-5-2.239-5-5s2.238-5 5-5h45.914c2.762 0 5 2.239 5 5s-2.238 5-5 5z" fill="#ffab66"/></g></g><g><g><path d="m352.001 261.909h-35.709c-2.762 0-5-2.239-5-5s2.238-5 5-5h35.709c2.762 0 5 2.239 5 5s-2.239 5-5 5z" fill="#ffab66"/></g></g><g><g><path d="m290.772 261.909h-137.756c-2.762 0-5-2.239-5-5s2.238-5 5-5h137.756c2.762 0 5 2.239 5 5s-2.238 5-5 5z" fill="#ffab66"/></g></g></g></g></g></g></g><path d="m49.434 360.974v-279.383c0-12.595 10.218-22.813 22.823-22.813h18.257c6.297 0 11.401 5.115 11.401 11.412v256.56c0 6.297-5.103 11.412-11.401 11.412h-18.257c-12.605-.001-22.823 10.217-22.823 22.812z" fill="#ff9d33"/></g></g></g></g></g></g><g><g><g><path d="m411.18 358.265v86.18c0 4.56-5.18 7.2-8.87 4.53l-23.36-16.92-23.35 16.92c-3.7 2.67-8.87.03-8.87-4.53v-86.18z" fill="#ff4d4d"/><g><path d="m411.18 358.265v31.15c-8.78 7.17-20.01 11.47-32.23 11.47s-23.44-4.29-32.22-11.46v-31.16z" fill="#ff2c2c"/></g></g><g><circle cx="378.954" cy="331.049" fill="#ff8b00" r="51.025"/></g><path d="m439.739 102.331h-332.827v-32.143c0-9.048-7.36-16.408-16.408-16.408h-18.253c-15.339 0-27.817 12.479-27.817 27.816l.002 282.3c0 15.339 12.479 27.817 27.816 27.817h242.153c2.762 0 5-2.238 5-5s-2.238-5-5-5h-242.153c-9.824 0-17.816-7.993-17.816-17.817v-2.957c.021-9.806 8.004-17.778 17.815-17.778h18.253c9.048 0 16.408-7.36 16.408-16.408v-214.422h332.827c9.824 0 17.816 7.992 17.816 17.816v258.035c-4.829-4.037-11.044-6.47-17.816-6.47h-23.56v-8.842c11.524-10.269 18.8-25.208 18.8-41.822 0-30.893-25.133-56.025-56.025-56.025s-56.025 25.133-56.025 56.025 25.133 56.025 56.025 56.025c9.877 0 19.159-2.579 27.226-7.084v64.458c0 .106 0 .355-.32.52-.325.168-.537.018-.62-.042l-23.356-16.92c-1.75-1.268-4.116-1.268-5.868 0l-23.338 16.914c-.09.065-.3.218-.627.048-.32-.164-.32-.413-.32-.52v-40.664c0-2.762-2.238-5-5-5s-5 2.238-5 5v40.664c0 3.993 2.209 7.604 5.766 9.423 3.563 1.82 7.79 1.5 11.042-.848l20.413-14.794 20.43 14.8c1.848 1.334 4.016 2.012 6.197 2.012 1.647 0 3.304-.387 4.836-1.171 3.557-1.819 5.767-5.43 5.767-9.422v-3.065h23.56c15.338 0 27.816-12.479 27.816-27.816v-283.419c-.002-15.337-12.481-27.816-27.819-27.816zm-342.827 224.422c0 3.533-2.875 6.408-6.408 6.408h-18.253c-6.771 0-12.987 2.433-17.815 6.469v-126.234c0-.007-.002-.013-.002-.02v-131.78c0-9.824 7.993-17.816 17.817-17.816h18.253c3.533 0 6.408 2.875 6.408 6.408zm236.017 4.296c0-25.379 20.646-46.025 46.025-46.025s46.025 20.646 46.025 46.025-20.646 46.025-46.025 46.025-46.025-20.646-46.025-46.025zm124.627 82.517c0 9.824-7.992 17.816-17.816 17.816h-23.56v-39.67h23.56c9.824 0 17.816 7.992 17.816 17.816z" fill="#00c"/><g><circle cx="378.954" cy="331.049" fill="#ff9d33" r="35.772"/></g></g><path d="m381.386 305.275 5.154 15.864h16.68c2.477 0 3.507 3.17 1.503 4.626l-13.495 9.804 5.154 15.864c.765 2.356-1.931 4.315-3.935 2.859l-13.495-9.804-13.495 9.804c-2.004 1.456-4.7-.503-3.935-2.859l5.155-15.864-13.495-9.804c-2.004-1.456-.974-4.626 1.503-4.626h16.68l5.155-15.864c.767-2.356 4.1-2.356 4.866 0z" fill="#fff3ee"/></g></g><path d="m360.161 209.878h-208.322c-5.523 0-10-4.477-10-10v-25.592c0-5.523 4.477-10 10-10h208.322c5.523 0 10 4.477 10 10v25.592c0 5.523-4.477 10-10 10z" fill="#ff4d4d"/><path d="m258.114 209.878h-106.275c-5.523 0-10-4.477-10-10v-25.592c0-5.523 4.477-10 10-10h106.274c5.523 0 10 4.477 10 10v25.592c.001 5.523-4.477 10-9.999 10z" fill="#ff2c2c"/><path d="m207.09 209.878h-55.251c-5.523 0-10-4.477-10-10v-25.592c0-5.523 4.477-10 10-10h55.251c5.523 0 10 4.477 10 10v25.592c0 5.523-4.477 10-10 10z" fill="#ff6c6c"/><g><g><g><g><path d="m236.148 309.638h-35.709c-2.762 0-5-2.239-5-5s2.238-5 5-5h35.709c2.762 0 5 2.239 5 5s-2.238 5-5 5z" fill="#6c6cff"/></g></g><g><g><path d="m287.172 328.84h-86.733c-2.762 0-5-2.239-5-5s2.238-5 5-5h86.733c2.762 0 5 2.239 5 5s-2.238 5-5 5z" fill="#6c6cff"/></g></g></g><path d="m181.243 303.024c0-9.16-7.453-16.613-16.613-16.613s-16.613 7.453-16.613 16.613c0 4.518 1.818 8.615 4.755 11.613-2.937 2.998-4.755 7.095-4.755 11.613 0 2.762 2.238 5 5 5s5-2.238 5-5c0-3.646 2.967-6.613 6.613-6.613s6.613 2.967 6.613 6.613c0 2.762 2.238 5 5 5s5-2.238 5-5c0-4.518-1.818-8.615-4.755-11.613 2.936-2.997 4.755-7.095 4.755-11.613zm-16.614-6.613c3.646 0 6.613 2.967 6.613 6.613s-2.967 6.613-6.613 6.613-6.613-2.967-6.613-6.613 2.967-6.613 6.613-6.613z" fill="#ff4d4d"/></g><path d="m397.359 78.006c-1.031 0-2.063-.318-2.939-.955l-3.24-2.354-3.242 2.354c-1.752 1.273-4.124 1.273-5.878 0-1.752-1.273-2.485-3.53-1.815-5.59l1.237-3.81-3.241-2.355c-1.752-1.273-2.485-3.53-1.815-5.59.669-2.061 2.589-3.455 4.755-3.455h4.006l1.239-3.812c.669-2.06 2.589-3.454 4.755-3.454 2.166 0 4.086 1.395 4.755 3.455l1.238 3.811h4.007c2.166 0 4.086 1.395 4.755 3.455.67 2.06-.063 4.317-1.816 5.59l-3.241 2.355 1.237 3.81c.67 2.06-.063 4.317-1.816 5.59-.878.637-1.909.955-2.941.955z" fill="#ff4d4d"/><path d="m311.953 458.159c-1.031 0-2.063-.318-2.938-.955l-3.242-2.354-3.242 2.354c-1.752 1.273-4.124 1.273-5.878 0-1.752-1.273-2.485-3.53-1.815-5.591l1.238-3.81-3.241-2.355c-1.753-1.272-2.486-3.53-1.816-5.59.669-2.061 2.589-3.455 4.755-3.455h4.007l1.238-3.811c.669-2.061 2.589-3.455 4.755-3.455s4.086 1.395 4.755 3.455l1.238 3.811h4.007c2.166 0 4.086 1.395 4.755 3.455.67 2.06-.063 4.317-1.816 5.59l-3.241 2.355 1.238 3.81c.67 2.061-.063 4.317-1.815 5.591-.879.637-1.911.955-2.942.955z" fill="#4d4dff"/><path d="m355.23 87.049c-1.279 0-2.56-.488-3.535-1.465l-4.965-4.964-4.965 4.964c-1.951 1.953-5.119 1.953-7.07 0-1.953-1.952-1.953-5.118 0-7.07l8.5-8.5c1.951-1.953 5.119-1.953 7.07 0l8.5 8.5c1.953 1.952 1.953 5.118 0 7.07-.975.977-2.255 1.465-3.535 1.465z" fill="#ff9d33"/><path d="m166.516 445.63c-1.279 0-2.56-.488-3.535-1.465l-4.965-4.964-4.965 4.964c-1.951 1.953-5.119 1.953-7.07 0-1.953-1.952-1.953-5.118 0-7.07l8.5-8.5c1.951-1.953 5.119-1.953 7.07 0l8.5 8.5c1.953 1.952 1.953 5.118 0 7.07-.976.977-2.256 1.465-3.535 1.465z" fill="#ff9d33"/><path d="m279.803 425.816c-1.279 0-2.56-.488-3.535-1.465l-4.965-4.964-4.965 4.964c-1.951 1.953-5.119 1.953-7.07 0-1.953-1.952-1.953-5.118 0-7.07l8.5-8.5c1.951-1.953 5.119-1.953 7.07 0l8.5 8.5c1.953 1.952 1.953 5.118 0 7.07-.976.977-2.256 1.465-3.535 1.465z" fill="#ff4d4d"/></g></g></svg>