<svg id="Capa_1" enable-background="new 0 0 512 512" height="512" viewBox="0 0 512 512" width="512" xmlns="http://www.w3.org/2000/svg"><g><path d="m0 11h512v390h-512z" fill="#cdf"/><path d="m256 11h256v390h-256z" fill="#b3bfff"/><path d="m30 41h452v330h-452z" fill="#e6f2ff"/><path d="m256 41h226v330h-226z" fill="#cdf"/><g><path d="m211 341h-15c-11.514 0-22.031-4.351-30-11.484-15.938 14.268-44.063 14.268-60 0-7.969 7.133-18.486 11.484-30 11.484h-16v-30h16c8.276 0 15-6.724 15-15v-45h30v45c0 8.276 6.724 15 15 15s15-6.724 15-15v-15h30v15c0 8.276 6.724 15 15 15h15z" fill="#f66"/></g><g><path d="m60 61h392v30h-392z" fill="#cdf"/></g><g><path d="m60 131h392v30h-392z" fill="#cdf"/></g><g><path d="m60 191h151v30h-151z" fill="#cdf"/></g><g><path d="m361 348.031h-15-15l-15 22.969v60l15 39.272 15-7.5 15 7.5 15-39.272v-60z" fill="#e63950"/><path d="m376 431v-60l-15-22.969h-15v114.741l15 7.5z" fill="#ae2538"/><path d="m421 348.031h-60v122.241l60 30.728z" fill="#e63950"/><g><path d="m271 348.031v152.969l60-30.728v-122.241z" fill="#f66"/></g><path d="m346 191c-57.99 0-105 47.01-105 105s47.01 105 105 105 106-47.01 106-105-48.01-105-106-105z" fill="#ffea80"/><path d="m452 296c0-57.99-48.01-105-106-105v210c57.99 0 106-47.01 106-105z" fill="#fabe2c"/><circle cx="346" cy="296" fill="#fabe2c" r="45"/><path d="m391 296c0-24.853-20.147-45-45-45v90c24.853 0 45-20.147 45-45z" fill="#ff9100"/></g><g fill="#b3bfff"><path d="m256 61h196v30h-196z"/><path d="m256 131h196v30h-196z"/></g></g></svg>