<svg id="Capa_1" enable-background="new 0 0 512 512" height="512" viewBox="0 0 512 512" width="512" xmlns="http://www.w3.org/2000/svg" xmlns:xlink="http://www.w3.org/1999/xlink"><linearGradient id="SVGID_1_" gradientUnits="userSpaceOnUse" x1="497.475" x2="-33.102" y1="551.86" y2="-12.542"><stop offset="0" stop-color="#fff3ee" stop-opacity="0"/><stop offset=".2938" stop-color="#ffeade" stop-opacity=".373"/><stop offset=".7874" stop-color="#ffd6bb"/></linearGradient><g><g><path d="m217.296 19.997c43.823-77.721 62.462 94.601 156.655 117.348 127.926 30.892 176.138 68.607 75.076 122.301-150.427 79.922 87.39 183.078 16.274 245.642-45.238 39.797-121.96-110.318-213.663-111.503-180.719 26.331-355.034 68.058-151.726-148.021 33.182-42.691-22.827-69.417-27.108-119.081 4.427-49.943 101.322 22.867 144.492-106.686z" fill="url(#SVGID_1_)"/></g><g><path d="m471.59 222.728c2.762 0 5-2.238 5-5s-2.238-5-5-5h-6.839v-.001-13.949h6.839c2.762 0 5-2.238 5-5s-2.238-5-5-5h-9.564c-.546-.579-1.161-1.101-1.845-1.544l-198.751-128.503c-3.304-2.136-7.555-2.136-10.859 0l-198.752 128.503c-.684.442-1.299.964-1.845 1.544h-9.564c-2.761 0-5 2.238-5 5s2.239 5 5 5h6.839v13.949.001h-6.839c-2.761 0-5 2.238-5 5s2.239 5 5 5h48.351l5.147 13.358c-.104-.002-.206-.016-.31-.016-7.636 0-13.826 6.19-13.826 13.826s6.19 13.826 13.826 13.826c.293 0 .579-.026.868-.044v181.073h-28.704c-5.523 0-10 4.477-10 10v8.846h-15.296c-2.761 0-5 2.239-5 5v16.577c0 2.761 2.239 5 5 5h431.067c2.761 0 5-2.239 5-5v-16.577c0-2.761-2.239-5-5-5h-15.295v-8.846c0-5.523-4.477-10-10-10h-28.704v-181.073c.288.018.575.044.868.044 7.636 0 13.826-6.19 13.826-13.826s-6.19-13.826-13.826-13.826c-.105 0-.206.013-.31.016l5.147-13.358zm-328.476 40.95c.288.018.575.044.868.044 7.636 0 13.826-6.19 13.826-13.826s-6.19-13.826-13.826-13.826c-.105 0-.206.013-.31.016l5.147-13.358h77.153l5.147 13.358c-.104-.002-.206-.016-.31-.016-7.636 0-13.826 6.19-13.826 13.826s6.19 13.826 13.826 13.826c.293 0 .579-.026.868-.044v181.073h-88.563zm225.215-27.593c-.104-.002-.205-.016-.31-.016-7.636 0-13.826 6.19-13.826 13.826s6.19 13.826 13.826 13.826c.293 0 .579-.026.868-.044v181.073h-88.563v-181.072c.288.018.575.044.868.044 7.636 0 13.826-6.19 13.826-13.826s-6.19-13.826-13.826-13.826c-.105 0-.206.013-.31.016l5.147-13.358h77.153z" fill="#00c" opacity=".1"/><g><g><g><g><path d="m143.114 212.02h-48.649l-5.898-15.307c-1.074-2.788.983-5.787 3.972-5.787h52.502c2.988 0 5.046 2.998 3.972 5.787z" fill="#ffc599"/><path d="m94.466 212.018h48.648v206.743h-48.648z" fill="#ffab66"/><path d="m94.466 212.018h48.648v11.284h-48.648z" fill="#ffe8dc"/><g><circle cx="93.598" cy="224.384" fill="#ffe8dc" r="13.826"/><circle cx="93.598" cy="224.384" fill="#ffc599" r="4.96"/><circle cx="143.981" cy="224.384" fill="#ffe8dc" r="13.826"/><circle cx="143.981" cy="224.384" fill="#ffc599" r="4.96"/></g></g><g><g><path d="m124.441 418.759h-11.303v-162.749c0-3.121 2.53-5.651 5.651-5.651 3.121 0 5.651 2.53 5.651 5.651v162.749z" fill="#ff8b00"/></g></g></g><g><g><path d="m280.324 212.02h-48.649l-5.898-15.307c-1.074-2.788.983-5.787 3.972-5.787h52.502c2.988 0 5.046 2.998 3.972 5.787z" fill="#ffc599"/><path d="m231.676 212.018h48.648v206.743h-48.648z" fill="#ffab66"/><path d="m231.676 212.018h48.648v11.284h-48.648z" fill="#ffe8dc"/><g><circle cx="230.808" cy="224.384" fill="#ffe8dc" r="13.826"/><circle cx="230.808" cy="224.384" fill="#ffc599" r="4.96"/><circle cx="281.192" cy="224.384" fill="#ffe8dc" r="13.826"/><circle cx="281.192" cy="224.384" fill="#ffc599" r="4.96"/></g></g><g><g><path d="m261.651 418.759h-11.303v-162.749c0-3.121 2.53-5.651 5.651-5.651 3.121 0 5.651 2.53 5.651 5.651v162.749z" fill="#ff8b00"/></g></g></g><g><g><path d="m417.535 212.02h-48.649l-5.898-15.307c-1.074-2.788.983-5.787 3.972-5.787h52.502c2.988 0 5.046 2.998 3.972 5.787z" fill="#ffc599"/><path d="m368.886 212.018h48.648v206.743h-48.648z" fill="#ffab66"/><path d="m368.886 212.018h48.648v11.284h-48.648z" fill="#ffe8dc"/><g><circle cx="368.019" cy="224.384" fill="#ffe8dc" r="13.826"/><circle cx="368.019" cy="224.384" fill="#ffc599" r="4.96"/><circle cx="418.402" cy="224.384" fill="#ffe8dc" r="13.826"/><circle cx="418.402" cy="224.384" fill="#ffc599" r="4.96"/></g></g><g><g><path d="m398.862 418.759h-11.303v-162.749c0-3.121 2.53-5.651 5.651-5.651 3.121 0 5.651 2.53 5.651 5.651v162.749z" fill="#ff8b00"/></g></g></g></g><g><path d="m456.238 440.714h-400.476v-16.577c0-5.523 4.477-10 10-10h380.476c5.523 0 10 4.477 10 10z" fill="#ff4d4d"/><path d="m471.533 464.662h-431.066c-2.761 0-5-2.239-5-5v-16.577c0-2.761 2.239-5 5-5h431.067c2.761 0 5 2.239 5 5v16.577c-.001 2.762-2.239 5-5.001 5z" fill="#ffc599"/></g><g><path d="m459.751 192.215h-407.502c-2.761 0-5-2.239-5-5v-17.095c0-3.393 1.721-6.555 4.57-8.398l198.751-128.503c3.304-2.136 7.555-2.136 10.859 0l198.751 128.503c2.85 1.842 4.57 5.004 4.57 8.398v17.095c.001 2.761-2.237 5-4.999 5z" fill="#ffab66"/><path d="m464.75 170.116v17.1c0 2.761-2.239 5-5 5h-407.5c-2.761 0-5-2.239-5-5v-17.1c0-.63.06-1.25.18-1.85h417.14c.12.6.18 1.22.18 1.85z" fill="#ff4d4d"/><g fill="#ff9d33"><path d="m129.796 135.128 73.729-47.673c3.327-2.151 7.715.237 7.715 4.199v47.673c0 2.761-2.239 5-5 5h-73.729c-4.983-.001-6.899-6.494-2.715-9.199z"/><path d="m379.489 144.326h-73.729c-2.761 0-5-2.239-5-5v-47.673c0-3.962 4.388-6.35 7.715-4.199l73.729 47.673c4.184 2.706 2.268 9.199-2.715 9.199z"/></g><circle cx="256" cy="105.318" fill="#ffe8dc" r="33.655"/><g><g><path d="m248.052 120.33c-2.154 0-4.144-1.403-4.79-3.573l-3.75-12.588h-3.744c-2.761 0-5-2.238-5-5s2.239-5 5-5h7.471c2.211 0 4.161 1.453 4.792 3.572l4.814 16.16c.788 2.646-.718 5.432-3.364 6.22-.475.141-.956.209-1.429.209z" fill="#ff4d4d"/></g><g><path d="m263.947 120.33c-.473 0-.953-.067-1.43-.209-2.646-.789-4.152-3.573-3.364-6.22l4.815-16.16c.632-2.119 2.58-3.572 4.792-3.572h7.471c2.762 0 5 2.238 5 5s-2.238 5-5 5h-3.743l-3.751 12.588c-.646 2.169-2.635 3.573-4.79 3.573z" fill="#ff4d4d"/></g></g><g fill="#ff8b00"><path d="m211.24 91.656v10.95c0-3.96-4.39-6.35-7.71-4.2l-71.02 45.92c-4.98 0-6.9-6.49-2.71-9.2l73.73-47.67c3.32-2.15 7.71.24 7.71 4.2z"/><path d="m379.49 144.326-71.02-45.92c-3.32-2.15-7.71.24-7.71 4.2v-10.95c0-3.96 4.39-6.35 7.71-4.2l73.73 47.67c4.19 2.71 2.27 9.2-2.71 9.2z"/></g><path d="m471.533 433.085h-10.295v-8.948c0-8.271-6.729-15-15-15h-23.704v-166.397c8.397-1.89 14.694-9.396 14.694-18.356 0-8.085-5.133-14.976-12.304-17.637l3.174-8.236c.164-.427.245-.861.289-1.295h43.203c2.762 0 5-2.238 5-5s-2.238-5-5-5h-1.839v-.001-13.948h1.839c2.762 0 5-2.238 5-5s-2.238-5-5-5h-3.495c-1.18-2.298-2.949-4.288-5.2-5.743l-48.778-31.538c-2.318-1.497-5.414-.833-6.914 1.484-1.499 2.319-.835 5.414 1.484 6.914l44.672 28.883h-394.718l194.644-125.849c1.649-1.066 3.781-1.066 5.43 0l121.608 78.627c2.323 1.499 5.415.834 6.914-1.484 1.499-2.319.835-5.414-1.484-6.914l-121.608-78.627c-4.948-3.197-11.342-3.197-16.289 0l-198.751 128.503c-2.251 1.455-4.021 3.445-5.201 5.743h-3.494c-2.761 0-5 2.238-5 5s2.239 5 5 5h1.838v13.948.001h-1.838c-2.761 0-5 2.238-5 5s2.239 5 5 5h43.202c.044.434.125.868.289 1.295l3.174 8.236c-7.171 2.661-12.304 9.552-12.304 17.637 0 8.96 6.297 16.465 14.694 18.355v166.397h-23.703c-8.271 0-15 6.729-15 15v8.948h-10.296c-5.514 0-10 4.486-10 10v16.577c0 5.514 4.486 10 10 10h431.067c5.514 0 10-4.486 10-10v-16.577c0-5.512-4.486-9.998-10-9.998zm-11.782-259.818v13.948h-407.502v-13.948zm-41.349 59.944c-4.867 0-8.826-3.96-8.826-8.827 0-3.632 2.206-6.757 5.348-8.109.255.156.523.299.813.411.591.228 1.199.335 1.797.335 1.163 0 2.28-.419 3.169-1.148 3.753 1.016 6.526 4.441 6.526 8.512 0 4.866-3.959 8.826-8.827 8.826zm-3.895-27.243c-8.517 1.8-14.931 9.371-14.931 18.416 0 8.331 5.444 15.405 12.958 17.878v166.875h-38.648v-166.875c7.514-2.473 12.959-9.547 12.959-17.878 0-9.046-6.414-16.617-14.932-18.416l-3.373-8.752h49.34zm-185.999 9.904c.889.729 2.006 1.148 3.169 1.148.598 0 1.206-.107 1.797-.335.29-.112.557-.255.813-.411 3.142 1.353 5.348 4.477 5.348 8.109 0 4.867-3.959 8.827-8.827 8.827-4.867 0-8.826-3.96-8.826-8.827 0-4.07 2.773-7.495 6.526-8.511zm8.168 26.39c7.514-2.473 12.959-9.547 12.959-17.878 0-9.046-6.415-16.617-14.933-18.416l-3.373-8.752h49.341l-3.373 8.752c-8.518 1.799-14.932 9.37-14.932 18.416 0 8.331 5.445 15.405 12.959 17.878v166.875h-38.648zm44.515-9.051c-4.867 0-8.826-3.96-8.826-8.827 0-3.632 2.206-6.757 5.348-8.109.256.157.523.3.813.411.591.228 1.199.335 1.797.335 1.163 0 2.28-.419 3.169-1.148 3.753 1.016 6.525 4.441 6.525 8.511.001 4.867-3.958 8.827-8.826 8.827zm4.133 9.528c8.397-1.891 14.693-9.396 14.693-18.355 0-8.085-5.133-14.975-12.303-17.637l3.174-8.236c.164-.427.245-.861.289-1.295h66.855c.044.434.124.868.289 1.295l3.174 8.236c-7.17 2.662-12.303 9.552-12.303 17.637 0 8.96 6.296 16.465 14.693 18.355v166.397h-78.562v-166.397zm91.521-18.355c0 4.867-3.959 8.827-8.826 8.827s-8.826-3.96-8.826-8.827c0-4.07 2.772-7.496 6.525-8.511.889.729 2.006 1.148 3.169 1.148.598 0 1.206-.107 1.797-.335.29-.112.557-.255.813-.411 3.142 1.352 5.348 4.476 5.348 8.109zm-292.074 0c0-4.07 2.773-7.496 6.526-8.511.889.729 2.006 1.148 3.169 1.148.598 0 1.206-.107 1.797-.335.29-.112.557-.255.813-.411 3.142 1.353 5.348 4.477 5.348 8.109 0 4.867-3.959 8.827-8.826 8.827s-8.827-3.96-8.827-8.827zm14.694 17.878c7.514-2.473 12.959-9.547 12.959-17.878 0-9.046-6.415-16.617-14.933-18.416l-3.372-8.752h49.341l-3.373 8.752c-8.518 1.799-14.932 9.37-14.932 18.416 0 8.331 5.445 15.405 12.958 17.878v139.846c0 2.762 2.239 5 5 5s5-2.238 5-5v-139.369c8.397-1.891 14.694-9.396 14.694-18.356 0-8.085-5.133-14.976-12.304-17.637l3.174-8.236c.164-.427.245-.861.289-1.295h66.856c.044.434.125.868.289 1.295l3.174 8.236c-7.171 2.661-12.304 9.552-12.304 17.637 0 8.96 6.297 16.465 14.694 18.356v166.397h-127.21zm44.516-9.051c-4.867 0-8.826-3.96-8.826-8.827 0-3.632 2.206-6.757 5.348-8.109.256.156.523.3.813.411.591.228 1.199.335 1.797.335 1.163 0 2.28-.419 3.169-1.148 3.753 1.016 6.526 4.441 6.526 8.512 0 4.866-3.96 8.826-8.827 8.826zm-83.219 190.926c0-2.757 2.243-5 5-5h380.477c2.757 0 5 2.243 5 5v8.948h-390.477zm-20.296 35.525v-16.577h431.067l.007 16.577z" fill="#00c"/></g></g><path d="m426.048 108.68c-1.031 0-2.063-.318-2.938-.955-1.753-1.272-2.486-3.529-1.816-5.59l1.237-3.811-3.241-2.355c-1.752-1.273-2.485-3.53-1.815-5.59.669-2.061 2.589-3.455 4.755-3.455h4.006l1.239-3.812c.669-2.06 2.589-3.454 4.755-3.454 2.166 0 4.086 1.395 4.755 3.455l1.238 3.811h4.007c2.166 0 4.086 1.395 4.755 3.455.67 2.06-.063 4.317-1.816 5.59l-3.241 2.355 1.237 3.811c.67 2.061-.063 4.317-1.816 5.59-1.752 1.273-4.126 1.273-5.878 0l-3.24-2.355-3.241 2.355c-.879.636-1.911.955-2.942.955z" fill="#ff4d4d"/><path d="m469.841 359.207c-1.279 0-2.56-.488-3.535-1.465l-4.965-4.964-4.965 4.964c-1.951 1.953-5.119 1.953-7.07 0-1.953-1.952-1.953-5.118 0-7.07l8.5-8.5c1.951-1.953 5.119-1.953 7.07 0l8.5 8.5c1.953 1.952 1.953 5.118 0 7.07-.976.977-2.256 1.465-3.535 1.465z" fill="#ff9d33"/><path d="m136.003 78.622c-1.28 0-2.559-.488-3.536-1.465l-4.964-4.964-4.964 4.964c-1.953 1.953-5.118 1.953-7.071 0-1.953-1.952-1.953-5.118 0-7.07l8.5-8.5c1.953-1.953 5.118-1.953 7.071 0l8.5 8.5c1.953 1.952 1.953 5.118 0 7.07-.977.977-2.256 1.465-3.536 1.465z" fill="#ff9d33"/><path d="m61.942 255.897c-1.031 0-2.063-.318-2.939-.955l-3.241-2.354-3.241 2.354c-1.752 1.273-4.125 1.273-5.878 0-1.752-1.272-2.486-3.529-1.816-5.59l1.238-3.811-3.241-2.355c-1.752-1.273-2.486-3.53-1.816-5.59.669-2.061 2.589-3.455 4.755-3.455h4.007l1.238-3.81c.669-2.061 2.589-3.455 4.755-3.455s4.086 1.395 4.755 3.455l1.238 3.81h4.007c2.166 0 4.086 1.395 4.755 3.455s-.064 4.316-1.816 5.59l-3.241 2.355 1.238 3.811c.669 2.061-.064 4.317-1.816 5.59-.879.637-1.91.955-2.941.955z" fill="#4d4dff"/><path d="m462.164 390.503c-1.279 0-2.56-.488-3.535-1.465l-4.965-4.964-4.965 4.964c-1.951 1.953-5.119 1.953-7.07 0-1.953-1.952-1.953-5.118 0-7.07l8.5-8.5c1.951-1.953 5.119-1.953 7.07 0l8.5 8.5c1.953 1.952 1.953 5.118 0 7.07-.975.977-2.256 1.465-3.535 1.465z" fill="#ff4d4d"/></g></g></svg>