<svg id="Capa_1" enable-background="new 0 0 511.995 511.995" height="512" viewBox="0 0 511.995 511.995" width="512" xmlns="http://www.w3.org/2000/svg"><g><g><path d="m417.282 35.874v213.2c0 4.55-3.689 8.239-8.247 8.239h-265.915c-4.558 0-8.247-3.689-8.247-8.239v-213.2c0-4.55 3.689-8.239 8.247-8.239h265.916c4.557 0 8.246 3.689 8.246 8.239z" fill="#e09977"/><path d="m299.801 125.859h-47.446c-4.553 0-8.243-3.691-8.243-8.243v-89.983h63.933v89.983c0 4.552-3.691 8.243-8.244 8.243z" fill="#da875d"/><path d="m417.279 35.875v213.199c0 4.55-3.685 8.243-8.243 8.243h-28.283c4.559 0 8.243-3.693 8.243-8.243v-213.199c0-4.55-3.685-8.243-8.243-8.243h28.283c4.559 0 8.243 3.693 8.243 8.243z" fill="#da875d"/><g><path d="m354.909 257.317h-155.568v-102.726c0-2.276 1.845-4.122 4.122-4.122h147.325c2.276 0 4.122 1.845 4.122 4.122v102.726z" fill="#27d1b3"/><path d="m354.909 154.594v102.719h-21.966v-102.719c0-2.283-1.852-4.127-4.127-4.127h21.973c2.276 0 4.12 1.845 4.12 4.127z" fill="#20b69f"/></g><path d="m299.801 105.832h-47.446c-4.553 0-8.243-3.691-8.243-8.243v-68.474c0-2.276 1.845-4.122 4.122-4.122h55.69c2.276 0 4.122 1.845 4.122 4.122v68.474c-.001 4.552-3.692 8.243-8.245 8.243z" fill="#fddbbf"/><path d="m308.046 29.116v68.474c0 4.55-3.693 8.243-8.243 8.243h-22.678c4.559 0 8.243-3.693 8.243-8.243v-68.474c0-2.275-1.846-4.122-4.122-4.122h22.678c2.276 0 4.122 1.847 4.122 4.122z" fill="#fcca9f"/></g><g><path d="m504.5 265.564v213.194c0 4.555-3.69 8.246-8.255 8.246h-265.912c-4.555 0-8.245-3.69-8.245-8.246v-213.194c0-4.555 3.69-8.246 8.245-8.246h265.912c4.565 0 8.255 3.691 8.255 8.246z" fill="#c76d3d"/><path d="m331.325 257.313v89.988c0 4.553 3.691 8.243 8.243 8.243h47.446c4.553 0 8.243-3.691 8.243-8.243v-89.988z" fill="#aa5e33"/><path d="m504.493 265.561v213.199c0 4.55-3.685 8.243-8.243 8.243h-28.283c4.559 0 8.243-3.693 8.243-8.243v-213.199c0-4.55-3.685-8.243-8.243-8.243h28.283c4.558 0 8.243 3.693 8.243 8.243z" fill="#aa5e33"/><path d="m457.336 487.002h-55.568v-102.725c0-2.276 1.845-4.122 4.122-4.122h47.325c2.276 0 4.122 1.845 4.122 4.122v102.725z" fill="#31a7fb"/><path d="m457.336 384.28v102.719h-21.966v-102.719c0-2.283-1.852-4.127-4.127-4.127h21.973c2.276 0 4.12 1.845 4.12 4.127z" fill="#1785f8"/><path d="m331.325 257.313v69.961c0 4.553 3.691 8.243 8.243 8.243h47.446c4.553 0 8.243-3.691 8.243-8.243v-69.961z" fill="#fddbbf"/><path d="m372.582 257.313v69.962c0 4.55-3.685 8.243-8.243 8.243h22.678c4.55 0 8.243-3.693 8.243-8.243v-69.962z" fill="#fcca9f"/></g><g><g><path d="m289.912 265.564v213.194c0 4.555-3.69 8.246-8.255 8.246h-265.911c-4.555 0-8.245-3.69-8.245-8.246v-213.194c0-4.555 3.69-8.246 8.245-8.246h265.912c4.564 0 8.254 3.691 8.254 8.246z" fill="#e09977"/><path d="m116.737 257.313v89.988c0 4.553 3.691 8.243 8.243 8.243h47.446c4.553 0 8.243-3.691 8.243-8.243v-89.988z" fill="#da875d"/><path d="m289.905 265.561v213.199c0 4.55-3.685 8.243-8.243 8.243h-28.283c4.559 0 8.243-3.693 8.243-8.243v-213.199c0-4.55-3.685-8.243-8.243-8.243h28.283c4.558 0 8.243 3.693 8.243 8.243z" fill="#da875d"/><path d="m242.749 487.002h-55.568v-102.725c0-2.276 1.845-4.122 4.122-4.122h47.325c2.276 0 4.122 1.845 4.122 4.122v102.725z" fill="#fb4a59"/><path d="m242.749 384.28v102.719h-21.966v-102.719c0-2.283-1.852-4.127-4.127-4.127h21.973c2.275 0 4.12 1.845 4.12 4.127z" fill="#f82f40"/><path d="m116.737 257.313v69.961c0 4.553 3.691 8.243 8.243 8.243h47.446c4.553 0 8.243-3.691 8.243-8.243v-69.961z" fill="#fddbbf"/><path d="m157.994 257.313v69.962c0 4.55-3.685 8.243-8.243 8.243h22.678c4.55 0 8.243-3.693 8.243-8.243v-69.962z" fill="#fcca9f"/><g><path d="m285.416 203.893c0-4.142-3.357-7.5-7.5-7.5h-3.109c-4.143 0-7.5 3.358-7.5 7.5s3.357 7.5 7.5 7.5h3.109c4.143 0 7.5-3.358 7.5-7.5z"/><path d="m274.807 186.336h48.779c4.143 0 7.5-3.358 7.5-7.5s-3.357-7.5-7.5-7.5h-48.779c-4.143 0-7.5 3.358-7.5 7.5s3.357 7.5 7.5 7.5z"/><path d="m323.586 196.393h-22.229c-4.143 0-7.5 3.358-7.5 7.5s3.357 7.5 7.5 7.5h22.229c4.143 0 7.5-3.358 7.5-7.5s-3.357-7.5-7.5-7.5z"/><path d="m496.252 249.818h-71.493c.012-.248.023-.495.023-.745v-213.197c0-8.681-7.063-15.744-15.743-15.744h-97.751c-2.006-1.648-4.572-2.64-7.365-2.64h-55.689c-2.793 0-5.358.991-7.365 2.64h-97.75c-8.682 0-15.744 7.063-15.744 15.744v90.324c0 4.142 3.357 7.5 7.5 7.5s7.5-3.358 7.5-7.5v-90.324c0-.41.334-.744.744-.744h93.493v62.456c0 8.681 7.063 15.744 15.744 15.744h47.446c8.681 0 15.743-7.063 15.743-15.744v-62.456h93.494c.41 0 .743.333.743.744v213.197c0 .367-.242.563-.347.629-.056.036-.106.078-.161.116l-46.865-.005v-95.222c0-6.408-5.214-11.622-11.622-11.622h-147.324c-6.408 0-11.622 5.213-11.622 11.622v95.228l-48.967-.005c-.052-.036-.1-.076-.153-.11-.104-.067-.347-.264-.347-.629v-87.479c0-4.142-3.357-7.5-7.5-7.5s-7.5 3.358-7.5 7.5v87.479c0 .248.012.494.023.74l-111.654.005c-8.68-.002-15.743 7.061-15.743 15.742v213.197c0 8.681 7.063 15.744 15.743 15.744h306.278c4.143 0 7.5-3.358 7.5-7.5s-3.357-7.5-7.5-7.5h-24.651c.012-.248.038-.493.038-.744v-101.165c0-4.142-3.357-7.5-7.5-7.5s-7.5 3.358-7.5 7.5v101.165c0 .41-.334.744-.744.744h-31.415v-95.226c0-6.408-5.214-11.622-11.622-11.622h-47.325c-6.408 0-11.621 5.213-11.621 11.622v95.226h-163.938c-.41 0-.743-.333-.743-.744v-213.197c0-.41.333-.743.743-.743h93.494v62.456c0 8.681 7.063 15.743 15.743 15.743h47.446c8.682 0 15.744-7.063 15.744-15.743v-62.456h93.493c.41 0 .744.333.744.743v76.638c0 4.142 3.357 7.5 7.5 7.5s7.5-3.358 7.5-7.5v-76.638c0-.251-.026-.495-.038-.743h26.455v62.456c0 8.681 7.063 15.743 15.743 15.743h47.446c8.681 0 15.743-7.063 15.743-15.743v-62.456h93.494c.41 0 .743.333.743.743v213.197c0 .41-.333.744-.743.744h-31.416v-95.226c0-6.408-5.213-11.622-11.621-11.622h-47.323c-6.408 0-11.621 5.213-11.621 11.622v95.226h-36.852c-4.143 0-7.5 3.358-7.5 7.5s3.357 7.5 7.5 7.5h138.835c8.681 0 15.743-7.063 15.743-15.744v-213.197c0-8.681-7.062-15.744-15.743-15.744zm-195.707-152.23c0 .41-.333.744-.743.744h-47.446c-.41 0-.744-.333-.744-.744v-65.095h48.934v65.095zm-105.864 290.067h40.568v91.848h-40.568zm12.16-229.686h140.568v91.844l-140.568.005zm-33.67 169.305c0 .41-.334.743-.744.743h-47.447c-.41 0-.743-.333-.743-.743v-62.461h48.934zm214.587 0c0 .41-.333.743-.743.743h-47.446c-.41 0-.743-.333-.743-.743v-62.461h48.933v62.461zm21.511 60.381h40.567v91.848h-40.567z"/><path d="m426.116 418.393h6.872c4.143 0 7.5-3.358 7.5-7.5s-3.357-7.5-7.5-7.5h-6.872c-4.143 0-7.5 3.358-7.5 7.5s3.358 7.5 7.5 7.5z"/><path d="m432.988 426.079h-6.872c-4.143 0-7.5 3.358-7.5 7.5s3.357 7.5 7.5 7.5h6.872c4.143 0 7.5-3.358 7.5-7.5s-3.357-7.5-7.5-7.5z"/><path d="m432.988 448.764h-6.872c-4.143 0-7.5 3.358-7.5 7.5s3.357 7.5 7.5 7.5h6.872c4.143 0 7.5-3.358 7.5-7.5s-3.357-7.5-7.5-7.5z"/><path d="m35.829 453.482c-4.143 0-7.5 3.358-7.5 7.5s3.357 7.5 7.5 7.5h3.109c4.143 0 7.5-3.358 7.5-7.5s-3.357-7.5-7.5-7.5z"/><path d="m84.608 428.425h-48.779c-4.143 0-7.5 3.358-7.5 7.5s3.357 7.5 7.5 7.5h48.779c4.143 0 7.5-3.358 7.5-7.5s-3.357-7.5-7.5-7.5z"/><path d="m84.608 453.482h-22.229c-4.143 0-7.5 3.358-7.5 7.5s3.357 7.5 7.5 7.5h22.229c4.143 0 7.5-3.358 7.5-7.5s-3.357-7.5-7.5-7.5z"/><path d="m84.608 392.356h-23.118c-4.143 0-7.5 3.358-7.5 7.5s3.357 7.5 7.5 7.5h23.118c4.143 0 7.5-3.358 7.5-7.5s-3.357-7.5-7.5-7.5z"/><path d="m211.529 418.393h6.871c4.143 0 7.5-3.358 7.5-7.5s-3.357-7.5-7.5-7.5h-6.871c-4.143 0-7.5 3.358-7.5 7.5s3.358 7.5 7.5 7.5z"/><path d="m218.4 426.079h-6.871c-4.143 0-7.5 3.358-7.5 7.5s3.357 7.5 7.5 7.5h6.871c4.143 0 7.5-3.358 7.5-7.5s-3.357-7.5-7.5-7.5z"/><path d="m218.4 448.764h-6.871c-4.143 0-7.5 3.358-7.5 7.5s3.357 7.5 7.5 7.5h6.871c4.143 0 7.5-3.358 7.5-7.5s-3.357-7.5-7.5-7.5z"/></g></g></g></g></svg>