<svg id="Capa_1" enable-background="new 0 0 512 512" height="512" viewBox="0 0 512 512" width="512" xmlns="http://www.w3.org/2000/svg"><g><g><g><path d="m70.874 183.611c-23.165-13.374-38.113-37.441-39.835-64.133-.565-8.759-12.145-11.465-16.533-3.865l-.002.003c-26.463 45.835-12.731 103.76 30.161 133.228l29.261 22 36.612-64.333z" fill="#865240"/></g><g><path d="m316 512h-30c-8.284 0-15-6.716-15-15v-125.735c0-8.284 6.716-15 15-15h60c8.284 0 15 6.716 15 15v125.735c0 8.284-36.716 15-45 15z" fill="#63544f"/><path d="m376 512h-60c-.018 0 0-.015 0-.033v-120.267c-49.655-1.951-103.161-13.297-139.933-30.011l-28.484-12.947-1.787 10.724c-6.322 37.933-33.681 68.496-69.796 79.406v58.128c0 8.284-6.716 15-15 15h-45c-8.284 0-15-6.716-15-15v-90c0-3.406 1.159-6.711 3.287-9.37l36.713-45.892v-64.116c0-47.811 35.775-88.336 83.217-94.266l122.82-15.353c22.767-2.846 41.839-18.855 48.586-40.785.449-1.461 1.119-2.844 1.987-4.103l56.039-81.297c3.136-4.548 8.52-7 14.007-6.395l19.021 2.113c27.309 3.034 50.632 21.111 60.733 46.157l51.055 8.509c7.234 1.207 12.535 7.465 12.535 14.798v20c0 30.376-24.624 55-55 55h-15v81.148c0 35.383-19.319 67.101-50 83.405v140.447c0 8.284-6.716 15-15 15z" fill="#bc8173"/><g><path d="m498.466 102.204-51.055-8.509c-10.102-25.046-33.425-43.123-60.733-46.157l-19.021-2.113c-5.487-.605-10.871 1.847-14.007 6.395l-56.039 81.297c-.868 1.259-1.538 2.642-1.987 4.103-6.747 21.93-25.819 37.939-48.586 40.785l-27.038 3.379v195.72c29.864 8.093 63.742 13.329 96 14.596v120.267c0 .018-.018.033 0 .033h60c8.284 0 15-6.716 15-15v-140.446c30.681-16.305 50-48.022 50-83.405v-81.149h15c30.376 0 55-24.624 55-55v-20c0-7.333-5.301-13.591-12.534-14.796z" fill="#865240"/></g><path d="m336 172c-24.813 0-45-20.187-45-45v-40c0-24.813 20.187-45 45-45 .554 0 1.106.03 1.656.092l30 3.333c7.597.844 13.344 7.264 13.344 14.908v66.667c0 24.813-20.187 45-45 45z" fill="#63544f"/></g><g><path d="m418.468 243.404c-20.547 0-42.317-2.781-63.307-8.194-32.093-8.275-59.804-21.862-80.136-39.29l-22.835-19.573c-6.29-5.392-7.018-14.861-1.626-21.15 5.39-6.29 14.86-7.019 21.15-1.627l22.835 19.573c33.73 28.911 94.956 45.297 145.591 38.974 8.216-1.024 15.717 4.803 16.744 13.023 1.028 8.22-4.803 15.717-13.023 16.744-8.14 1.017-16.657 1.52-25.393 1.52z" fill="#fff16b"/><path d="m75.116 3.088c-2.617-2.003-5.821-3.088-9.116-3.088h-50c-8.284 0-15 6.716-15 15s6.716 15 15 15h44.919l191.917 146.87 18.232-23.824z" fill="#5e54ac"/></g></g><g><g><path d="m418.468 243.404c-20.547 0-42.317-2.781-63.307-8.194-32.093-8.275-59.804-21.862-80.136-39.29l-22.835-19.573c-6.29-5.392-7.018-14.861-1.626-21.15 5.39-6.29 14.86-7.019 21.15-1.627l22.835 19.573c33.73 28.911 94.956 45.297 145.591 38.974 8.216-1.024 15.717 4.803 16.744 13.023 1.028 8.22-4.803 15.717-13.023 16.744-8.14 1.017-16.657 1.52-25.393 1.52z" fill="#ffb454"/><g><path d="m271.068 153.046-51.068-39.082v37.777l32.836 25.129z" fill="#453d81"/></g></g></g></g></svg>