<svg height="512pt" viewBox="0 -35 512 512" width="512pt" xmlns="http://www.w3.org/2000/svg"><path d="m192 85.09375h-104v47.5c0 28.71875 23.28125 52 52 52s52-23.28125 52-52zm0 0" fill="#fccd9d"/><g fill="#ffc36e"><path d="m215 13.6875h-88.5c-21.261719 0-38.5 17.238281-38.5 38.5v32.90625h85c23.195312 0 42-18.804688 42-42zm0 0"/><path d="m304.523438 248.703125-19.023438-13.6875c-7.105469-5.113281-8.625-15.066406-3.367188-22.0625 11.597657-15.445313 16.679688-26.234375 36-26.234375h90.734376c19.320312 0 24.402343 10.789062 36 26.234375 5.257812 7 3.738281 16.949219-3.367188 22.0625l-19.023438 13.6875zm0 0"/><path d="m421 250.09375c0-35.070312-25.742188-63.5-57.5-63.5s-57.5 28.429688-57.5 63.5 25.742188 63.5 57.5 63.5 57.5-28.429688 57.5-63.5zm0 0"/></g><path d="m170.761719 184.59375h-61.523438c-54.808593 0-99.238281 44.429688-99.238281 99.238281v148.761719h260v-148.761719c0-54.808593-44.429688-99.238281-99.238281-99.238281zm0 0" fill="#95e2ff"/><path d="m183.03125 191.558594c0 23.769531-19.265625 43.035156-43.03125 43.035156s-43.03125-19.269531-43.03125-43.035156zm0 0" fill="#fff"/><path d="m464.171875 397.71875-7.171875-5.125v-34c0-32.636719-17.570312-61.164062-43.761719-76.65625h-99.476562c-26.191407 15.492188-43.761719 44.019531-43.761719 76.65625v34l-7.171875 5.125c-4.285156 3.058594-6.828125 8-6.828125 13.261719v.574219c0 11.617187 9.421875 21.039062 21.039062 21.039062h172.921876c11.617187 0 21.039062-9.421875 21.039062-21.039062v-.574219c0-5.261719-2.542969-10.203125-6.828125-13.261719zm0 0" fill="#ffc36e"/><path d="m386.167969 10c-8.929688 0-16.980469 4.105469-22.667969 10.679688-5.6875-6.574219-13.738281-10.679688-22.667969-10.679688-17.234375 0-31.203125 15.285156-31.203125 34.140625 0 26.414063 53.871094 63.042969 53.871094 63.042969s53.871094-36.628906 53.871094-63.042969c0-18.855469-13.96875-34.140625-31.203125-34.140625zm0 0" fill="#ff5d5d"/><path d="m58 321.585938c2.628906 0 5.210938-1.058594 7.070312-2.917969 1.859376-1.859375 2.929688-4.441407 2.929688-7.070313 0-2.640625-1.070312-5.210937-2.929688-7.082031-1.859374-1.859375-4.441406-2.917969-7.070312-2.917969s-5.210938 1.058594-7.070312 2.917969c-1.859376 1.871094-2.929688 4.441406-2.929688 7.082031 0 2.628906 1.070312 5.210938 2.929688 7.070313 1.859374 1.859375 4.441406 2.917969 7.070312 2.917969zm0 0"/><path d="m340.328125 255.558594c2.632813 0 5.210937-1.070313 7.070313-2.929688 1.859374-1.863281 2.929687-4.433594 2.929687-7.070312 0-2.632813-1.066406-5.210938-2.929687-7.070313-1.859376-1.859375-4.429688-2.929687-7.070313-2.929687-2.628906 0-5.207031 1.070312-7.066406 2.929687-1.863281 1.859375-2.933594 4.4375-2.933594 7.070313 0 2.636718 1.070313 5.207031 2.933594 7.070312 1.859375 1.855469 4.4375 2.929688 7.066406 2.929688zm0 0"/><path d="m380.328125 255.558594c2.632813 0 5.210937-1.070313 7.070313-2.929688 1.871093-1.863281 2.929687-4.433594 2.929687-7.070312 0-2.632813-1.058594-5.203125-2.929687-7.070313-1.859376-1.859375-4.429688-2.929687-7.070313-2.929687-2.628906 0-5.207031 1.070312-7.066406 2.929687-1.863281 1.859375-2.933594 4.4375-2.933594 7.070313 0 2.636718 1.070313 5.207031 2.933594 7.070312 1.859375 1.855469 4.4375 2.929688 7.066406 2.929688zm0 0"/><path d="m344.523438 270.800781c-1.601563 3.621094-.917969 7.84375 1.742187 10.773438l9.832031 10.820312c1.894532 2.085938 4.582032 3.277344 7.402344 3.277344 2.816406 0 5.507812-1.191406 7.402344-3.277344l9.828125-10.820312c2.660156-2.929688 3.34375-7.152344 1.742187-10.773438-1.601562-3.617187-5.1875-5.949219-9.144531-5.949219h-19.65625c-3.957031-.003906-7.542969 2.332032-9.148437 5.949219zm0 0"/><path d="m502 304.59375c-5.523438 0-10 4.476562-10 10v22.507812c0 17.574219-9.996094 33.386719-25 41.328126v-19.835938c0-31.828125-15.574219-61.839844-41.164062-80.332031 2.769531-7.242188 4.496093-15.066407 4.996093-23.25l16.507813-11.878907c5.636718-4.054687 9.316406-10.066406 10.367187-16.933593 1.046875-6.863281-.671875-13.699219-4.84375-19.25-1.40625-1.878907-2.71875-3.683594-3.96875-5.40625-9.265625-12.765625-18.015625-24.820313-40.027343-24.820313h-90.734376c-22.015624 0-30.765624 12.054688-40.027343 24.820313-1.25 1.722656-2.5625 3.527343-3.96875 5.402343-4.171875 5.554688-5.890625 12.390626-4.84375 19.253907 1.050781 6.863281 4.730469 12.878906 10.363281 16.933593l16.511719 11.878907c.5 8.183593 2.226562 16.007812 4.996093 23.25-8.121093 5.867187-15.238281 12.890625-21.164062 20.773437v-15.203125c0-55.507812-41.617188-101.480469-95.289062-108.351562 10.695312-11.144531 17.289062-26.257813 17.289062-42.886719v-46.359375c13.863281-9.347656 23-25.199219 23-43.140625v-29.40625c0-5.523438-4.476562-10-10-10h-88.5c-26.742188 0-48.5 21.757812-48.5 48.5v80.40625c0 16.628906 6.59375 31.742188 17.289062 42.886719-53.671874 6.871093-95.289062 52.84375-95.289062 108.351562v148.761719c0 5.519531 4.476562 10 10 10h439.960938c17.113281 0 31.039062-13.925781 31.039062-31.039062v-.570313c0-5.378906-1.664062-10.5625-4.636719-14.894531 21.390625-11.351563 35.636719-33.917969 35.636719-58.988282v-22.507812c0-5.523438-4.476562-10-10-10zm-186-54.5c0-28.324219 19.644531-51.5625 44.394531-53.375h6.210938c24.75 1.8125 44.394531 25.050781 44.394531 53.375 0 29.5-21.308594 53.5-47.5 53.5s-47.5-24-47.5-53.5zm116.707031-36.804688c1.3125 1.808594 2.6875 3.699219 4.164063 5.667969.914062 1.21875 1.292968 2.71875 1.0625 4.226563-.226563 1.503906-1.035156 2.824218-2.273438 3.714844l-6.78125 4.878906c-3.214844-13.59375-9.933594-25.664063-19.019531-35.035156 10.480469.242187 13.992187 4.34375 22.847656 16.546874zm-143.640625 9.894532c-.230468-1.507813.144532-3.007813 1.0625-4.226563 1.476563-1.96875 2.851563-3.859375 4.164063-5.667969 8.855469-12.203124 12.367187-16.304687 22.851562-16.546874-9.089843 9.371093-15.808593 21.441406-19.023437 35.035156l-6.78125-4.878906c-1.238282-.890626-2.042969-2.210938-2.273438-3.714844zm-179.828125-28.589844h61.523438c.707031 0 1.417969.007812 2.125.027344-1.550781 16.785156-15.707031 29.972656-32.886719 29.972656-17.183594 0-31.335938-13.1875-32.886719-29.972656.707031-.019532 1.414063-.027344 2.125-.027344zm72.761719-99.5v37.5c0 23.160156-18.839844 42-42 42s-42-18.839844-42-42v-37.5zm-84-42.90625c0-15.714844 12.785156-28.5 28.5-28.5h78.5v19.40625c0 17.644531-14.355469 32-32 32h-75zm-78 231.644531c0-41.632812 28.660156-76.695312 67.285156-86.503906 2.886719 26.539063 25.421875 47.265625 52.714844 47.265625s49.828125-20.726562 52.714844-47.265625c38.625 9.808594 67.285156 44.871094 67.285156 86.503906v103.613281l-2.984375 2.132813c-6.898437 4.929687-11.015625 12.929687-11.015625 21.40625v.570313c0 3.886718.726562 7.605468 2.035156 11.039062h-16.035156v-111c0-5.523438-4.476562-10-10-10s-10 4.476562-10 10v111h-144v-71c0-5.523438-4.476562-10-10-10s-10 4.476562-10 10v71h-28zm441 127.722657c0 6.085937-4.953125 11.039062-11.039062 11.039062h-38.921876c-6.085937 0-11.039062-4.953125-11.039062-11.039062 0-2.171876 1.09375-4.160157 2.925781-5.320313l8.183594-5.199219c2.890625-1.835937 4.640625-5.019531 4.640625-8.441406v-43.5c0-5.523438-4.476562-10-10-10-5.519531 0-10 4.476562-10 10v38.003906l-3.546875 2.25c-7.640625 4.851563-12.203125 13.152344-12.203125 22.207032 0 3.886718.726562 7.605468 2.035156 11.039062h-37.070312c1.308594-3.433594 2.035156-7.152344 2.035156-11.039062 0-9.054688-4.5625-17.355469-12.203125-22.207032l-3.546875-2.25v-38.003906c0-5.523438-4.476562-10-10-10s-10 4.476562-10 10v43.5c0 3.421875 1.75 6.605469 4.640625 8.441406l8.183594 5.195313c1.832031 1.164062 2.925781 3.152343 2.925781 5.320312 0 6.089844-4.949219 11.042969-11.039062 11.042969h-38.921876c-6.085937 0-11.039062-4.953125-11.039062-11.042969v-.570312c0-2.03125.984375-3.945313 2.640625-5.125l7.171875-5.125c2.628906-1.878907 4.1875-4.910157 4.1875-8.136719v-34c0-24.550781 11.617188-47.75 30.839844-62.601562 12.378906 16.808593 31.378906 27.601562 52.660156 27.601562s40.28125-10.792969 52.664062-27.601562c19.21875 14.851562 30.835938 38.050781 30.835938 62.601562v34 .003906c0 .375.023438.753906.070312 1.132813.011719.113281.035157.21875.050782.332031.03125.199219.054687.398438.097656.59375.011719.0625.03125.121094.042969.179688.023437.105468.054687.210937.082031.316406.070312.261718.148438.523437.238281.777344.03125.082031.058594.164062.089844.246093.261719.6875.59375 1.328125.988281 1.925781.039063.058594.082032.117188.121094.175782.183594.261718.375.515625.578125.757812.03125.039063.0625.078125.097656.117188.234375.273437.484375.527344.75.773437.054688.050781.109375.097657.167969.144531.21875.195313.445312.378907.683594.554688.042968.03125.085937.070312.128906.105469l7.175781 5.121093c1.652344 1.183594 2.640625 3.097657 2.640625 5.128907v.574219zm0 0"/><path d="m502 284.847656c2.628906 0 5.210938-1.070312 7.070312-2.929687 1.859376-1.859375 2.929688-4.441407 2.929688-7.070313s-1.070312-5.210937-2.929688-7.070312c-1.859374-1.859375-4.441406-2.929688-7.070312-2.929688s-5.210938 1.070313-7.070312 2.929688c-1.859376 1.859375-2.929688 4.441406-2.929688 7.070312s1.070312 5.210938 2.929688 7.070313c1.859374 1.859375 4.441406 2.929687 7.070312 2.929687zm0 0"/><path d="m329.773438 92.90625c13.855468 12.820312 27.527343 22.15625 28.101562 22.546875 1.699219 1.152344 3.660156 1.730469 5.625 1.730469 1.960938 0 3.925781-.578125 5.621094-1.730469.574218-.390625 14.246094-9.726563 28.105468-22.546875 20.285157-18.765625 30.144532-34.714844 30.144532-48.765625 0-24.339844-18.484375-44.140625-41.203125-44.140625-8.101563 0-15.992188 2.585938-22.667969 7.28125-6.675781-4.695312-14.566406-7.28125-22.667969-7.28125-22.722656 0-41.203125 19.800781-41.203125 44.140625 0 14.050781 9.859375 30.003906 30.144532 48.765625zm11.058593-72.90625c5.710938 0 11.074219 2.566406 15.105469 7.222656 1.898438 2.195313 4.660156 3.457032 7.5625 3.457032s5.664062-1.261719 7.5625-3.457032c4.027344-4.65625 9.390625-7.222656 15.101562-7.222656 11.695313 0 21.207032 10.828125 21.207032 24.140625 0 13.246094-24.054688 36.230469-43.878906 50.792969-19.816407-14.542969-43.867188-37.515625-43.867188-50.792969.003906-13.3125 9.515625-24.140625 21.207031-24.140625zm0 0"/></svg>