<svg height="512" viewBox="0 0 512 512" width="512" xmlns="http://www.w3.org/2000/svg"><g id="flat"><path d="m448 335.671-.81-.811a78.052 78.052 0 0 0 -110.38 0l-.81.811h-80a24 24 0 0 0 -24 24 24.041 24.041 0 0 0 .734 5.9l-80.547-26.853a24.455 24.455 0 0 0 -32.187 23.204v.526a24.5 24.5 0 0 0 11.325 20.759l138.865 88.368a70 70 0 0 0 55.4 8.639l122.41-32.214h40v-112.329z" fill="#f5d3bd"/><path d="m256 383.67a24.021 24.021 0 0 1 -23.27-18.09l-80.54-26.86a24.218 24.218 0 0 0 -10.41-1.12l106.22 59.66h88v-13.59z" fill="#f5d3bd"/><path d="m214.174 232.919-18.7 3.181a20.056 20.056 0 0 1 -23.416-20.066 20.056 20.056 0 0 1 16.691-19.477l26.026-4.426z" fill="#e8c8b3"/><path d="m254.962 233.517-30.962 5.265a17.709 17.709 0 0 1 -17.847-7.853 17.71 17.71 0 0 1 8.863-26.264l50.046-18.072z" fill="#e8c8b3"/><path d="m220.91 203.636 6.735-31.283 78.208 16.838 8-37.149a36 36 0 0 0 -8.016-31.185l-29.622-34.1a36 36 0 0 0 -27.865-12.387l-122.863 2.339-101.487-50.593v120l63.956 28.895 13.209 16.2a86.439 86.439 0 0 0 48.8 29.883 73.2 73.2 0 0 0 48.082-6.056z" fill="#f5d3bd"/><g fill="#e8c8b3"><path d="m298.8 212.653-4.209 19.552a20 20 0 0 1 -23.762 15.343 20 20 0 0 1 -15.342-23.762l4.209-19.552z"/><path d="m271.808 165.312a8.013 8.013 0 0 1 -7.829-9.686l3.368-15.642a8 8 0 0 1 15.642 3.368l-3.368 15.641a8 8 0 0 1 -7.813 6.319z"/><path d="m252.1 169.782a8 8 0 0 1 -7.444-5.064l-14.349-36.353a8 8 0 0 1 14.883-5.875l14.349 36.353a8 8 0 0 1 -7.439 10.939z"/></g><path d="m371.8 247.8-57.8 57.8-57.8-57.8a28 28 0 0 1 -8.2-19.8 28 28 0 0 1 28-28 28 28 0 0 1 19.8 8.2l18.2 18.2 18.2-18.2a28 28 0 0 1 19.8-8.2 28 28 0 0 1 28 28 28 28 0 0 1 -8.2 19.8z" fill="#f16465"/><path d="m151.608 221.449a68.421 68.421 0 0 0 44.939-5.661l24.363-12.152 64.969 7.927a25.089 25.089 0 0 0 27.565-19.624 25.087 25.087 0 0 0 -19.244-29.807l-61.5-13.241-62.57-13.471z" fill="#f5d3bd"/><path d="m336 390.465a6.8 6.8 0 0 1 -6.8 6.8h-48.279a125.841 125.841 0 0 1 -61.621-16.127l-77.52-43.538a24.218 24.218 0 0 1 10.41 1.12l80.54 26.86a24.021 24.021 0 0 0 23.27 18.09h73.2a6.8 6.8 0 0 1 6.8 6.795z" fill="#e8c8b3"/></g></svg>