<svg xmlns="http://www.w3.org/2000/svg" xmlns:xlink="http://www.w3.org/1999/xlink" width="1190" height="700" viewBox="0 0 1190 700"><defs><filter id="a" x="0" y="0" width="1190" height="700" filterUnits="userSpaceOnUse"><feOffset dx="10" dy="20" input="SourceAlpha"/><feGaussianBlur stdDeviation="15" result="b"/><feFlood flood-color="#8e8e8e" flood-opacity="0.161"/><feComposite operator="in" in2="b"/><feComposite in="SourceGraphic"/></filter></defs><g transform="translate(-384 949)"><g transform="matrix(1, 0, 0, 1, 384, -949)" filter="url(#a)"><rect width="1100" height="610" rx="70" transform="translate(35 25)" fill="#fff"/></g><rect width="356" height="117" rx="25" transform="translate(489 -786)" fill="#e1e7ed"/><rect width="356" height="117" rx="25" transform="translate(489 -651)" fill="#e1e7ed"/><rect width="356" height="117" rx="25" transform="translate(489 -516)" fill="#e1e7ed"/><path d="M25,0H331a25,25,0,0,1,25,25V68a0,0,0,0,1,0,0H0a0,0,0,0,1,0,0V25A25,25,0,0,1,25,0Z" transform="translate(489 -381)" fill="#e1e7ed"/><rect width="200" height="14" rx="7" transform="translate(489 -872)" fill="#a0b3c1"/><rect width="117" height="14" rx="7" transform="translate(489 -843)" fill="#bfcdd8"/><rect width="493" height="511" rx="25" transform="translate(969 -874)" fill="#f2f4f5"/><rect width="77" height="67" rx="10" transform="translate(512 -761)" fill="#fff"/><rect width="77" height="67" rx="10" transform="translate(512 -626)" fill="#fff"/><rect width="77" height="67" rx="10" transform="translate(509 -491)" fill="#fff"/><path d="M10,0H67A10,10,0,0,1,77,10V49a0,0,0,0,1,0,0H0a0,0,0,0,1,0,0V10A10,10,0,0,1,10,0Z" transform="translate(512 -362)" fill="#fff"/><path d="M1397.136-364.625s113.115-269.619-52.312-239.094-242.2-69.715-242.2-69.715-83.306-124.277-128.3-89.945" fill="none" stroke="#89c1d6" stroke-linecap="round" stroke-width="10"/><line y2="511" transform="translate(1047.5 -873.5)" fill="none" stroke="#ccc8c8" stroke-width="1"/><line y2="511" transform="translate(1137.5 -874.5)" fill="none" stroke="#ccc8c8" stroke-width="1"/><line y2="511" transform="translate(1227.5 -873.5)" fill="none" stroke="#ccc8c8" stroke-width="1"/><line y2="511" transform="translate(1317.5 -872.5)" fill="none" stroke="#ccc8c8" stroke-width="1"/><line y2="511" transform="translate(1407.5 -874.5)" fill="none" stroke="#ccc8c8" stroke-width="1"/><line x2="493" transform="translate(969.5 -786.5)" fill="none" stroke="#ccc8c8" stroke-width="1"/><line x2="493" transform="translate(969.5 -694.5)" fill="none" stroke="#ccc8c8" stroke-width="1"/><line x2="493" transform="translate(969.5 -602.5)" fill="none" stroke="#ccc8c8" stroke-width="1"/><line x2="493" transform="translate(969.5 -510.5)" fill="none" stroke="#ccc8c8" stroke-width="1"/><line x2="493" transform="translate(969.5 -418.5)" fill="none" stroke="#ccc8c8" stroke-width="1"/><g transform="translate(198 -431)"><path d="M26.931,0A26.931,26.931,0,0,1,53.863,26.931c0,14.874-12.058,61.777-26.931,61.777S0,41.805,0,26.931A26.931,26.931,0,0,1,26.931,0Z" transform="translate(953 -195)" fill="#f4bebe"/><circle cx="13" cy="13" r="13" transform="translate(967 -184)" fill="#fff"/></g><g transform="translate(288 -520)"><path d="M26.931,0A26.931,26.931,0,0,1,53.863,26.931c0,14.874-12.058,61.777-26.931,61.777S0,41.805,0,26.931A26.931,26.931,0,0,1,26.931,0Z" transform="translate(953 -195)" fill="#f4bebe"/><circle cx="13" cy="13" r="13" transform="translate(967 -184)" fill="#fff"/></g><g transform="translate(198 -431)"><path d="M26.931,0A26.931,26.931,0,0,1,53.863,26.931c0,14.874-12.058,61.777-26.931,61.777S0,41.805,0,26.931A26.931,26.931,0,0,1,26.931,0Z" transform="translate(953 -195)" fill="#f4bebe"/><circle cx="13" cy="13" r="13" transform="translate(967 -184)" fill="#fff"/></g><g transform="translate(191 -609)"><path d="M26.931,0A26.931,26.931,0,0,1,53.863,26.931c0,14.874-12.058,61.777-26.931,61.777S0,41.805,0,26.931A26.931,26.931,0,0,1,26.931,0Z" transform="translate(953 -195)" fill="#f4bebe"/><circle cx="13" cy="13" r="13" transform="translate(967 -184)" fill="#fff"/></g><g transform="translate(311 -328)"><path d="M26.931,0A26.931,26.931,0,0,1,53.863,26.931c0,14.874-12.058,61.777-26.931,61.777S0,41.805,0,26.931A26.931,26.931,0,0,1,26.931,0Z" transform="translate(953 -195)" fill="#f4bebe"/><circle cx="13" cy="13" r="13" transform="translate(967 -184)" fill="#fff"/></g><g transform="translate(118 -321)"><path d="M26.931,0A26.931,26.931,0,0,1,53.863,26.931c0,14.874-12.058,61.777-26.931,61.777S0,41.805,0,26.931A26.931,26.931,0,0,1,26.931,0Z" transform="translate(953 -195)" fill="#f4bebe"/><circle cx="13" cy="13" r="13" transform="translate(967 -184)" fill="#fff"/></g><g transform="translate(394 -621)"><path d="M26.931,0A26.931,26.931,0,0,1,53.863,26.931c0,14.874-12.058,61.777-26.931,61.777S0,41.805,0,26.931A26.931,26.931,0,0,1,26.931,0Z" transform="translate(953 -195)" fill="#f4bebe"/><circle cx="13" cy="13" r="13" transform="translate(967 -184)" fill="#fff"/></g><g transform="translate(467 -273)"><path d="M26.931,0A26.931,26.931,0,0,1,53.863,26.931c0,14.874-12.058,61.777-26.931,61.777S0,41.805,0,26.931A26.931,26.931,0,0,1,26.931,0Z" transform="translate(953 -195)" fill="#f4bebe"/><circle cx="13" cy="13" r="13" transform="translate(967 -184)" fill="#fff"/></g><g transform="translate(11 -697)"><path d="M26.931,0A26.931,26.931,0,0,1,53.863,26.931c0,14.874-12.058,61.777-26.931,61.777S0,41.805,0,26.931A26.931,26.931,0,0,1,26.931,0Z" transform="translate(953 -195)" fill="#f4bebe"/><circle cx="13" cy="13" r="13" transform="translate(967 -184)" fill="#fff"/></g></g></svg>