<svg xmlns="http://www.w3.org/2000/svg" xmlns:xlink="http://www.w3.org/1999/xlink" width="1190" height="500" viewBox="0 0 1190 500"><defs><filter id="a" x="0" y="0" width="1190" height="500" filterUnits="userSpaceOnUse"><feOffset dx="10" dy="20" input="SourceAlpha"/><feGaussianBlur stdDeviation="15" result="b"/><feFlood flood-color="#8e8e8e" flood-opacity="0.149"/><feComposite operator="in" in2="b"/><feComposite in="SourceGraphic"/></filter></defs><g transform="translate(1251 2057)"><g transform="translate(-1169 -1845)" fill="#fff" stroke="#d5d3d3" stroke-width="1"><rect width="412" height="55" rx="10" stroke="none"/><rect x="0.5" y="0.5" width="411" height="54" rx="9.5" fill="none"/></g><g transform="translate(-716.259 -1845)" fill="#fff" stroke="#d5d3d3" stroke-width="1"><rect width="165" height="55" rx="10" stroke="none"/><rect x="0.5" y="0.5" width="164" height="54" rx="9.5" fill="none"/></g><g transform="translate(-512.735 -1845)" fill="#fff" stroke="#d5d3d3" stroke-width="1"><rect width="165" height="55" rx="10" stroke="none"/><rect x="0.5" y="0.5" width="164" height="54" rx="9.5" fill="none"/></g><rect width="125" height="55" rx="10" transform="translate(-309 -1845)" fill="#ed7070"/><rect width="147" height="10" rx="5" transform="translate(-1169 -1867)" fill="#bccfdd"/><rect width="93" height="10" rx="5" transform="translate(-716.528 -1867)" fill="#bccfdd"/><rect width="75" height="10" rx="5" transform="translate(-513.2 -1867)" fill="#bccfdd"/><text transform="translate(-1169 -1921)" fill="#969696" font-size="24" font-family="HelveticaNeue-Medium, Helvetica Neue" font-weight="500"><tspan x="0" y="0">Trouvez votre pepetsitter en quelques clics !</tspan></text><g transform="translate(-261 -1831)"><g fill="none" stroke="#fff" stroke-width="3"><circle cx="11" cy="11" r="11" stroke="none"/><circle cx="11" cy="11" r="9.5" fill="none"/></g><line x2="10.71" y2="9.18" transform="translate(18.106 18.106)" fill="none" stroke="#fff" stroke-width="3"/></g><g transform="matrix(1, 0, 0, 1, -1251, -2057)" filter="url(#a)"><rect width="1100" height="410" rx="70" transform="translate(35 25)" fill="#fff"/></g><g transform="translate(-1169 -1845)" fill="#fff" stroke="#d5d3d3" stroke-width="1"><rect width="412" height="55" rx="10" stroke="none"/><rect x="0.5" y="0.5" width="411" height="54" rx="9.5" fill="none"/></g><g transform="translate(-716.259 -1845)" fill="#fff" stroke="#d5d3d3" stroke-width="1"><rect width="165" height="55" rx="10" stroke="none"/><rect x="0.5" y="0.5" width="164" height="54" rx="9.5" fill="none"/></g><g transform="translate(-512.735 -1845)" fill="#fff" stroke="#d5d3d3" stroke-width="1"><rect width="165" height="55" rx="10" stroke="none"/><rect x="0.5" y="0.5" width="164" height="54" rx="9.5" fill="none"/></g><rect width="125" height="55" rx="10" transform="translate(-309 -1845)" fill="#ed7070"/><rect width="147" height="10" rx="5" transform="translate(-1169 -1867)" fill="#bccfdd"/><rect width="93" height="10" rx="5" transform="translate(-716.528 -1867)" fill="#bccfdd"/><rect width="75" height="10" rx="5" transform="translate(-513.2 -1867)" fill="#bccfdd"/><text transform="translate(-1169 -1921)" fill="#969696" font-size="24" font-family="HelveticaNeue-Medium, Helvetica Neue" font-weight="500"><tspan x="0" y="0">Trouvez votre pepetsitter en quelques clics !</tspan></text><g transform="translate(-261 -1831)"><g fill="none" stroke="#fff" stroke-width="3"><circle cx="11" cy="11" r="11" stroke="none"/><circle cx="11" cy="11" r="9.5" fill="none"/></g><line x2="10.71" y2="9.18" transform="translate(18.106 18.106)" fill="none" stroke="#fff" stroke-width="3"/></g></g></svg>