<svg id="Capa_1" enable-background="new 0 0 512 512" height="512" viewBox="0 0 512 512" width="512" xmlns="http://www.w3.org/2000/svg" xmlns:xlink="http://www.w3.org/1999/xlink"><linearGradient id="SVGID_1_" gradientUnits="userSpaceOnUse" x1="143.292" x2="354.942" y1="-15.226" y2="547.243"><stop offset="0" stop-color="#ffd9d9" stop-opacity="0"/><stop offset=".9981" stop-color="#ffb3b3"/></linearGradient><g><g><path d="m20.337 133.512c-23.967 39.398-26.493 107.613-8.937 150.256 15.377 37.351 45.966 72.409 86.12 76.801 14.766 1.615 29.858-1.024 44.472 1.638 50.257 9.152 68.952 71.09 108.01 104.014 27.182 22.913 64.898 31.021 100.174 26.607s68.302-20.363 97.376-40.824c22.957-16.157 44.436-36.022 55.764-61.707 23.744-53.839-4.19-118.501-47.587-158.239-13.516-12.377-28.581-23.294-39.875-37.727s-18.48-33.695-13.099-51.214c4.293-13.977 15.849-24.812 20.227-38.763 5.958-18.984-3.035-40.281-17.802-53.616s-34.308-20.039-53.666-24.64c-81.103-19.28-258.823-11.524-331.177 107.414z" fill="url(#SVGID_1_)"/></g><g><g><path d="m451.864 423.348h-391.728c-5.178 0-9.376-4.198-9.376-9.376v-266.358c0-5.178 4.198-9.376 9.376-9.376h391.729c5.178 0 9.376 4.198 9.376 9.376v266.358c0 5.178-4.198 9.376-9.377 9.376z" fill="#00c" opacity=".1"/><path d="m451.864 397.836h-391.728c-5.178 0-9.376-4.198-9.376-9.376v-266.358c0-5.178 4.198-9.376 9.376-9.376h391.729c5.178 0 9.376 4.198 9.376 9.376v266.358c0 5.178-4.198 9.376-9.377 9.376z" fill="#ff4d4d"/><g><path d="m439.705 374.094h-367.41c-2.761 0-5-2.239-5-5v-256.368h377.41v256.368c0 2.761-2.239 5-5 5z" fill="#ffe8dc"/><path d="m256 127.71v246.384s-34.276-9.325-84.391-9.325c-37.652 0-66.364 5.264-78.316 7.881-3.122.684-6.076-1.687-6.076-4.883v-236.134c0-2.332 1.61-4.35 3.883-4.874 10.301-2.374 40.309-8.374 80.509-8.374 50.115.001 84.391 9.325 84.391 9.325z" fill="#ffd6bb"/><path d="m439.705 374.094h-183.705v-261.368h188.705v256.368c0 2.761-2.239 5-5 5z" fill="#ffd6bb"/><g><path d="m256 127.71v246.384s34.276-9.325 84.391-9.325c37.653 0 66.364 5.264 78.316 7.881 3.122.684 6.076-1.687 6.076-4.883v-236.134c0-2.332-1.611-4.35-3.883-4.874-10.301-2.374-40.309-8.374-80.509-8.374-50.115.001-84.391 9.325-84.391 9.325z" fill="#ffc599"/></g></g><g><path d="m256 107.16v246.384s34.276-9.325 84.391-9.325c37.653 0 66.364 5.264 78.316 7.881 3.122.684 6.076-1.687 6.076-4.883v-236.134c0-2.332-1.611-4.35-3.883-4.874-10.301-2.374-40.309-8.374-80.509-8.374-50.115 0-84.391 9.325-84.391 9.325z" fill="#ffe8dc"/><path d="m256 107.16v246.384s-34.276-9.325-84.391-9.325c-37.652 0-66.364 5.264-78.316 7.881-3.122.684-6.076-1.687-6.076-4.883v-236.134c0-2.332 1.61-4.35 3.883-4.874 10.301-2.374 40.309-8.374 80.509-8.374 50.115 0 84.391 9.325 84.391 9.325z" fill="#fff3ee"/></g><path d="m461.24 307.283c2.762 0 5-2.238 5-5v-180.181c0-7.927-6.449-14.376-14.376-14.376h-22.653c-1.113-3.151-3.763-5.6-7.188-6.389-11.092-2.557-41.249-8.502-81.632-8.502-50.207 0-84.278 9.112-85.704 9.501-.134.036-.256.093-.384.14-.108.039-.219.071-.323.117-.244.108-.475.235-.695.377-.028.018-.06.031-.087.049-.247.167-.473.358-.684.565-.067.066-.124.139-.188.208-.137.15-.268.303-.386.469-.066.093-.125.189-.185.286-.098.159-.187.321-.266.491-.05.107-.098.213-.141.323-.072.185-.127.375-.177.569-.026.102-.058.2-.077.304-.057.302-.093.61-.093.926v240.046c-12.197-2.688-41.103-7.987-79.392-7.987-37.306 0-65.75 5.011-79.392 7.999l.006-236.137c10.758-2.479 40.029-8.246 79.386-8.246 17.735 0 35.42 1.173 52.562 3.485 2.746.369 5.255-1.55 5.624-4.286.369-2.737-1.55-5.255-4.286-5.624-17.584-2.372-35.719-3.575-53.899-3.575-40.383 0-70.54 5.945-81.631 8.502-3.425.788-6.076 3.238-7.188 6.389h-22.655c-7.927 0-14.376 6.449-14.376 14.376v266.358c0 7.927 6.449 14.376 14.376 14.376h391.729c7.927 0 14.376-6.449 14.376-14.376v-52.353c0-2.762-2.238-5-5-5s-5 2.238-5 5v52.353c0 2.413-1.963 4.376-4.376 4.376h-391.729c-2.413 0-4.376-1.963-4.376-4.376v-266.358c0-2.413 1.963-4.376 4.376-4.376h22.081v229.492c0 3.043 1.359 5.882 3.729 7.788 2.372 1.91 5.438 2.629 8.417 1.979 10.659-2.335 39.524-7.766 77.245-7.766 48.776 0 82.743 9.058 83.079 9.148.622.125 1.289.311 2.623.001.338-.092 34.305-9.149 83.081-9.149 37.721 0 66.586 5.431 77.246 7.766 2.975.654 6.044-.068 8.416-1.979 2.37-1.906 3.729-4.745 3.729-7.788v-229.492h22.081c2.413 0 4.376 1.963 4.376 4.376v180.182c.001 2.761 2.24 4.999 5.001 4.999zm-41.463 39.934c-13.636-2.987-42.08-7.998-79.386-7.998-38.289 0-67.194 5.3-79.392 7.987v-236.117c10.059-2.304 39.862-8.254 79.392-8.254 39.356 0 68.628 5.767 79.392 8.248z" fill="#00c"/><g><path d="m156.476 205.426c0-3.417-1.799-6.414-4.494-8.117l-9.493-35.575c-.584-2.188-2.566-3.711-4.831-3.711s-4.247 1.522-4.831 3.711l-9.493 35.575c-2.695 1.703-4.494 4.701-4.494 8.117 0 8.704 7.081 15.786 15.785 15.786h6.064c8.706 0 15.787-7.082 15.787-15.786zm-15.241-9.604h-7.154l3.577-13.405zm-.545 15.39h-6.064c-3.057 0-5.567-2.384-5.771-5.391h17.607c-.204 3.007-2.715 5.391-5.772 5.391z" fill="#ff9494"/><path d="m227.755 197.308-9.491-35.575c-.584-2.188-2.566-3.711-4.831-3.711s-4.247 1.522-4.831 3.711l-9.492 35.574c-2.696 1.703-4.495 4.701-4.495 8.118 0 8.704 7.082 15.786 15.786 15.786h6.063c8.704 0 15.786-7.082 15.786-15.786 0-3.416-1.799-6.414-4.495-8.117zm-10.746-1.486h-7.153l3.577-13.404zm-.545 15.39h-6.064c-3.058 0-5.568-2.384-5.772-5.391h17.608c-.204 3.007-2.715 5.391-5.772 5.391z" fill="#ff9494"/><path d="m201.397 228.539h-20.853v-78.649h37.591c2.762 0 5-2.238 5-5s-2.238-5-5-5h-37.591v-5.004c0-2.762-2.238-5-5-5s-5 2.238-5 5v5.004h-37.59c-2.762 0-5 2.238-5 5s2.238 5 5 5h37.59v78.649h-20.852c-2.762 0-5 2.238-5 5s2.238 5 5 5h51.704c2.762 0 5-2.238 5-5s-2.237-5-4.999-5z" fill="#ff4d4d"/></g><g><g><path d="m221.105 277.022h-18.583c-2.762 0-5-2.238-5-5s2.238-5 5-5h18.583c2.762 0 5 2.238 5 5s-2.238 5-5 5z" fill="#ff9d33"/></g><g><path d="m221.105 295.404h-84.095c-2.762 0-5-2.238-5-5s2.238-5 5-5h84.095c2.762 0 5 2.238 5 5s-2.238 5-5 5z" fill="#ff9d33"/></g><g><path d="m221.105 313.786h-84.095c-2.762 0-5-2.238-5-5s2.238-5 5-5h84.095c2.762 0 5 2.238 5 5s-2.238 5-5 5z" fill="#ff9d33"/></g></g><g><g><g><path d="m291.923 139.886h25.504c2.762 0 5-2.239 5-5s-2.238-5-5-5h-25.504c-2.762 0-5 2.239-5 5s2.238 5 5 5z" fill="#ffab66"/></g></g><g><g><path d="m342.946 139.886h45.914c2.762 0 5-2.239 5-5s-2.238-5-5-5h-45.914c-2.762 0-5 2.239-5 5s2.239 5 5 5z" fill="#ffab66"/></g></g><g><g><path d="m291.923 162.114h10.197c2.762 0 5-2.239 5-5s-2.238-5-5-5h-10.197c-2.762 0-5 2.239-5 5s2.238 5 5 5z" fill="#ffab66"/></g></g><g><g><path d="m327.639 162.114h61.221c2.762 0 5-2.239 5-5s-2.238-5-5-5h-61.221c-2.762 0-5 2.239-5 5s2.239 5 5 5z" fill="#ffab66"/></g></g><g><g><path d="m291.923 184.342h96.937c2.762 0 5-2.239 5-5s-2.238-5-5-5h-96.937c-2.762 0-5 2.239-5 5s2.238 5 5 5z" fill="#ffab66"/></g></g><g><g><path d="m291.923 206.57h96.937c2.762 0 5-2.239 5-5s-2.238-5-5-5h-96.937c-2.762 0-5 2.239-5 5s2.238 5 5 5z" fill="#ffab66"/></g></g><g><g><g><path d="m342.946 184.342h45.914c2.762 0 5-2.239 5-5s-2.238-5-5-5h-45.914c-2.762 0-5 2.239-5 5s2.239 5 5 5z" fill="#ff4d4d"/></g></g></g></g><g><g><g><path d="m388.86 247.101h-25.504c-2.762 0-5-2.239-5-5s2.238-5 5-5h25.504c2.762 0 5 2.239 5 5s-2.238 5-5 5z" fill="#ffab66"/></g></g><g><g><path d="m337.837 247.101h-45.914c-2.762 0-5-2.239-5-5s2.238-5 5-5h45.914c2.762 0 5 2.239 5 5s-2.239 5-5 5z" fill="#ffab66"/></g></g><g><g><path d="m388.86 269.329h-10.197c-2.762 0-5-2.239-5-5s2.238-5 5-5h10.197c2.762 0 5 2.239 5 5s-2.238 5-5 5z" fill="#ffab66"/></g></g><g><g><path d="m353.144 269.329h-61.221c-2.762 0-5-2.239-5-5s2.238-5 5-5h61.221c2.762 0 5 2.239 5 5s-2.239 5-5 5z" fill="#ffab66"/></g></g><g><g><path d="m388.86 291.557h-96.937c-2.762 0-5-2.239-5-5s2.238-5 5-5h96.937c2.762 0 5 2.239 5 5s-2.238 5-5 5z" fill="#ffab66"/></g></g><g><g><path d="m388.86 313.786h-96.937c-2.762 0-5-2.239-5-5s2.238-5 5-5h96.937c2.762 0 5 2.239 5 5s-2.238 5-5 5z" fill="#ffab66"/></g></g><g><g><g><path d="m337.837 291.557h-45.914c-2.762 0-5-2.239-5-5s2.238-5 5-5h45.914c2.762 0 5 2.239 5 5s-2.239 5-5 5z" fill="#ff4d4d"/></g></g></g></g></g><path d="m405.18 55.737c-1.279 0-2.56-.488-3.535-1.465l-4.965-4.964-4.965 4.964c-1.951 1.953-5.119 1.953-7.07 0-1.953-1.952-1.953-5.118 0-7.07l8.5-8.5c1.951-1.953 5.119-1.953 7.07 0l8.5 8.5c1.953 1.952 1.953 5.118 0 7.07-.976.977-2.256 1.465-3.535 1.465z" fill="#ff4d4d"/><path d="m450.885 92.449c-1.031 0-2.063-.318-2.939-.955l-3.24-2.354-3.242 2.354c-1.752 1.273-4.124 1.273-5.878 0-1.752-1.273-2.485-3.53-1.815-5.59l1.237-3.81-3.241-2.355c-1.752-1.273-2.485-3.53-1.815-5.59.669-2.061 2.589-3.455 4.755-3.455h4.006l1.239-3.812c.669-2.06 2.589-3.454 4.755-3.454 2.166 0 4.086 1.395 4.755 3.455l1.238 3.811h4.007c2.166 0 4.086 1.395 4.755 3.455.67 2.06-.063 4.317-1.816 5.59l-3.241 2.355 1.237 3.81c.67 2.06-.063 4.317-1.816 5.59-.879.637-1.91.955-2.941.955z" fill="#4d4dff"/><path d="m259.979 80.082c-1.031 0-2.063-.318-2.938-.955-1.753-1.273-2.486-3.529-1.816-5.59l1.237-3.811-3.241-2.355c-1.752-1.273-2.485-3.53-1.815-5.59.669-2.061 2.589-3.455 4.755-3.455h4.006l1.239-3.812c.669-2.06 2.589-3.454 4.755-3.454 2.166 0 4.086 1.395 4.755 3.455l1.238 3.811h4.007c2.166 0 4.086 1.395 4.755 3.455.67 2.06-.063 4.317-1.816 5.59l-3.241 2.355 1.237 3.811c.67 2.061-.063 4.317-1.816 5.59-1.752 1.273-4.124 1.273-5.878 0l-3.24-2.354-3.242 2.354c-.879.637-1.91.955-2.941.955z" fill="#ff9d33"/><path d="m200.795 451.3c-1.031 0-2.063-.318-2.938-.955l-3.242-2.354-3.242 2.354c-1.752 1.273-4.124 1.273-5.878 0-1.752-1.273-2.485-3.53-1.815-5.591l1.238-3.81-3.241-2.355c-1.753-1.272-2.486-3.53-1.816-5.59.669-2.061 2.589-3.455 4.755-3.455h4.007l1.238-3.811c.669-2.061 2.589-3.455 4.755-3.455s4.086 1.395 4.755 3.455l1.238 3.811h4.007c2.166 0 4.086 1.395 4.755 3.455.67 2.06-.063 4.317-1.816 5.59l-3.241 2.355 1.238 3.81c.67 2.061-.063 4.317-1.815 5.591-.88.636-1.911.955-2.942.955z" fill="#ff9d33"/><path d="m249.25 462.88c-1.279 0-2.56-.488-3.535-1.465l-4.965-4.964-4.965 4.964c-1.951 1.953-5.119 1.953-7.07 0-1.953-1.952-1.953-5.118 0-7.07l8.5-8.5c1.951-1.953 5.119-1.953 7.07 0l8.5 8.5c1.953 1.952 1.953 5.118 0 7.07-.975.977-2.256 1.465-3.535 1.465z" fill="#ff4d4d"/></g></g></svg>