<svg id="Capa_1" enable-background="new 0 0 512 512" height="512" viewBox="0 0 512 512" width="512" xmlns="http://www.w3.org/2000/svg" xmlns:xlink="http://www.w3.org/1999/xlink"><linearGradient id="SVGID_1_" gradientUnits="userSpaceOnUse" x1="0" x2="512" y1="256" y2="256"><stop offset="0" stop-color="#fff3ee" stop-opacity="0"/><stop offset=".2938" stop-color="#ffeade" stop-opacity=".373"/><stop offset=".7874" stop-color="#ffd6bb"/></linearGradient><g><g><path d="m16.074 302.88c18.727 64.003 72.707 194.564 163.922 182.845 91.486-11.755 55.758-129.725 139.508-145.894 36.867-7.118 61.857 56.689 98.806 54.704 47.588-2.557 71.81-49.663 85.108-89.264 28.197-83.968-14.029-226.352-112.858-251.011-86.244-21.519-96.332 83.855-171.322 53.248-42.149-17.203-37.938-68.576-89.272-78.942-155.299-31.36-138.811 189.15-113.892 274.314z" fill="url(#SVGID_1_)"/></g><g><path d="m369.137 208.865-113.137-38.864-113.137 38.863s-13.542 157.915 113.137 227.455c126.679-69.54 113.137-227.454 113.137-227.454z" fill="#00c" opacity=".1"/><g><g fill="#00c" opacity=".1"><path d="m207.951 452.138c-12.398-4.416-24.143-10.337-35.074-17.632-2.125-11.165-8.908-21.382-19.523-27.511-5.283-3.05-10.97-4.752-16.673-5.253-3.71-4.472-7.238-9.163-10.565-14.069-2.816-4.153-5.449-8.412-7.908-12.763-.68-9.693-4.814-19.134-12.252-26.301-7.99-21.36-12.128-44.299-12.128-67.923 0-47.427 16.777-92.214 47.241-126.111 1.759-1.958 1.668-4.909-.122-6.781 8.345-8.974 12.542-21.617 10.25-34.618-2.603-14.76-12.904-26.234-26.037-31.031-10.701 8.999-16.448 23.303-13.846 38.063 2.277 12.911 10.437 23.303 21.236 28.914-6.092 6.899-11.652 14.213-16.659 21.882-.153-4.11-.92-8.265-2.402-12.337-5.126-14.084-17.263-23.595-31.03-26.038-8.976 10.721-12.152 25.806-7.026 39.889 4.5 12.362 14.393 21.194 26.055 24.822-3.325 7.388-6.194 15.001-8.601 22.796-.676-1.634-1.461-3.244-2.369-4.818-7.494-12.98-21.098-20.239-35.08-20.254-6.978 12.117-7.486 27.524.008 40.503 6.568 11.376 17.822 18.354 29.916 19.915-.915 7.519-1.421 15.137-1.508 22.825-9.616-10.289-23.503-14.517-36.598-12.223-4.768 13.144-2.593 28.405 7.041 39.887 8.54 10.178 21.02 15.081 33.338 14.385 1.296 6.648 2.91 13.203 4.854 19.639-9.209-3.574-19.376-3.624-28.52-.307-2.413 13.773 2.379 28.424 13.86 38.058 10.193 8.553 23.357 11.209 35.381 8.364 1.491 2.421 3.029 4.815 4.629 7.174 2.143 3.16 4.366 6.234 6.662 9.226-4.078.888-8.017 2.388-11.655 4.483.015 13.982 7.279 27.579 20.258 35.073 11.517 6.649 24.933 6.983 36.277 2.102 11.023 7.13 22.807 12.969 35.214 17.388.555.198 1.121.292 1.678.292 2.055 0 3.981-1.277 4.71-3.324.927-2.6-.431-5.46-3.032-6.386z"/><path d="m464.744 266.085c-13.095-2.294-26.982 1.933-36.598 12.223-.087-7.688-.593-15.306-1.508-22.825 12.095-1.561 23.348-8.538 29.916-19.915 7.494-12.98 6.986-28.387.008-40.503-13.982.015-27.587 7.274-35.08 20.254-.908 1.573-1.694 3.183-2.369 4.818-2.407-7.795-5.276-15.408-8.601-22.796 11.662-3.627 21.556-12.459 26.055-24.822 5.126-14.084 1.95-29.168-7.026-39.889-13.767 2.443-25.904 11.954-31.03 26.038-1.482 4.072-2.249 8.227-2.402 12.337-5.003-7.664-10.557-14.972-16.644-21.866 10.816-5.607 18.99-16.006 21.269-28.93 2.603-14.76-3.144-29.064-13.846-38.063-13.134 4.797-23.435 16.271-26.037 31.031-2.29 12.988 1.896 25.62 10.225 34.593-1.812 1.87-1.911 4.839-.144 6.806 30.464 33.897 47.241 78.684 47.241 126.111 0 23.624-4.138 46.563-12.128 67.923-7.438 7.166-11.571 16.608-12.252 26.301-2.459 4.351-5.092 8.611-7.908 12.763-3.327 4.906-6.854 9.597-10.565 14.069-5.703.501-11.39 2.202-16.673 5.253-10.615 6.129-17.398 16.346-19.523 27.511-10.931 7.295-22.676 13.216-35.074 17.632-2.601.926-3.959 3.786-3.032 6.388.729 2.047 2.655 3.324 4.71 3.324.557 0 1.123-.094 1.678-.292 12.407-4.419 24.191-10.258 35.214-17.388 11.343 4.881 24.76 4.547 36.277-2.102 12.98-7.494 20.243-21.091 20.258-35.073-3.639-2.095-7.577-3.595-11.655-4.483 2.296-2.992 4.52-6.066 6.662-9.226 1.599-2.359 3.138-4.753 4.629-7.174 12.024 2.845 25.188.188 35.381-8.364 11.481-9.634 16.273-24.285 13.86-38.058-9.143-3.317-19.311-3.267-28.52.307 1.944-6.437 3.559-12.991 4.854-19.639 12.318.696 24.797-4.207 33.338-14.385 9.633-11.483 11.808-26.744 7.04-39.889z"/></g><g><path d="m369.137 183.353-113.137-38.864-113.137 38.863s-13.542 157.915 113.137 227.455c126.679-69.539 113.137-227.454 113.137-227.454z" fill="#b3b3ff"/><path d="m256 383.695c-40.284-25.433-67.611-64.548-81.298-116.433-7.286-27.618-8.777-52.399-8.895-66.789l90.193-30.981 90.194 30.982c-.119 14.378-1.609 39.164-8.896 66.788-13.687 51.885-41.014 91-81.298 116.433z" fill="#ebebff"/><path d="m256 169.492 90.194 30.982c-.119 14.378-1.609 39.164-8.896 66.788-13.687 51.885-41.014 90.999-81.298 116.433z" fill="#ff9d33"/></g><path d="m75.434 147.008c-5.126-14.084-1.95-29.168 7.026-39.889 13.767 2.443 25.904 11.954 31.03 26.038s1.942 29.171-7.037 39.884c-13.767-2.443-25.893-11.95-31.019-26.033z" fill="#ff8b00"/><path d="m55.446 210.057c-7.494-12.98-6.986-28.387-.008-40.503 13.982.015 27.587 7.274 35.08 20.254 7.494 12.98 6.978 28.391-.004 40.5-13.981-.015-27.574-7.271-35.068-20.251z" fill="#ffab66"/><path d="m77.829 352.235c-11.481-9.634-16.273-24.285-13.86-38.058 13.144-4.768 28.411-2.599 39.892 7.034 11.481 9.634 16.268 24.292 13.848 38.059-13.144 4.769-28.398 2.599-39.88-7.035z" fill="#ffab66"/><path d="m133.104 416.556c-12.98-7.494-20.243-21.091-20.258-35.073 12.117-6.978 27.528-7.493 40.507 0 12.98 7.494 20.239 21.098 20.247 35.076-12.116 6.978-27.516 7.491-40.496-.003z" fill="#ff8b00"/><path d="m111.314 94.697c-2.603-14.76 3.144-29.064 13.846-38.063 13.134 4.797 23.435 16.271 26.037 31.031 2.603 14.76-3.153 29.065-13.856 38.056-13.133-4.796-23.424-16.264-26.027-31.024z" fill="#ffab66"/><path d="m54.297 280.46c-9.634-11.481-11.809-26.742-7.041-39.887 13.773-2.413 28.431 2.374 38.064 13.855s11.802 26.748 7.029 39.886c-13.772 2.413-28.418-2.373-38.052-13.854z" fill="#ff8b00"/><path d="m436.566 147.008c5.126-14.084 1.95-29.168-7.026-39.889-13.767 2.443-25.904 11.954-31.03 26.038s-1.942 29.171 7.037 39.884c13.767-2.443 25.893-11.95 31.019-26.033z" fill="#ff8b00"/><path d="m456.554 210.057c7.494-12.98 6.986-28.387.008-40.503-13.982.015-27.587 7.274-35.08 20.254-7.494 12.98-6.978 28.391.004 40.5 13.981-.015 27.574-7.271 35.068-20.251z" fill="#ffab66"/><path d="m434.171 352.235c11.481-9.634 16.273-24.285 13.86-38.058-13.144-4.768-28.411-2.599-39.892 7.034-11.481 9.634-16.268 24.292-13.848 38.059 13.144 4.769 28.398 2.599 39.88-7.035z" fill="#ffab66"/><path d="m378.896 416.556c12.98-7.494 20.243-21.091 20.258-35.073-12.117-6.978-27.528-7.493-40.507 0-12.98 7.494-20.239 21.098-20.247 35.076 12.116 6.978 27.516 7.491 40.496-.003z" fill="#ff8b00"/><path d="m400.733 94.697c2.603-14.76-3.144-29.064-13.846-38.063-13.134 4.797-23.435 16.271-26.037 31.031-2.603 14.76 3.153 29.065 13.856 38.056 13.133-4.796 23.424-16.264 26.027-31.024z" fill="#ffab66"/><path d="m457.703 280.46c9.634-11.481 11.809-26.742 7.041-39.887-13.773-2.413-28.431 2.374-38.064 13.855-9.634 11.481-11.802 26.748-7.029 39.886 13.772 2.413 28.418-2.373 38.052-13.854z" fill="#ff8b00"/><g fill="#00c"><path d="m331.269 348.722c14.956-22.222 26.275-47.949 33.646-76.468 12.519-48.442 9.346-87.682 9.205-89.329-.169-1.972-1.486-3.659-3.357-4.302l-40.757-14c-2.609-.895-5.456.493-6.354 3.104-.897 2.612.493 5.456 3.104 6.354l37.586 12.911c.462 10.28.966 43.963-9.19 83.072-7.105 27.362-17.968 52.001-32.286 73.233-17.322 25.688-39.808 46.463-66.866 61.786-27.058-15.323-49.543-36.098-66.866-61.786-14.318-21.232-25.18-45.871-32.286-73.233-10.156-39.109-9.652-72.794-9.19-83.072l108.342-37.216 38.757 13.314c2.611.897 5.457-.493 6.354-3.104s-.493-5.456-3.104-6.354l-40.382-13.872c-1.053-.361-2.196-.361-3.249 0l-113.137 38.863c-1.872.643-3.188 2.33-3.357 4.302-.141 1.647-3.314 40.887 9.205 89.329 7.371 28.519 18.69 54.247 33.646 76.468 18.747 27.856 43.261 50.219 72.862 66.468.75.412 1.578.617 2.406.617s1.657-.206 2.406-.617c29.6-16.249 54.115-38.612 72.862-66.468z"/><path d="m207.948 426.63c-10.234-3.646-20.162-8.421-29.56-14.182-1.342-14.617-9.707-27.889-22.534-35.295-7.158-4.133-15.207-6.142-23.242-6.055-3.398-4.403-6.608-8.991-9.578-13.697 1.748-14.957-4.208-30.074-15.942-40.006-1.319-1.117-2.704-2.131-4.126-3.077-2.109-6.6-3.877-13.413-5.261-20.307 3.755-12.063 2.286-25.123-3.846-35.977-.013-.953-.027-1.905-.027-2.865 0-7.699.467-15.428 1.357-23.004 4.78-8.607 6.577-18.426 5.36-27.937 2.658-9.833 6.106-19.463 10.263-28.648 3.952-4.9 6.776-10.496 8.414-16.403 6.235-10.763 13.541-20.848 21.728-29.982 12.136-10.44 17.95-26.628 15.169-42.399-2.811-15.94-14.017-29.298-29.246-34.859-1.682-.612-3.563-.282-4.933.87-7.51 6.315-12.865 15.047-15.079 24.587-.624 2.69 1.05 5.377 3.74 6.001 2.688.625 5.376-1.05 6.001-3.74 1.504-6.483 4.869-12.489 9.585-17.189 10.479 4.858 18.063 14.607 20.084 26.067 2.021 11.463-1.773 23.217-9.96 31.359-5.378-2.485-10.041-6.26-13.604-11.04-1.651-2.213-4.783-2.67-6.997-1.02s-2.67 4.783-1.02 6.997c3.911 5.245 8.862 9.536 14.531 12.661-3.141 3.763-6.145 7.659-9 11.678-.453-2.607-1.115-5.193-2.035-7.723-5.536-15.21-18.892-26.418-34.855-29.251-1.761-.311-3.558.341-4.707 1.713-10.404 12.426-13.428 29.596-7.891 44.809 4.819 13.241 15.566 23.442 28.796 27.73-1.573 3.751-3.036 7.561-4.383 11.421-.104-.186-.193-.377-.299-.561-8.093-14.018-23.193-22.736-39.405-22.754-.002 0-.003 0-.005 0-1.788 0-3.44.955-4.333 2.505-8.088 14.044-8.084 31.479.011 45.499 7.137 12.362 19.724 20.592 33.714 22.377-.362 3.694-.615 7.414-.778 11.145-10.244-8.841-24.093-12.805-37.659-10.43-1.764.309-3.227 1.537-3.837 3.22-5.527 15.235-2.495 32.404 7.911 44.806 8.706 10.375 21.596 16.244 34.926 16.244 1.101 0 2.205-.049 3.309-.13.658 2.979 1.387 5.935 2.177 8.868-9.215-2.745-19.26-2.573-28.615.82-1.683.61-2.911 2.074-3.22 3.837-2.797 15.964 3.169 32.345 15.571 42.751 8.3 6.965 18.737 10.625 29.301 10.625 4.062 0 8.143-.549 12.128-1.652 1.679 2.576 3.431 5.108 5.236 7.601-3.781 1.011-7.46 2.512-10.93 4.51-1.551.894-2.507 2.548-2.505 4.338.018 16.207 8.738 31.303 22.758 39.397 7.01 4.047 14.873 6.071 22.741 6.071 7.258 0 14.511-1.745 21.107-5.19 9.605 5.771 19.723 10.572 30.14 14.283.555.198 1.121.292 1.678.292 2.055 0 3.981-1.277 4.71-3.323.925-2.599-.433-5.459-3.034-6.386zm-127.816-281.332c-3.98-10.938-2.29-23.172 4.353-32.615 11.164 2.965 20.327 11.249 24.307 22.184 3.98 10.937 2.286 23.171-4.362 32.611-11.159-2.965-20.319-11.248-24.298-22.18zm-20.356 62.259c-5.82-10.08-6.279-22.422-1.377-32.875 11.509.981 21.971 7.548 27.79 17.626 5.819 10.08 6.274 22.422 1.367 32.873-11.503-.981-21.962-7.548-27.78-17.624zm-1.649 69.69c-7.481-8.917-10.077-20.992-7.065-32.137 11.507-1.028 22.948 3.62 30.428 12.533 7.481 8.916 10.073 20.992 7.055 32.136-11.495 1.03-22.939-3.619-30.418-12.532zm22.916 71.158c-8.917-7.481-13.569-18.924-12.538-30.423 11.201-3.036 23.272-.448 32.125 7.046 8.826 7.47 13.571 19.154 12.554 30.434-11.146 3.016-23.225.424-32.141-7.057zm54.561 63.821c-10.08-5.819-16.649-16.278-17.63-27.782 10.458-4.904 22.802-4.448 32.879 1.37 10.08 5.819 16.645 16.28 17.62 27.784-10.453 4.902-22.794 4.444-32.869-1.372z"/><path d="m469.444 238.869c-.61-1.683-2.074-2.911-3.837-3.22-13.568-2.379-27.416 1.587-37.659 10.43-.163-3.73-.416-7.45-.777-11.144 13.991-1.785 26.577-10.015 33.714-22.377 8.095-14.02 8.099-31.454.011-45.499-.893-1.55-2.545-2.505-4.333-2.505-.002 0-.003 0-.005 0-16.212.018-31.312 8.736-39.405 22.754-.106.184-.196.376-.299.561-1.347-3.859-2.81-7.67-4.383-11.421 13.23-4.288 23.977-14.49 28.796-27.73 5.537-15.213 2.513-32.383-7.891-44.809-1.149-1.372-2.943-2.024-4.707-1.713-15.963 2.833-29.319 14.041-34.855 29.251-.921 2.53-1.583 5.116-2.035 7.723-2.854-4.017-5.857-7.912-8.996-11.673 11.932-6.594 20.475-18.31 22.876-31.931 2.812-15.943-3.147-32.327-15.551-42.758-1.371-1.152-3.252-1.483-4.934-.87-15.229 5.562-26.436 18.919-29.246 34.859-2.766 15.684 2.974 31.779 14.975 42.224.011.013.018.028.029.04 8.235 9.169 15.58 19.302 21.845 30.117 1.638 5.907 4.462 11.503 8.414 16.403 4.157 9.186 7.605 18.816 10.263 28.648-1.217 9.51.579 19.329 5.36 27.937.891 7.576 1.357 15.305 1.357 23.004 0 .96-.014 1.912-.027 2.865-6.132 10.853-7.601 23.911-3.848 35.972-1.37 6.82-3.141 13.644-5.271 20.34-1.411.934-2.787 1.934-4.099 3.035-11.694 9.812-17.654 24.936-15.946 40.013-2.986 4.72-6.2 9.311-9.59 13.704-8.035-.087-16.084 1.922-23.242 6.055-12.828 7.406-21.192 20.678-22.534 35.295-9.398 5.761-19.327 10.536-29.56 14.182-2.601.927-3.958 3.787-3.032 6.388.729 2.046 2.655 3.323 4.71 3.323.557 0 1.124-.094 1.678-.292 10.416-3.711 20.535-8.512 30.14-14.283 6.596 3.445 13.848 5.19 21.107 5.19 7.867 0 15.731-2.024 22.741-6.071 14.02-8.094 22.741-23.19 22.758-39.397.002-1.79-.954-3.445-2.505-4.338-3.47-1.999-7.149-3.499-10.93-4.51 1.803-2.489 3.556-5.021 5.24-7.6 3.985 1.102 8.062 1.65 12.124 1.65 10.563 0 21.002-3.66 29.301-10.624 12.402-10.406 18.369-26.787 15.571-42.751-.309-1.764-1.537-3.227-3.22-3.837-9.335-3.386-19.39-3.547-28.632-.784.798-2.959 1.533-5.928 2.192-8.904 1.105.081 2.21.13 3.311.13 13.329 0 26.221-5.87 34.926-16.244 10.405-12.405 13.437-29.573 7.91-44.808zm-66.236-104.003c3.98-10.935 13.143-19.219 24.307-22.184 6.643 9.443 8.333 21.678 4.353 32.615-3.979 10.933-13.14 19.215-24.298 22.179-6.647-9.439-8.342-21.673-4.362-32.61zm-37.435-46.333c2.021-11.459 9.606-21.209 20.085-26.067 8.182 8.146 11.971 19.901 9.95 31.364-2.021 11.458-9.603 21.206-20.077 26.062-8.185-8.143-11.979-19.897-9.958-31.359zm10.623 323.693c-10.076 5.817-22.417 6.274-32.869 1.372.975-11.504 7.541-21.965 17.62-27.784 10.077-5.818 22.422-6.275 32.879-1.37-.982 11.503-7.55 21.962-17.63 27.782zm67.099-94.243c1.031 11.5-3.622 22.94-12.538 30.422-8.912 7.478-20.986 10.07-32.132 7.059-1.037-11.499 3.612-22.941 12.528-30.422 8.914-7.48 20.99-10.073 32.142-7.059zm-17.684-125.675c5.818-10.078 16.281-16.645 27.79-17.626 4.902 10.453 4.442 22.796-1.377 32.875-5.817 10.076-16.276 16.643-27.78 17.623-4.907-10.451-4.452-22.793 1.367-32.872zm28.062 84.939c-7.478 8.913-18.919 13.567-30.418 12.531-3.018-11.144-.426-23.22 7.055-32.136 7.48-8.915 18.918-13.568 30.428-12.533 3.012 11.146.416 23.221-7.065 32.138z"/></g></g><g><path d="m210.151 237.316v-14.016c0-2.762 2.239-5 5-5s5 2.238 5 5v14.016c0 2.762-2.239 5-5 5s-5-2.238-5-5z" fill="#ffab66"/><path d="m189.344 237.316v-14.016c0-2.762 2.239-5 5-5s5 2.238 5 5v14.016c0 2.762-2.239 5-5 5s-5-2.238-5-5z" fill="#8383ff"/><path d="m230.958 237.316v-14.016c0-2.762 2.239-5 5-5s5 2.238 5 5v14.016c0 2.762-2.239 5-5 5s-5-2.238-5-5z" fill="#ff4d4d"/></g><path d="m328.01 194.23-72.01 72.01v-57.12l29.5-29.5z" fill="#6c6cff"/><path d="m345.67 215.02c-.9 14.1-3.14 32.44-8.37 52.24-1.73 6.57-3.69 12.94-5.86 19.11l-75.44 75.44v-57.12z" fill="#6c6cff"/><path d="m219.778 100.253c-1.032 0-2.063-.318-2.939-.955-1.752-1.273-2.486-3.53-1.816-5.59l1.238-3.81-3.242-2.354c-1.752-1.273-2.486-3.53-1.816-5.59s2.589-3.455 4.755-3.455h4.007l1.238-3.811c.669-2.06 2.589-3.455 4.755-3.455s4.086 1.395 4.755 3.455l1.238 3.811h4.006c2.166 0 4.086 1.395 4.755 3.455s-.064 4.317-1.816 5.59l-3.241 2.355 1.238 3.81c.669 2.06-.064 4.317-1.816 5.59s-4.125 1.273-5.878 0l-3.242-2.355-3.241 2.355c-.875.636-1.907.954-2.938.954z" fill="#ff9d33"/><path d="m277.493 462.555c-1.031 0-2.063-.318-2.939-.955l-3.241-2.355-3.241 2.355c-1.752 1.273-4.125 1.273-5.878 0-1.752-1.273-2.486-3.53-1.816-5.59l1.238-3.811-3.241-2.355c-1.752-1.273-2.486-3.53-1.816-5.59s2.589-3.455 4.755-3.455h4.006l1.238-3.811c.669-2.06 2.589-3.455 4.755-3.455s4.086 1.395 4.755 3.455l1.238 3.811h4.006c2.166 0 4.086 1.395 4.755 3.455s-.064 4.317-1.816 5.59l-3.241 2.355 1.238 3.811c.669 2.06-.064 4.317-1.816 5.59-.877.637-1.908.955-2.939.955z" fill="#ff4d4d"/><path d="m433.39 443.534c-1.031 0-2.063-.318-2.939-.955l-3.241-2.355-3.241 2.355c-1.752 1.273-4.125 1.273-5.878 0-1.752-1.273-2.486-3.53-1.816-5.59l1.238-3.811-3.241-2.355c-1.752-1.273-2.486-3.53-1.816-5.59s2.589-3.455 4.755-3.455h4.006l1.238-3.811c.669-2.061 2.589-3.455 4.755-3.455s4.086 1.395 4.755 3.455l1.238 3.811h4.006c2.166 0 4.086 1.395 4.755 3.455s-.064 4.317-1.816 5.59l-3.241 2.355 1.238 3.811c.669 2.06-.064 4.317-1.816 5.59-.877.637-1.908.955-2.939.955z" fill="#4d4dff"/><path d="m197.773 124.69c-1.28 0-2.559-.488-3.536-1.464l-4.964-4.964-4.964 4.964c-1.953 1.952-5.118 1.952-7.071 0-1.953-1.953-1.953-5.119 0-7.071l8.5-8.5c1.953-1.952 5.118-1.952 7.071 0l8.5 8.5c1.953 1.953 1.953 5.119 0 7.071-.977.976-2.256 1.464-3.536 1.464z" fill="#ff4d4d"/><path d="m78.306 399.966c-1.28 0-2.559-.488-3.536-1.464l-4.964-4.964-4.964 4.964c-1.953 1.952-5.118 1.952-7.071 0-1.953-1.953-1.953-5.119 0-7.071l8.5-8.5c1.953-1.952 5.118-1.952 7.071 0l8.5 8.5c1.953 1.953 1.953 5.119 0 7.071-.977.976-2.257 1.464-3.536 1.464z" fill="#ff9d33"/></g></g></svg>