<svg xmlns="http://www.w3.org/2000/svg" xmlns:xlink="http://www.w3.org/1999/xlink" width="2008" height="1261" viewBox="0 0 2008 1261"><defs><filter id="a" x="0" y="0" width="2008" height="1261" filterUnits="userSpaceOnUse"><feOffset dx="10" dy="20" input="SourceAlpha"/><feGaussianBlur stdDeviation="15" result="b"/><feFlood flood-color="#8e8e8e" flood-opacity="0.149"/><feComposite operator="in" in2="b"/><feComposite in="SourceGraphic"/></filter><filter id="c" x="409" y="381" width="1190" height="500" filterUnits="userSpaceOnUse"><feOffset dx="10" dy="20" input="SourceAlpha"/><feGaussianBlur stdDeviation="15" result="d"/><feFlood flood-color="#8e8e8e" flood-opacity="0.149"/><feComposite operator="in" in2="d"/><feComposite in="SourceGraphic"/></filter></defs><g transform="translate(-274 2333)"><g transform="translate(-24 -1262)"><g transform="matrix(1, 0, 0, 1, 298, -1071)" filter="url(#a)"><rect width="1918" height="1171" rx="70" transform="translate(35 25)" fill="#fff"/></g><circle cx="12.5" cy="12.5" r="12.5" transform="translate(403 -984)" fill="#e67f7f"/><circle cx="12.5" cy="12.5" r="12.5" transform="translate(443 -984)" fill="#efe38a"/><circle cx="12.5" cy="12.5" r="12.5" transform="translate(483 -984)" fill="#7fe67f"/><rect width="288" height="28" rx="14" transform="translate(556 -913)" fill="#a0b3c1"/><rect width="62" height="28" rx="14" transform="translate(1967 -913)" fill="#f78d98"/></g><g transform="translate(1934 105)"><g transform="translate(-1169 -1845)" fill="#fff" stroke="#d5d3d3" stroke-width="1"><rect width="412" height="55" rx="10" stroke="none"/><rect x="0.5" y="0.5" width="411" height="54" rx="9.5" fill="none"/></g><g transform="translate(-716.259 -1845)" fill="#fff" stroke="#d5d3d3" stroke-width="1"><rect width="165" height="55" rx="10" stroke="none"/><rect x="0.5" y="0.5" width="164" height="54" rx="9.5" fill="none"/></g><g transform="translate(-512.735 -1845)" fill="#fff" stroke="#d5d3d3" stroke-width="1"><rect width="165" height="55" rx="10" stroke="none"/><rect x="0.5" y="0.5" width="164" height="54" rx="9.5" fill="none"/></g><rect width="125" height="55" rx="10" transform="translate(-309 -1845)" fill="#ed7070"/><rect width="147" height="10" rx="5" transform="translate(-1169 -1867)" fill="#bccfdd"/><rect width="93" height="10" rx="5" transform="translate(-716.528 -1867)" fill="#bccfdd"/><rect width="75" height="10" rx="5" transform="translate(-513.2 -1867)" fill="#bccfdd"/><text transform="translate(-1169 -1921)" fill="#969696" font-size="24" font-family="HelveticaNeue-Medium, Helvetica Neue" font-weight="500"><tspan x="0" y="0">Trouvez votre pepetsitter en quelques clics !</tspan></text><g transform="translate(-261 -1831)"><g fill="none" stroke="#fff" stroke-width="3"><circle cx="11" cy="11" r="11" stroke="none"/><circle cx="11" cy="11" r="9.5" fill="none"/></g><line x2="10.71" y2="9.18" transform="translate(18.106 18.106)" fill="none" stroke="#fff" stroke-width="3"/></g><g transform="matrix(1, 0, 0, 1, -1660, -2438)" filter="url(#c)"><path d="M70,0h960a70,70,0,0,1,70,70V340a70,70,0,0,1-70,70H70A70,70,0,0,1,0,340V70A70,70,0,0,1,70,0Z" transform="translate(444 406)" fill="#fff"/></g><g transform="translate(-1169 -1845)" fill="#fff" stroke="#d5d3d3" stroke-width="1"><rect width="412" height="55" rx="10" stroke="none"/><rect x="0.5" y="0.5" width="411" height="54" rx="9.5" fill="none"/></g><g transform="translate(-716.259 -1845)" fill="#fff" stroke="#d5d3d3" stroke-width="1"><rect width="165" height="55" rx="10" stroke="none"/><rect x="0.5" y="0.5" width="164" height="54" rx="9.5" fill="none"/></g><g transform="translate(-512.735 -1845)" fill="#fff" stroke="#d5d3d3" stroke-width="1"><rect width="165" height="55" rx="10" stroke="none"/><rect x="0.5" y="0.5" width="164" height="54" rx="9.5" fill="none"/></g><rect width="125" height="55" rx="10" transform="translate(-309 -1845)" fill="#ed7070"/><rect width="147" height="10" rx="5" transform="translate(-1169 -1867)" fill="#bccfdd"/><rect width="93" height="10" rx="5" transform="translate(-716.528 -1867)" fill="#bccfdd"/><rect width="75" height="10" rx="5" transform="translate(-513.2 -1867)" fill="#bccfdd"/><text transform="translate(-1169 -1921)" fill="#969696" font-size="24" font-family="HelveticaNeue-Medium, Helvetica Neue" font-weight="500"><tspan x="0" y="0">Trouvez votre pepetsitter en quelques clics !</tspan></text><g transform="translate(-261 -1831)"><g fill="none" stroke="#fff" stroke-width="3"><circle cx="11" cy="11" r="11" stroke="none"/><circle cx="11" cy="11" r="9.5" fill="none"/></g><line x2="10.71" y2="9.18" transform="translate(18.106 18.106)" fill="none" stroke="#fff" stroke-width="3"/></g><g transform="translate(-1169 -1845)" fill="#fff" stroke="#d5d3d3" stroke-width="1"><rect width="412" height="55" rx="10" stroke="none"/><rect x="0.5" y="0.5" width="411" height="54" rx="9.5" fill="none"/></g></g></g></svg>