<svg xmlns="http://www.w3.org/2000/svg" xmlns:xlink="http://www.w3.org/1999/xlink" width="2008" height="1261" viewBox="0 0 2008 1261"><defs><filter id="a" x="0" y="0" width="2008" height="1261" filterUnits="userSpaceOnUse"><feOffset dx="10" dy="20" input="SourceAlpha"/><feGaussianBlur stdDeviation="15" result="b"/><feFlood flood-color="#8e8e8e" flood-opacity="0.149"/><feComposite operator="in" in2="b"/><feComposite in="SourceGraphic"/></filter><filter id="c" x="409" y="281" width="1190" height="700" filterUnits="userSpaceOnUse"><feOffset dx="10" dy="20" input="SourceAlpha"/><feGaussianBlur stdDeviation="15" result="d"/><feFlood flood-color="#8e8e8e" flood-opacity="0.161"/><feComposite operator="in" in2="d"/><feComposite in="SourceGraphic"/></filter><filter id="e" x="1224" y="417" width="212" height="243.096" filterUnits="userSpaceOnUse"><feOffset dx="1" dy="2" input="SourceAlpha"/><feGaussianBlur stdDeviation="9" result="f"/><feFlood flood-color="#8e8e8e" flood-opacity="0.161"/><feComposite operator="in" in2="f"/><feComposite in="SourceGraphic"/></filter></defs><g transform="translate(-845 2387)"><g transform="translate(547 -1316)"><g transform="matrix(1, 0, 0, 1, 298, -1071)" filter="url(#a)"><rect width="1918" height="1171" rx="70" transform="translate(35 25)" fill="#fff"/></g><circle cx="12.5" cy="12.5" r="12.5" transform="translate(403 -984)" fill="#e67f7f"/><circle cx="12.5" cy="12.5" r="12.5" transform="translate(443 -984)" fill="#efe38a"/><circle cx="12.5" cy="12.5" r="12.5" transform="translate(483 -984)" fill="#7fe67f"/><rect width="288" height="28" rx="14" transform="translate(556 -913)" fill="#a0b3c1"/><rect width="62" height="28" rx="14" transform="translate(1967 -913)" fill="#f78d98"/></g><g transform="translate(1523 -1714)"><g transform="matrix(1, 0, 0, 1, -678, -673)" filter="url(#c)"><rect width="1100" height="610" rx="70" transform="translate(444 306)" fill="#fff"/></g><path d="M0,0H522a0,0,0,0,1,0,0V206a25,25,0,0,1-25,25H25A25,25,0,0,1,0,206V0A0,0,0,0,1,0,0Z" transform="translate(-32 -367)" fill="#e1e7ed"/><g transform="matrix(1, 0, 0, 1, -678, -673)" filter="url(#e)"><path d="M25,0H133c13.807,0,25,13.4,25,29.92V159.176c0,16.524-11.193,29.92-25,29.92H25c-13.807,0-25-13.4-25-29.92V29.92C0,13.4,11.193,0,25,0Z" transform="translate(1250 442)" fill="#fff"/></g><g transform="translate(596 -198)" fill="#fff" stroke="#e2e8ef" stroke-width="1"><rect width="110" height="29" rx="4" stroke="none"/><rect x="0.5" y="0.5" width="109" height="28" rx="3.5" fill="none"/></g><g transform="translate(596 -151)" fill="#fff" stroke="#e2e8ef" stroke-width="1"><rect width="110" height="29" rx="4" stroke="none"/><rect x="0.5" y="0.5" width="109" height="28" rx="3.5" fill="none"/></g><rect width="110" height="29" rx="4" transform="translate(596 -104)" fill="#fac4c4"/><rect width="95" height="9" rx="4.5" transform="translate(604 -188)" fill="#e1e7ed"/><rect width="95" height="9" rx="4.5" transform="translate(604 -141)" fill="#e1e7ed"/><line x2="522" transform="translate(-31.5 -103.5)" fill="none" stroke="#e2e8ef" stroke-width="1"/><rect width="402" height="7" rx="3.5" transform="translate(8 -82)" fill="#d4dae0"/><rect width="29" height="29" rx="4" transform="translate(-32 -83)" fill="#fac4c4"/><rect width="255" height="7" rx="3.5" transform="translate(8 -69)" fill="#e1e7ed"/><rect width="402" height="7" rx="3.5" transform="translate(8 -40)" fill="#d4dae0"/><rect width="29" height="29" rx="4" transform="translate(-32 -41)" fill="#efe38a"/><rect width="255" height="7" rx="3.5" transform="translate(8 -27)" fill="#e1e7ed"/><rect width="402" height="7" rx="3.5" transform="translate(8 2)" fill="#d4dae0"/><rect width="29" height="29" rx="4" transform="translate(-32 1)" fill="#7fe67f"/><rect width="255" height="7" rx="3.5" transform="translate(8 15)" fill="#e1e7ed"/><rect width="402" height="7" rx="3.5" transform="translate(8 44)" fill="#d4dae0"/><rect width="29" height="29" rx="4" transform="translate(-32 43)" fill="#81bad7"/><rect width="255" height="7" rx="3.5" transform="translate(8 57)" fill="#e1e7ed"/><rect width="441" height="7" rx="3.5" transform="translate(-31 99)" fill="#d4dae0"/><rect width="405" height="7" rx="3.5" transform="translate(-31 112)" fill="#e1e7ed"/><rect width="441" height="7" rx="3.5" transform="translate(-31 128)" fill="#d4dae0"/><rect width="405" height="7" rx="3.5" transform="translate(-31 141)" fill="#e1e7ed"/><g transform="translate(10)"><path d="M10,0H179a10,10,0,0,1,10,10V37a0,0,0,0,1,0,0H0a0,0,0,0,1,0,0V10A10,10,0,0,1,10,0Z" transform="translate(-42 206)" fill="#e1e7ed"/><rect width="13" height="13" rx="2" transform="translate(-26 218)" fill="#fff"/><rect width="13" height="13" rx="2" transform="translate(-2 218)" fill="#fff"/><rect width="13" height="13" rx="2" transform="translate(22 218)" fill="#fff"/><rect width="13" height="13" rx="2" transform="translate(46 218)" fill="#fff"/><rect width="13" height="13" rx="2" transform="translate(70 218)" fill="#fff"/><rect width="13" height="13" rx="2" transform="translate(94 218)" fill="#fff"/><rect width="13" height="13" rx="2" transform="translate(118 218)" fill="#fff"/><path d="M2,0h9a2,2,0,0,1,2,2V6a0,0,0,0,1,0,0H0A0,0,0,0,1,0,6V2A2,2,0,0,1,2,0Z" transform="translate(-26 237)" fill="#fff"/><path d="M2,0h9a2,2,0,0,1,2,2V6a0,0,0,0,1,0,0H0A0,0,0,0,1,0,6V2A2,2,0,0,1,2,0Z" transform="translate(-2 237)" fill="#fff"/><path d="M2,0h9a2,2,0,0,1,2,2V6a0,0,0,0,1,0,0H0A0,0,0,0,1,0,6V2A2,2,0,0,1,2,0Z" transform="translate(22 237)" fill="#fff"/><path d="M2,0h9a2,2,0,0,1,2,2V6a0,0,0,0,1,0,0H0A0,0,0,0,1,0,6V2A2,2,0,0,1,2,0Z" transform="translate(46 237)" fill="#fff"/><path d="M2,0h9a2,2,0,0,1,2,2V6a0,0,0,0,1,0,0H0A0,0,0,0,1,0,6V2A2,2,0,0,1,2,0Z" transform="translate(70 237)" fill="#fff"/><path d="M2,0h9a2,2,0,0,1,2,2V6a0,0,0,0,1,0,0H0A0,0,0,0,1,0,6V2A2,2,0,0,1,2,0Z" transform="translate(94 237)" fill="#fff"/><path d="M2,0h9a2,2,0,0,1,2,2V6a0,0,0,0,1,0,0H0A0,0,0,0,1,0,6V2A2,2,0,0,1,2,0Z" transform="translate(118 237)" fill="#fff"/></g><g transform="translate(263)"><path d="M10,0H179a10,10,0,0,1,10,10V37a0,0,0,0,1,0,0H0a0,0,0,0,1,0,0V10A10,10,0,0,1,10,0Z" transform="translate(-42 206)" fill="#e1e7ed"/><rect width="13" height="13" rx="2" transform="translate(-26 218)" fill="#fff"/><rect width="13" height="13" rx="2" transform="translate(-2 218)" fill="#fff"/><rect width="13" height="13" rx="2" transform="translate(22 218)" fill="#fff"/><rect width="13" height="13" rx="2" transform="translate(46 218)" fill="#fff"/><rect width="13" height="13" rx="2" transform="translate(70 218)" fill="#fff"/><rect width="13" height="13" rx="2" transform="translate(94 218)" fill="#fff"/><rect width="13" height="13" rx="2" transform="translate(118 218)" fill="#fff"/><path d="M2,0h9a2,2,0,0,1,2,2V6a0,0,0,0,1,0,0H0A0,0,0,0,1,0,6V2A2,2,0,0,1,2,0Z" transform="translate(-26 237)" fill="#fff"/><path d="M2,0h9a2,2,0,0,1,2,2V6a0,0,0,0,1,0,0H0A0,0,0,0,1,0,6V2A2,2,0,0,1,2,0Z" transform="translate(-2 237)" fill="#fff"/><path d="M2,0h9a2,2,0,0,1,2,2V6a0,0,0,0,1,0,0H0A0,0,0,0,1,0,6V2A2,2,0,0,1,2,0Z" transform="translate(22 237)" fill="#fff"/><path d="M2,0h9a2,2,0,0,1,2,2V6a0,0,0,0,1,0,0H0A0,0,0,0,1,0,6V2A2,2,0,0,1,2,0Z" transform="translate(46 237)" fill="#fff"/><path d="M2,0h9a2,2,0,0,1,2,2V6a0,0,0,0,1,0,0H0A0,0,0,0,1,0,6V2A2,2,0,0,1,2,0Z" transform="translate(70 237)" fill="#fff"/><path d="M2,0h9a2,2,0,0,1,2,2V6a0,0,0,0,1,0,0H0A0,0,0,0,1,0,6V2A2,2,0,0,1,2,0Z" transform="translate(94 237)" fill="#fff"/><path d="M2,0h9a2,2,0,0,1,2,2V6a0,0,0,0,1,0,0H0A0,0,0,0,1,0,6V2A2,2,0,0,1,2,0Z" transform="translate(118 237)" fill="#fff"/></g><rect width="106" height="9" rx="4.5" transform="translate(-32 183)" fill="#c8ccd0"/></g></g></svg>