<svg id="Capa_1" enable-background="new 0 0 512 512" height="512" viewBox="0 0 512 512" width="512" xmlns="http://www.w3.org/2000/svg"><g><path d="m512 256c0 141.385-114.615 256-256 256-20.156 0-39.769-2.329-58.582-6.734-2.917-.683-1.37-7.272-4.248-8.053-37.399-10.159-69.191-26.627-97.702-51.234-1.943-1.677-10.51.516-12.402-1.218-51.055-46.8-83.066-114.042-83.066-188.761 0-141.385 114.615-256 256-256 30.271 0 59.314 5.254 86.269 14.9 2.996 1.072 1.427 8.453 4.37 9.632 34.692 13.903 63.151 34.054 88.403 60.766 2.401 2.54 11.773.001 14.069 2.638 39.17 44.968 62.889 103.746 62.889 168.064z" fill="#f44545"/><path d="m458.064 256c0 111.597-90.467 202.064-202.064 202.064s-202.064-90.467-202.064-202.064 90.467-202.064 202.064-202.064 202.064 90.467 202.064 202.064z" fill="#fb5858"/><path d="m348.106 165.716c-.131 9.741-5.699 24.347-20.472 47.077-26.979 41.514-74.441 94.409-85.921 87.236-7.34-4.586 1.806-32.619 16.409-63.091-2.516 2.906-5.282 5.984-8.318 9.244-33.858 36.363-88.361 81.701-96.527 74.192-8.166-7.508 33.097-65.02 66.955-101.383.412-.442.821-.88 1.227-1.312 1.069-1.138 1.119-2.892.123-4.095l-.451-.545c-1.149-1.388-3.231-1.514-4.531-.266-6.725 6.46-14.543 13.416-23.471 20.804-43.187 35.738-95.985 68.051-102.879 59.72s34.726-54.151 77.913-89.889c8.968-7.421 17.297-13.823 24.93-19.236 1.415-1.003 1.671-2.995.565-4.332-.932-1.126-2.545-1.417-3.805-.676-.729.428-1.469.86-2.221 1.296-42.989 24.885-108.425 51.913-114.149 41.84s50.431-53.432 93.42-78.317c13.026-7.54 23.348-12.519 31.568-15.517-32.243-4.791-63.46-15.14-72.68-24.476-1.299-1.116-2.286-2.472-2.88-4.05-2.857-7.6-2.004-16.317 9.927-20.909 2.027-.78 4.196-.667 6.342.081 12.37 4.312 25.996 5.509 39.594 4.488 19.572-1.469 41.33-2.103 60.031-2.479 10.494-.211 19.118.159 26.178 1.014l77.286-67.235c41.669 14.911 78.345 40.318 106.843 73.036z" fill="#ffdecf"/><path d="m122.51 87.893c1.441-3.516 4.615-6.662 10.33-8.862 2.027-.78 4.196-.667 6.342.081 12.37 4.312 25.996 5.509 39.594 4.488 19.572-1.469 41.33-2.103 60.031-2.479 10.494-.211 19.118.159 26.178 1.014l77.284-67.235c8.169 2.923 16.146 6.25 23.907 9.956l-78.597 68.377c-7.88 6.855-18.06 10.453-28.499 10.099-4.868-.165-10.171-.195-15.944-.079-22.517.454-48.717 1.216-72.283 2.985-16.318 1.225-49.911-14.52-48.343-18.345zm56.881 68.579c8.668-5.018 16.139-8.901 22.59-11.822 8.266-3.742 10.651-11.334 8.274-15.272-1.577-2.612-4.419-3.619-12.032-.82-8.18 3.007-18.426 7.961-31.321 15.426-42.989 24.886-99.144 68.245-93.42 78.317 1.649 2.902 8.252 2.725 17.846.407 14.796-17.505 55.262-47.248 88.063-66.236zm3.943 59.545c13.037-10.789 24.727-19.425 34.884-25.997 11.424-7.391 8.41-27.831-14.964-12.743-10.205 6.588-21.965 15.268-35.091 26.13-43.187 35.738-84.807 81.558-77.913 89.889 2.377 2.872 10.21.913 21.224-4.351 12.822-18.621 41.965-48.189 71.86-72.928zm60.531-7.793c-3.653-3.581-9.461-3.637-13.115-.057-3.272 3.204-6.771 6.8-10.518 10.825-33.858 36.363-75.121 93.875-66.955 101.383 2.47 2.271 9.182-.294 18.279-5.983 11.746-21.855 38.627-57.005 61.985-82.091 3.706-3.98 7.169-7.542 10.41-10.719 3.697-3.625 3.756-9.61.049-13.225-.045-.045-.09-.089-.135-.133z" fill="#ffcdbe"/><path d="m328.397 122.541c-21.483 26.505-60.524 30.591-87.029 9.108-2.144-1.738-2.474-4.887-.736-7.032s4.887-2.475 7.032-.736c22.222 18.01 54.953 14.585 72.964-7.636 1.739-2.145 4.887-2.475 7.032-.736.264.214.5.448.708.7 1.488 1.796 1.554 4.45.029 6.332z" fill="#ffbeaa"/><path d="m371.543 84.496c-5.738 11.268-16.794 22.27-24.262 22.895-.21.019-.424.028-.642.028-.217 0-.431-.009-.642-.028-7.468-.625-18.525-11.627-24.262-22.895-6.383-12.535-3.768-20.653 3.518-22.696 6.017-1.687 13.337 1.297 19.299 9.449.994 1.359 3.181 1.359 4.175 0 5.962-8.152 13.282-11.136 19.299-9.449 7.285 2.043 9.9 10.161 3.517 22.696z" fill="#f44545"/><path d="m356.339 103.144c-3.207 2.448-6.366 4.022-9.058 4.247-.21.019-.424.028-.642.028-.217 0-.431-.009-.642-.028-7.468-.625-18.525-11.627-24.262-22.895-6.383-12.535-3.768-20.653 3.518-22.696.198-.055.397-.106.598-.151.046 4.074 1.385 9.039 4.31 14.783 6.166 12.11 17.488 23.962 26.178 26.712z" fill="#d63030"/><path d="m404.55 173.56c-9.776 19.199-28.614 37.945-41.339 39.01-.358.032-.723.048-1.093.048-.371.001-.735-.015-1.093-.048-12.725-1.065-31.563-19.81-41.339-39.01-10.876-21.358-6.419-35.189 5.993-38.67 10.251-2.875 22.724 2.21 32.882 16.099 1.693 2.315 5.419 2.315 7.113 0 10.159-13.889 22.631-18.974 32.882-16.099 12.413 3.481 16.87 17.312 5.994 38.67z" fill="#ff94d2"/><path d="m378.644 205.333c-5.465 4.172-10.846 6.853-15.433 7.237-.358.032-.723.048-1.093.048-.371.001-.735-.015-1.093-.048-12.725-1.065-31.563-19.81-41.339-39.01-10.876-21.358-6.419-35.189 5.993-38.67.337-.094.677-.18 1.018-.258.079 6.942 2.36 15.401 7.343 25.188 10.507 20.634 29.799 40.827 44.604 45.513z" fill="#ff72c3"/><path d="m367.697 253.208-14.142 14.142c-1.953 1.953-5.118 1.953-7.071 0s-1.953-5.119 0-7.071l14.142-14.142c1.953-1.953 5.118-1.953 7.071 0 1.952 1.952 1.952 5.118 0 7.071zm41.855 61.572c-.12-2.759-2.454-4.898-5.213-4.778l-19.981.87c-2.759.12-4.898 2.454-4.778 5.213s2.454 4.898 5.213 4.778l19.981-.87c2.76-.12 4.899-2.454 4.778-5.213zm-17.592 57.974-19.552-4.21c-2.699-.582-5.359 1.136-5.94 3.835s1.136 5.359 3.835 5.94l19.552 4.21c2.7.581 5.359-1.136 5.94-3.835.582-2.699-1.135-5.359-3.835-5.94zm-79.669-162.783c-2.622-.865-5.45.56-6.315 3.182l-6.264 18.994c-.865 2.622.56 5.449 3.182 6.314s5.45-.56 6.315-3.182l6.264-18.993c.865-2.623-.56-5.45-3.182-6.315zm-68.569 20.752c-1.129-2.52-4.087-3.648-6.607-2.52-2.52 1.129-3.648 4.087-2.52 6.607l8.174 18.253c1.129 2.52 4.087 3.648 6.607 2.52s3.648-4.086 2.52-6.607z" fill="#ff883e"/><path d="m377.17 349.055c7.217 9.254 9.818 19.712 5.928 28.398-6.772 15.122-30.649 19.145-53.331 8.988-5.745-2.573-10.862-5.809-15.191-9.452l-19.983 21.879h12.403c2.761 0 5 2.239 5 5s-2.239 5-5 5h-19.142v19.142c0 2.761-2.239 5-5 5s-5-2.239-5-5v-10.814l-80.437 88.071c-43.412-10.163-82.571-31.374-114.351-60.505l153.514-149.13c-.825-1.517-1.604-3.087-2.329-4.707-10.158-22.682-6.134-46.56 8.988-53.331 8.686-3.89 19.144-1.289 28.398 5.928 9.951-15.464 25.038-23.69 37.497-19.058 9.806 3.646 15.64 14.385 16.427 27.671 13.661-6.553 27.624-6.368 35.772 1.779 9.27 9.27 8.232 26.07-1.311 41.385 17.072-1.625 31.805 4.424 36.206 16.259 4.633 12.46-3.594 27.546-19.058 37.497z" fill="#ffc14f"/><path d="m290.597 309.428c-2.457 4.658-6.01 8.261-10.574 10.305-6.89 3.085-14.894 2.087-22.529-2.059l-43.043 41.813h12.031v25.713h25.713v25.713h25.713v6.225l-33.162 36.309h-9.372v-25.713h-25.713v-25.713h-25.713v-12.902l-23.485 22.814h17.875v25.713h25.713v25.713h25.713v6.492l-32.346 35.416c-3.423-.801-6.819-1.671-10.188-2.609v-22.478h-25.713v-25.713h-25.713v-18.579l-28.996 28.168c-8.299-5.961-16.227-12.407-23.742-19.295l27.025-26.253 33.236-32.287 14.907-14.482 2.521-2.449 37.341-36.275h-7.479c-2.761 0-5-2.239-5-5s2.239-5 5-5h16.362c-.097-.388-.149-.795-.149-1.213v-20c0-2.761 2.239-5 5-5s5 2.239 5 5v13.014l19.748-19.184c-.825-1.517-1.604-3.087-2.329-4.707-10.158-22.682-6.134-46.56 8.988-53.331 8.686-3.89 19.145-1.289 28.398 5.928-2.452 3.811-4.593 8.06-6.305 12.666-8.662 23.295-3.094 46.86 12.436 52.634 4.087 1.518 8.455 1.654 12.831.606z" fill="#ffb52d"/><path d="m152.625 411.933h7.838l-24.659 23.955v-7.134h-25.713v-10.247l33.236-32.287h9.297v25.713zm61.827-52.446h-13.682v-25.713h-3.453l-36.559 35.515-2.521 2.449v4.57h25.713v12.811z" fill="#ffa90b"/><path d="m473.575 170.65c0 2.761-2.238 5-5 5h-8.333v8.333c0 2.761-2.238 5-5 5s-5-2.239-5-5v-8.333h-8.334c-2.762 0-5-2.239-5-5s2.238-5 5-5h8.334v-8.333c0-2.761 2.238-5 5-5s5 2.239 5 5v8.333h8.333c2.762 0 5 2.239 5 5z" fill="#ffc14f"/><path d="m440.377 223.56c0 2.761-2.238 5-5 5h-8.333v8.333c0 2.761-2.238 5-5 5s-5-2.239-5-5v-8.333h-8.334c-2.762 0-5-2.239-5-5s2.238-5 5-5h8.334v-8.333c0-2.761 2.238-5 5-5s5 2.239 5 5v8.333h8.333c2.762 0 5 2.239 5 5z" fill="#fff"/></g></svg>