<svg id="Capa_1" enable-background="new 0 0 512 512" height="512" viewBox="0 0 512 512" width="512" xmlns="http://www.w3.org/2000/svg"><g><path d="m256 0-256 188.412v52.588h30v271h226 226v-271h30v-52.588z" fill="#80d4ff"/><path d="m482 241h30v-52.588l-256-188.412v512h226z" fill="#66b3ff"/><path d="m149.359 321.859c-7.412 0-14.355-3.193-20.654-9.492-16.89-16.89-29.736-55.122-10.605-74.253 9.199-9.17 23.701-11.763 40.854-7.397 12.759 3.281 25.547 10.181 33.384 18.003v.015s0 0 .015 0c6.313 6.328 9.507 13.301 9.478 20.742-.044 12.539-8.848 21.196-17.358 29.575l-5.42 5.42c-8.379 8.525-17.036 17.329-29.575 17.388-.045-.001-.075-.001-.119-.001z" fill="#704c55"/><path d="m362.641 321.859c-.044 0-.073 0-.117 0-12.539-.059-21.196-8.862-29.575-17.388l-5.42-5.42c-8.511-8.379-17.314-17.036-17.358-29.575-.029-7.456 3.164-14.429 9.492-20.757 7.822-7.822 20.61-14.722 33.384-18.003 17.153-4.365 31.655-1.772 40.854 7.383 19.131 19.146 6.284 57.378-10.605 74.268-6.3 6.299-13.243 9.492-20.655 9.492z" fill="#5b362a"/><g fill="#704c55"><path d="m248.055 271h7.945 7.529c27.812 0 37.471-12.206 37.471-30 0-23.892-17.944-60-45-60s-45 36.108-45 60c0 22.877 15.304 29.507 37.055 30z"/><path d="m312.338 339.496-.015-.015c-7.559-5.449-14.414-12.29-19.79-19.775-8.452-11.719-22.493-17.582-36.533-17.582s-28.081 5.863-36.533 17.596c-5.464 7.588-12.114 14.238-19.805 19.775-11.689 8.439-18.662 22.091-18.662 36.505 0 24.814 20.186 45 45 45 7.676 0 18.823-2.139 30-5.684 11.177 3.545 22.324 5.684 30 5.684 24.814 0 45-20.186 45-45 0-14.414-6.973-28.066-18.662-36.504z"/></g><g fill="#5b362a"><path d="m331 376c0-14.414-6.973-28.066-18.662-36.504l-.015-.015c-7.559-5.449-14.414-12.29-19.79-19.775-8.452-11.719-22.493-17.582-36.533-17.582v113.192c11.177 3.545 22.324 5.684 30 5.684 24.814 0 45-20.186 45-45z"/><path d="m301 241c0-23.892-17.944-60-45-60v90h7.529c27.812 0 37.471-12.206 37.471-30z"/></g></g></svg>