<svg id="Layer_1" enable-background="new 0 0 512 512" height="512" viewBox="0 0 512 512" width="512" xmlns="http://www.w3.org/2000/svg"><g><g><g><path d="m193.772 169.543 11.964 20.465 70.405 26.317c10.482 3.918 15.803 15.592 11.886 26.074-3.919 10.483-15.592 15.804-26.074 11.886l-77.164-28.843c-4.383-1.638-8.048-4.735-10.398-8.754l-16.007-27.383 12.848-18.236z" fill="#f7a286"/><path d="m139.117 116.198c9.661-5.648 22.068-2.399 27.719 7.267l26.936 46.079-35.389 19.762-26.534-45.39c-5.647-9.661-2.393-22.071 7.268-27.718z" fill="#4699f2"/></g><g><path d="m46.38 493.849 49.897-107.612c1.658-3.576 2.422-7.502 2.226-11.439l-4.581-91.91c-.668-13.412-12.089-23.745-25.495-23.074-13.412.669-23.53 18.574-23.53 18.574l4.738 92.837-47.373 102.167c-5.649 12.183-.352 26.638 11.831 32.287 12.181 5.649 26.637.355 32.287-11.83z" fill="#5f6e9b"/></g><g><path d="m165.946 507.922c13.378-1.168 23.276-12.96 22.108-26.337l-10.463-119.858c-.167-1.918-.563-3.81-1.176-5.636l-32.069-95.365c-4.281-12.729-18.071-19.577-30.797-15.297-12.729 4.28-19.577 18.068-15.296 30.797l31.144 92.618 10.211 116.97c1.164 13.333 12.913 23.278 26.338 22.108z" fill="#414b82"/></g><path d="m69.895 126.515c2.691-16.348 18.125-27.419 34.473-24.729l52.787 8.689c16.348 2.691 27.419 18.125 24.729 34.473l-24.999 151.873-111.989-18.432z" fill="#64afff"/><ellipse cx="155.55" cy="48.394" fill="#ffb69e" rx="44.409" ry="44.408" transform="matrix(.83 -.557 .557 .83 -.571 94.914)"/><g><path d="m154.598 179.295 6.016 22.93 60.727 44.292c9.041 6.594 11.025 19.269 4.431 28.311-6.595 9.041-19.27 11.025-28.311 4.431l-66.556-48.543c-3.781-2.757-6.477-6.727-7.659-11.229l-8.048-30.68 17.281-14.106z" fill="#ffb69e"/><path d="m116.314 113.21c10.825-2.84 21.9 3.628 24.741 14.458l13.543 51.627-39.401 9.51-13.341-50.855c-2.839-10.825 3.634-21.901 14.458-24.74z" fill="#4699f2"/></g></g><g><path d="m437.605 409.238-55.006 22.679c2.836 7.518 7.43 13.454 11.82 18.084 2.537 2.676 3.819 6.299 3.464 9.97l-3.792 39.168c-.403 4.331 2.731 8.389 7.28 8.838 4.168.412 7.918-2.585 8.761-6.688l8.082-39.322c.389-1.894 1.543-3.516 3.135-4.613.008-.006.017-.012.025-.017 21.487-14.863 16.231-48.099 16.231-48.099z" fill="#5a2d19"/><path d="m334.129 402.218c-3.158-5.773-10.546-7.716-16.375-4.664l-44.959 23.533-1.2.628c-2.033 1.08-3.559 3.058-3.973 5.503l-5.526 32.692c-.513 3.021 1.248 6.086 4.327 7.054 3.219 1.012 6.652-.867 7.853-4.02l8.789-23.07c.704-1.849 2.144-3.323 3.976-4.07l41.12-16.78c.34-.14.695-.303 1.027-.477 5.914-3.097 8.158-10.448 4.941-16.329z" fill="#5a2d19"/><g><path d="m219.27 362.88c-1.575 0-3.146-.621-4.316-1.854-2.262-2.383-2.163-6.148.22-8.41l88.625-84.103c2.383-2.261 6.148-2.163 8.41.22s2.163 6.148-.22 8.41l-88.625 84.103c-1.151 1.092-2.624 1.634-4.094 1.634z" fill="#dcbe82"/></g><g><g><path d="m316.724 310.294s11.992-9.569 17.461-19.162c1.258-2.206 4.51-2.139 5.517.192 5.943 13.766-6.221 51.326-6.221 51.326z" fill="#783c28"/></g><g><path d="m504.016 334.721c-.082.141-10.577 30.707-37.436 40.655-4.949 1.863-10.125 2.819-15.344 3.132-.789-.572-7.358-9.963-22.028-12.133l-87.87-12.999s-6.599-30.614-7.045-33.055c-4.039-15.035-19.424-19.187-19.424-19.187-7.558-3.76-16.258-3.992-23.87-.885-4.006 1.635-8.304 2.366-12.608 2.246l-15.686-2.875c-5.039-.912-9.642 3.039-9.505 8.157l.035 1.307c.055 2.065 1.203 3.945 3.014 4.938l17.801 5.326 3.334 1.099-10.519-.483-7.658 7.268c1.68 2.794 4.265 5.01 7.46 6.144 12.114 4.301 17.36 13.472 19.666 26.05 2.256 15.168 13.403 44.719 21.322 62.134 2.387 5.249 2.364 11.277-.021 16.526l-26.686 58.742c-1.567 3.484-.318 7.698 3.045 9.695 3.615 2.146 8.286.955 10.433-2.66l31.611-53.25c3.983-6.709 10.86-11.177 18.608-12.093 18.008-2.128 42.709-5.192 64.78-8.078 2.74-.358 5.359 1.066 6.67 3.499l.022.04c2.241 3.639 8.001 14.896 16.198 21.135 2.668 2.031 4.499 4.966 4.984 8.283l5.496 37.554c.553 3.81 4.01 6.655 8.018 6.27 3.881-.373 6.722-3.859 6.643-7.756l-.764-37.813c-.1-4.96 1.41-9.805 4.248-13.875 10.053-14.416 10.57-37.234 4.902-50.316 25.111-10.278 41.7-34.631 46.089-60.612.829-4.877-6.168-6.795-7.915-2.13z" fill="#783c28"/></g></g><path d="m347.312 357.893-54.706 25.321c-1.681.778-3.674.046-4.452-1.635l-5.554-12c-.778-1.681-.046-3.674 1.635-4.452l54.706-25.321c1.681-.778 3.674-.046 4.452 1.635l5.554 12c.778 1.681.046 3.674-1.635 4.452z" fill="#e64937"/></g></g></svg>