<svg xmlns="http://www.w3.org/2000/svg" height="512pt" version="1.1" viewBox="0 0 512 512" width="512pt">
<g id="surface1">
<path d="M 256 0 C 187.617188 0 123.332031 26.628906 74.980469 74.980469 C 26.628906 123.332031 0 187.621094 0 256 C 0 301.003906 11.851562 345.273438 34.273438 384.027344 C 37.054688 388.835938 42.09375 391.519531 47.273438 391.519531 C 49.816406 391.519531 52.394531 390.871094 54.757812 389.507812 L 124.339844 349.335938 C 127.785156 347.34375 130.300781 344.066406 131.328125 340.222656 C 132.355469 336.375 131.816406 332.277344 129.820312 328.832031 C 117.070312 306.796875 110.332031 281.609375 110.332031 256 C 110.332031 175.679688 175.679688 110.332031 256 110.332031 C 264.28125 110.332031 271 103.617188 271 95.332031 L 271 15 C 271 6.714844 264.28125 0 256 0 Z M 256 0 " style=" stroke:none;fill-rule:nonzero;fill:rgb(92.156863%,96.470588%,100%);fill-opacity:1;" />
<path d="M 199.195312 327.804688 C 195.355469 327.804688 191.519531 326.339844 188.589844 323.410156 C 182.730469 317.554688 182.730469 308.054688 188.589844 302.199219 L 302.199219 188.589844 C 308.054688 182.730469 317.554688 182.730469 323.410156 188.589844 C 329.269531 194.445312 329.269531 203.945312 323.410156 209.800781 L 209.800781 323.410156 C 206.871094 326.339844 203.03125 327.804688 199.195312 327.804688 Z M 199.195312 327.804688 " style=" stroke:none;fill-rule:nonzero;fill:rgb(0%,35.294118%,69.411765%);fill-opacity:1;" />
<path d="M 301.445312 316.441406 C 297.496094 316.441406 293.625 314.84375 290.835938 312.050781 C 288.046875 309.253906 286.445312 305.390625 286.445312 301.441406 C 286.445312 297.492188 288.046875 293.632812 290.835938 290.832031 C 293.625 288.042969 297.496094 286.441406 301.445312 286.441406 C 305.394531 286.441406 309.257812 288.042969 312.046875 290.832031 C 314.847656 293.632812 316.445312 297.492188 316.445312 301.441406 C 316.445312 305.390625 314.84375 309.253906 312.046875 312.050781 C 309.257812 314.84375 305.394531 316.441406 301.445312 316.441406 Z M 301.445312 316.441406 " style=" stroke:none;fill-rule:nonzero;fill:rgb(0%,20.392157%,36.078431%);fill-opacity:1;" />
<path d="M 210.554688 225.5625 C 206.605469 225.5625 202.746094 223.953125 199.945312 221.164062 C 197.15625 218.375 195.554688 214.503906 195.554688 210.554688 C 195.554688 206.613281 197.15625 202.742188 199.945312 199.953125 C 202.746094 197.152344 206.605469 195.554688 210.554688 195.554688 C 214.507812 195.554688 218.367188 197.152344 221.164062 199.953125 C 223.953125 202.742188 225.554688 206.613281 225.554688 210.554688 C 225.554688 214.503906 223.953125 218.375 221.164062 221.164062 C 218.363281 223.953125 214.507812 225.5625 210.554688 225.5625 Z M 210.554688 225.5625 " style=" stroke:none;fill-rule:nonzero;fill:rgb(0%,35.294118%,69.411765%);fill-opacity:1;" />
<path d="M 437.019531 74.980469 C 388.664062 26.628906 324.378906 0 256 0 C 247.714844 0 241 6.714844 241 15 L 241 95.332031 C 241 103.617188 247.714844 110.332031 256 110.332031 C 336.320312 110.332031 401.664062 175.679688 401.664062 256 C 401.664062 336.320312 336.320312 401.664062 256 401.664062 C 204.164062 401.664062 155.816406 373.757812 129.820312 328.835938 C 125.675781 321.667969 116.507812 319.21875 109.339844 323.355469 L 39.757812 363.527344 C 36.3125 365.515625 33.796875 368.796875 32.769531 372.640625 C 31.742188 376.484375 32.28125 380.582031 34.277344 384.027344 C 56.382812 422.234375 88.164062 454.273438 126.191406 476.6875 C 165.382812 499.789062 210.269531 512 256 512 C 324.378906 512 388.664062 485.371094 437.019531 437.019531 C 485.371094 388.667969 512 324.378906 512 256 C 512 187.621094 485.371094 123.332031 437.019531 74.980469 Z M 437.019531 74.980469 " style=" stroke:none;fill-rule:nonzero;fill:rgb(50.196078%,82.745098%,59.607843%);fill-opacity:1;" />
<path d="M 437.019531 74.980469 C 388.664062 26.628906 324.378906 0 256 0 C 247.714844 0 241 6.714844 241 15 L 241 95.332031 C 241 103.617188 247.714844 110.332031 256 110.332031 C 336.320312 110.332031 401.664062 175.679688 401.664062 256 C 401.664062 336.320312 336.320312 401.664062 256 401.664062 L 256 512 C 324.378906 512 388.664062 485.371094 437.019531 437.019531 C 485.371094 388.667969 512 324.378906 512 256 C 512 187.621094 485.371094 123.332031 437.019531 74.980469 Z M 437.019531 74.980469 " style=" stroke:none;fill-rule:nonzero;fill:rgb(0%,70.588235%,29.411765%);fill-opacity:1;" />
<path d="M 256 512 C 247.714844 512 241 505.285156 241 497 L 241 416.664062 C 241 408.382812 247.714844 401.664062 256 401.664062 C 264.28125 401.664062 271 408.382812 271 416.664062 L 271 497 C 271 505.285156 264.28125 512 256 512 Z M 256 512 " style=" stroke:none;fill-rule:nonzero;fill:rgb(0%,53.333333%,29.019608%);fill-opacity:1;" />
<path d="M 376.511719 479.714844 C 371.328125 479.714844 366.285156 477.027344 363.507812 472.214844 L 323.34375 402.640625 C 319.199219 395.46875 321.660156 386.292969 328.832031 382.152344 C 336.007812 378.007812 345.179688 380.46875 349.324219 387.640625 L 389.488281 457.214844 C 393.632812 464.386719 391.171875 473.5625 384 477.703125 C 381.636719 479.066406 379.058594 479.714844 376.511719 479.714844 Z M 376.511719 479.714844 " style=" stroke:none;fill-rule:nonzero;fill:rgb(0%,53.333333%,29.019608%);fill-opacity:1;" />
<path d="M 464.699219 391.503906 C 462.152344 391.503906 459.574219 390.855469 457.214844 389.488281 L 387.644531 349.324219 C 380.46875 345.179688 378.011719 336.007812 382.152344 328.832031 C 386.296875 321.65625 395.46875 319.195312 402.644531 323.34375 L 472.214844 363.511719 C 479.386719 367.652344 481.847656 376.824219 477.703125 384 C 474.925781 388.8125 469.882812 391.503906 464.699219 391.503906 Z M 464.699219 391.503906 " style=" stroke:none;fill-rule:nonzero;fill:rgb(0%,53.333333%,29.019608%);fill-opacity:1;" />
<path d="M 497 271 L 416.664062 271 C 408.382812 271 401.664062 264.285156 401.664062 256 C 401.664062 247.714844 408.382812 241 416.664062 241 L 497 241 C 505.28125 241 512 247.714844 512 256 C 512 264.285156 505.28125 271 497 271 Z M 497 271 " style=" stroke:none;fill-rule:nonzero;fill:rgb(0%,53.333333%,29.019608%);fill-opacity:1;" />
<path d="M 395.15625 190.667969 C 389.972656 190.667969 384.929688 187.980469 382.152344 183.164062 C 378.007812 175.992188 380.46875 166.816406 387.640625 162.675781 L 457.210938 122.511719 C 464.382812 118.363281 473.558594 120.824219 477.699219 128 C 481.84375 135.175781 479.382812 144.347656 472.210938 148.488281 L 402.640625 188.65625 C 400.28125 190.019531 397.699219 190.667969 395.15625 190.667969 Z M 395.15625 190.667969 " style=" stroke:none;fill-rule:nonzero;fill:rgb(0%,53.333333%,29.019608%);fill-opacity:1;" />
<path d="M 336.320312 131.859375 C 333.773438 131.859375 331.195312 131.214844 328.835938 129.847656 C 321.660156 125.707031 319.199219 116.53125 323.34375 109.359375 L 363.511719 39.789062 C 367.652344 32.613281 376.824219 30.152344 384 34.296875 C 391.175781 38.441406 393.632812 47.613281 389.488281 54.789062 L 349.324219 124.359375 C 346.546875 129.171875 341.503906 131.859375 336.320312 131.859375 Z M 336.320312 131.859375 " style=" stroke:none;fill-rule:nonzero;fill:rgb(0%,53.333333%,29.019608%);fill-opacity:1;" />
<path d="M 135.484375 479.714844 C 132.941406 479.714844 130.363281 479.066406 128 477.703125 C 120.824219 473.5625 118.367188 464.386719 122.511719 457.214844 L 162.675781 387.640625 C 166.816406 380.46875 175.988281 378.007812 183.167969 382.152344 C 190.339844 386.292969 192.800781 395.46875 188.65625 402.640625 L 148.492188 472.214844 C 145.710938 477.023438 140.671875 479.714844 135.484375 479.714844 Z M 135.484375 479.714844 " style=" stroke:none;fill-rule:nonzero;fill:rgb(0%,70.588235%,29.411765%);fill-opacity:1;" />
<path d="M 323.410156 188.589844 C 317.550781 182.730469 308.054688 182.730469 302.195312 188.589844 L 256 234.785156 L 256 277.214844 L 323.410156 209.800781 C 329.269531 203.945312 329.269531 194.445312 323.410156 188.589844 Z M 323.410156 188.589844 " style=" stroke:none;fill-rule:nonzero;fill:rgb(0%,20.392157%,36.078431%);fill-opacity:1;" />
</g>
</svg>