<svg id="Capa_1" enable-background="new 0 0 510 510" height="512" viewBox="0 0 510 510" width="512" xmlns="http://www.w3.org/2000/svg"><g><path d="m60 60h90v90h-90z" fill="#ffb01c"/><path d="m360 60h90v90h-90z" fill="#ef9b14"/><path d="m334.64 131.75-29.28 6.5-16.67-75.02c-.43-1.9-2.08-3.23-4.03-3.23h-29.66v-30h29.66c16.12 0 29.82 10.99 33.31 26.73z" fill="#2f374f"/><path d="m255 30v30h-29.66c-1.95 0-3.6 1.33-4.03 3.23l-16.67 75.02-29.28-6.5 16.67-75.03c3.49-15.73 17.19-26.72 33.31-26.72z" fill="#1766a0"/><path d="m255 120 21.739 195-21.739 165h-196.48c-32.27 0-58.52-26.25-58.52-58.52v-242.96c0-32.27 26.25-58.52 58.52-58.52z" fill="#64e1dc"/><path d="m510 178.52v242.96c0 32.27-26.25 58.52-58.52 58.52h-196.48v-360h196.48c32.27 0 58.52 26.25 58.52 58.52z" fill="#00b5bc"/><path d="m90 120h30v360h-30z" fill="#1766a0"/><path d="m390 120h30v360h-30z" fill="#2f374f"/><path d="m358.28 268.25-103.28 26.69v-92.95l80.76-20.87z" fill="#d5e8fe"/><path d="m255 201.99v92.95l-12.91 3.34-22.51-87.14z" fill="#edf5ff"/><circle cx="200" cy="370" fill="#ffdb00" r="50"/></g></svg>