<svg id="Capa_1" enable-background="new 0 0 512.019 512.019" height="512" viewBox="0 0 512.019 512.019" width="512" xmlns="http://www.w3.org/2000/svg"><g><g><g fill="#90bac4"><path d="m380.411 504.519h-10.494c-5.593 0-10.128-4.534-10.128-10.128v-24.126h30.749v24.126c.001 5.593-4.534 10.128-10.127 10.128z"/><path d="m142.102 504.519h-10.494c-5.593 0-10.128-4.534-10.128-10.128v-24.126h30.749v24.126c.001 5.593-4.534 10.128-10.127 10.128z"/></g><g><g><g><g><g><path d="m399.981 100.741v343.284h-287.943v-343.284c0-3.468 1.784-6.686 4.731-8.52l133.948-83.197c3.248-2.005 7.337-2.005 10.585 0l133.947 83.197c2.937 1.834 4.732 5.052 4.732 8.52z" fill="#eaf9fa"/></g><g><path d="m399.981 100.741v343.284h-29.851v-327.938c0-3.468-1.794-6.686-4.731-8.52l-133.948-83.197c-1.043-.642-2.175-1.083-3.338-1.313l22.604-14.033c3.248-2.005 7.337-2.005 10.585 0l133.947 83.197c2.937 1.834 4.732 5.052 4.732 8.52z" fill="#cbe5e7"/></g><path d="m399.981 307.12v51.061c-7.648 6.074-15.557 11.016-23.426 15.056-16.81 8.61-33.449 13.071-47.021 15.336-6.335.541-11.207 5.844-11.207 12.199v43.253h-124.635v-43.714c0-6.165-4.581-11.367-10.696-12.149l-.501-.07c-20.358-3.739-46.831-12.399-70.457-32.116v-50.409c2.706 1.253 5.142 3.188 7.027 5.684 14.454 19.115 34.542 32.216 59.691 38.942 12.72 3.398 23.696 4.27 29.881 4.451 0 0 96.449.02 96.709.02 6.024-.13 17.381-.922 30.633-4.471 25.15-6.726 45.237-19.827 59.692-38.942 1.232-1.625 2.696-3.018 4.31-4.131z" fill="#cbe5e7"/><path d="m395.67 311.25c-9.985 13.205-22.673 23.521-37.847 30.865v39.159c6.118-2.166 12.409-4.799 18.732-8.037 7.869-4.04 15.777-8.981 23.426-15.056v-51.061c-1.614 1.113-3.078 2.506-4.311 4.13z" fill="#a9d3d8"/><g><path d="m168.724 96.45 87.285-54.213 87.283 54.213z" fill="#a8e7ef"/></g><g><path d="m141.889 128.698h228.241v315.327h-228.241z" fill="#fb6a3b"/><path d="m370.13 128.698v315.327h-228.241v-45.638c164.861-30.963 188.767-198.34 191.374-269.689z" fill="#fb5532"/></g></g><g><g><path d="m420.922 473.37h-329.827c-5.593 0-10.128-4.534-10.128-10.128v-18.786c0-5.593 4.534-10.128 10.128-10.128h329.826c5.593 0 10.128 4.534 10.128 10.128v18.786c0 5.594-4.534 10.128-10.127 10.128z" fill="#eaf9fa"/><path d="m431.051 444.457v18.785c0 5.593-4.541 10.134-10.134 10.134h-30.512c5.593 0 10.134-4.541 10.134-10.134v-18.785c0-5.593-4.541-10.124-10.134-10.124h30.512c5.594-.001 10.134 4.53 10.134 10.124z" fill="#cbe5e7"/></g></g></g></g></g></g><g><path d="m416.6 280.375c-7.519-3.001-16.051-.285-20.934 6.173-14.454 19.117-34.537 32.22-59.691 38.945-13.25 3.542-24.608 4.333-30.631 4.471-.258-.008-96.707-.02-96.707-.02-6.187-.186-17.164-1.051-29.88-4.451-25.154-6.725-45.237-19.827-59.691-38.945-4.883-6.458-13.414-9.174-20.933-6.173-11.714 4.675-15.032 18.536-8.027 27.828 27.607 36.615 65.374 50.225 92.386 55.19l.51.065c6.11.785 10.686 5.986 10.686 12.146v58.728h124.644v-58.26c0-6.358 4.866-11.658 11.2-12.201 27.149-4.545 66.554-17.814 95.095-55.668 7.005-9.293 3.687-23.153-8.027-27.828z" fill="#bcea73"/><path d="m424.629 308.203c-14.274 18.925-31.264 31.705-48.074 40.326-16.81 8.61-33.449 13.071-47.021 15.346-6.335.541-11.207 5.844-11.207 12.199v58.258h-22.533v-71.179c0-6.355 4.872-11.658 11.207-12.199 13.572-2.275 32.768-6.726 52.134-15.346 19.376-8.62 38.912-21.401 53.186-40.326 3.428-4.551 4.391-10.204 3.087-15.326.401.12.802.261 1.193.421 11.717 4.671 15.035 18.533 8.028 27.826z" fill="#a3e440"/><path d="m193.687 391.214h124.644v43.118h-124.644z" fill="#a8e7ef"/><path d="m295.794 391.214h22.533v43.117h-22.533z" fill="#70d9e6"/></g><g><ellipse cx="258.26" cy="314.899" fill="#ffcec0" rx="41.086" ry="43.193"/><path d="m299.349 314.898c0 23.86-18.4 43.19-41.09 43.19-6.75 0-13.12-1.71-18.74-4.74 19.76-3.13 34.91-21.06 34.91-42.71 0-16.75-9.07-31.27-22.33-38.44 2.01-.33 4.07-.49 6.16-.49 22.69-.001 41.09 19.34 41.09 43.19z" fill="#fdb0a0"/></g><g><g><path d="m414.075 279.956h-316.132c-5.523 0-10-4.477-10-10v-80.392c0-5.523 4.477-10 10-10h316.132c5.523 0 10 4.477 10 10v80.392c0 5.522-4.477 10-10 10z" fill="#fcb44d"/><path d="m424.079 189.559v80.4c0 5.52-4.48 10-10 10h-28.54c5.52 0 10-4.48 10-10v-80.4c0-5.52-4.48-10-10-10h28.54c5.52 0 10 4.48 10 10z" fill="#fca62f"/></g><circle cx="96.053" cy="290.62" fill="#ffcec0" r="24.279"/><path d="m120.329 290.619c0 13.41-10.87 24.28-24.28 24.28-6.35 0-12.14-2.44-16.46-6.44 13.4-.02 24.25-10.88 24.25-24.28 0-7.05-3.01-13.41-7.81-17.84h.02c13.41 0 24.28 10.87 24.28 24.28z" fill="#fdb0a0"/></g><g><circle cx="415.966" cy="290.62" fill="#ffcec0" r="24.279"/><path d="m440.239 290.619c0 13.41-10.87 24.28-24.27 24.28-6.35 0-12.14-2.44-16.47-6.44 13.39-.01 24.25-10.88 24.25-24.28 0-7.05-3.01-13.41-7.81-17.84h.03c13.4 0 24.27 10.87 24.27 24.28z" fill="#fdb0a0"/></g><g><path d="m168.724 103.949h174.568c3.35 0 6.293-2.222 7.212-5.442.919-3.222-.41-6.661-3.255-8.429l-87.284-54.212c-2.424-1.507-5.491-1.507-7.914 0l-13.051 8.105c-3.519 2.186-4.6 6.81-2.414 10.328 2.186 3.519 6.81 4.599 10.328 2.414l9.094-5.647 60.994 37.883h-121.987l21.232-13.188c3.519-2.186 4.6-6.81 2.414-10.328s-6.81-4.598-10.328-2.414l-43.566 27.059c-2.846 1.768-4.174 5.207-3.255 8.429.919 3.221 3.863 5.442 7.212 5.442z"/><path d="m91.823 322.109c4.077 4.57 8.384 8.811 12.714 12.606v92.114h-13.442c-9.72 0-17.628 7.908-17.628 17.628v18.786c0 9.72 7.908 17.628 17.628 17.628h22.884v13.519c0 9.721 7.909 17.63 17.63 17.63h10.49c9.721 0 17.63-7.909 17.63-17.63v-13.52h192.56v13.519c0 9.721 7.909 17.63 17.63 17.63h10.49c9.721 0 17.63-7.909 17.63-17.63v-13.519h22.882c9.72 0 17.628-7.908 17.628-17.628v-18.786c0-9.72-7.908-17.628-17.628-17.628h-13.441v-18.04c0-4.143-3.358-7.5-7.5-7.5s-7.5 3.357-7.5 7.5v18.04h-14.847v-70.459c4.944-2.429 9.914-5.197 14.847-8.348v24.653c0 4.143 3.358 7.5 7.5 7.5s7.5-3.357 7.5-7.5v-35.63c5.5-4.589 10.857-9.742 15.967-15.544 13.923-3.374 24.297-15.935 24.297-30.88 0-11.852-6.526-22.202-16.169-27.665v-73.392c0-9.649-7.851-17.5-17.5-17.5h-6.595v-71.326c0-6.101-3.094-11.666-8.278-14.886l-133.947-83.195c-5.704-3.543-12.789-3.541-18.492 0l-133.95 83.195c-5.183 3.22-8.277 8.785-8.277 14.886v71.326h-6.593c-9.649 0-17.5 7.851-17.5 17.5v73.392c-9.643 5.463-16.169 15.813-16.169 27.665.001 16.088 12.02 29.413 27.549 31.489zm270.81 104.719h-36.802v-50.756c0-2.483 1.866-4.517 4.341-4.729.2-.018.399-.042.598-.075 9.467-1.585 20.393-4.202 31.863-8.458zm-57.117-89.367c6.017-.138 18.226-.935 32.396-4.724 19.683-5.261 36.518-14.272 50.212-26.814 3.505 6.35 9.118 11.376 15.89 14.135-24.77 23.463-54.116 32.763-75.462 36.373-10.127 1.036-17.722 9.422-17.722 19.642v7.642h-109.642v-8.109c0-9.903-7.407-18.323-17.232-19.586-20.762-3.842-49.857-13.408-74.097-36.779 6.521-3.158 11.804-8.483 14.915-15.031 14.011 13.441 31.459 23.027 52.046 28.529 13.076 3.496 24.621 4.49 31.816 4.706l6.122.001c7.969 16.665 24.47 28.145 43.502 28.145 19.025 0 35.522-11.472 43.494-28.128 1.615-.001 3.546-.002 3.762-.002zm78.829-50.006c-2.1 2.322-4.399 5.642-6.712 7.736v-7.736zm-21.712 18.852c-8.553 5.138-18.101 9.135-28.595 11.94-11.82 3.16-22.069 3.989-27.728 4.185.353-2.459.539-4.974.539-7.533 0-9.851-2.75-19.345-7.755-27.443h63.538v18.851zm-82.897-18.852c7.634 6.81 12.113 16.875 12.113 27.443 0 19.68-15.068 35.69-33.59 35.69s-33.59-16.011-33.59-35.69c0-10.568 4.479-20.634 12.113-27.443zm-69.526 34.989h-1.459c-5.277-.164-15.842-.932-28.058-4.196-11.626-3.108-22.079-7.681-31.31-13.644v-17.148h68.04c-5.005 8.099-7.755 17.592-7.755 27.443.002 2.563.189 5.082.542 7.545zm-75.826-29.819c-1.691-1.658-3.321-3.381-4.889-5.17h4.889zm47.662 78.272c2.361.304 4.142 2.328 4.142 4.708v51.224h-36.804v-65.061c11.457 4.486 23.271 7.403 32.662 9.129zm19.142 27.817h109.644v28.118h-109.644zm214.777-91.315c-9.252 0-16.779-7.526-16.779-16.778s7.527-16.779 16.779-16.779 16.779 7.527 16.779 16.779-7.527 16.778-16.779 16.778zm-296.428-206.661c0-.879.446-1.68 1.192-2.144l133.949-83.195c.821-.51 1.842-.51 2.663 0l133.947 83.195c.747.464 1.192 1.265 1.192 2.144v71.326h-14.847v-43.359c0-4.143-3.358-7.5-7.5-7.5h-228.249c-4.142 0-7.5 3.357-7.5 7.5v43.359h-14.847zm-24.094 158.103v-69.277c0-1.379 1.122-2.5 2.5-2.5h79.625c4.142 0 7.5-3.357 7.5-7.5s-3.358-7.5-7.5-7.5h-28.185v-35.859h213.249v35.859h-148.95c-4.142 0-7.5 3.357-7.5 7.5s3.358 7.5 7.5 7.5h200.392c1.378 0 2.5 1.121 2.5 2.5v69.277c-10.772 0-20.913 5.392-26.663 13.614h-267.805c-5.75-8.222-15.89-13.614-26.663-13.614zm-16.168 31.779c0-9.252 7.527-16.779 16.779-16.779s16.779 7.527 16.779 16.779-7.527 16.778-16.779 16.778-16.779-7.526-16.779-16.778zm40.262 55.611c4.927 3.299 9.899 6.203 14.847 8.755v71.842h-14.847zm25.193 148.158c0 1.45-1.18 2.63-2.63 2.63h-10.49c-1.45 0-2.63-1.18-2.63-2.63v-13.519h15.75zm238.31 0c0 1.45-1.18 2.63-2.63 2.63h-10.49c-1.45 0-2.63-1.18-2.63-2.63v-13.519h15.75zm40.509-31.147c0 1.449-1.179 2.628-2.628 2.628h-329.826c-1.449 0-2.628-1.179-2.628-2.628v-18.786c0-1.449 1.179-2.628 2.628-2.628h329.826c1.449 0 2.628 1.179 2.628 2.628z"/><path d="m134.435 219.525h3.436v27.97c0 4.143 3.358 7.5 7.5 7.5s7.5-3.357 7.5-7.5v-27.97h3.436c4.142 0 7.5-3.357 7.5-7.5s-3.358-7.5-7.5-7.5h-21.872c-4.142 0-7.5 3.357-7.5 7.5s3.358 7.5 7.5 7.5z"/><path d="m178.69 254.994c4.142 0 7.5-3.357 7.5-7.5v-10.234h6.873v10.234c0 4.143 3.358 7.5 7.5 7.5s7.5-3.357 7.5-7.5v-35.47c0-4.143-3.358-7.5-7.5-7.5s-7.5 3.357-7.5 7.5v10.235h-6.873v-10.235c0-4.143-3.358-7.5-7.5-7.5s-7.5 3.357-7.5 7.5v35.47c0 4.143 3.358 7.5 7.5 7.5z"/><path d="m222.945 254.994c4.142 0 7.5-3.357 7.5-7.5v-7.434h6.873v7.434c0 4.143 3.358 7.5 7.5 7.5s7.5-3.357 7.5-7.5v-24.533c0-10.166-8.271-18.437-18.437-18.437s-18.436 8.271-18.436 18.437v24.533c0 4.143 3.358 7.5 7.5 7.5zm10.936-35.469c1.895 0 3.437 1.542 3.437 3.437v2.1h-6.873v-2.1c0-1.895 1.542-3.437 3.436-3.437z"/><path d="m289.073 204.525c-4.142 0-7.5 3.357-7.5 7.5v9.019s-8.015-12.986-8.026-13.003c-1.327-2.11-3.67-3.516-6.346-3.516-4.142 0-7.5 3.357-7.5 7.5v35.47c0 4.143 3.358 7.5 7.5 7.5s7.5-3.357 7.5-7.5v-9.019s8.008 12.975 8.016 12.986c1.325 2.119 3.673 3.532 6.356 3.532 4.142 0 7.5-3.357 7.5-7.5v-35.47c0-4.142-3.358-7.499-7.5-7.499z"/><path d="m303.956 247.494c0 4.143 3.358 7.5 7.5 7.5s7.5-3.357 7.5-7.5v-1.997l9.649 7.823c1.39 1.126 3.06 1.674 4.719 1.674 2.183 0 4.348-.948 5.83-2.776 2.609-3.218 2.115-7.94-1.102-10.55l-14.688-11.909 14.688-11.909c3.217-2.608 3.711-7.331 1.102-10.549-2.609-3.217-7.333-3.71-10.549-1.102l-9.649 7.824v-1.999c0-4.143-3.358-7.5-7.5-7.5s-7.5 3.357-7.5 7.5z"/><path d="m368.717 239.994h-13.005c-4.142 0-7.5 3.357-7.5 7.5s3.358 7.5 7.5 7.5h13.005c9.025 0 16.367-7.342 16.367-16.367 0-9.024-7.342-16.367-16.367-16.367h-4.138c-.754 0-1.367-.613-1.367-1.368 0-.754.613-1.367 1.367-1.367h13.005c4.142 0 7.5-3.357 7.5-7.5s-3.358-7.5-7.5-7.5h-13.005c-9.025 0-16.367 7.342-16.367 16.367s7.342 16.368 16.367 16.368h4.138c.754 0 1.367.613 1.367 1.367s-.613 1.367-1.367 1.367z"/></g></g></svg>