<svg id="Capa_1" enable-background="new 0 0 512 512" height="512" viewBox="0 0 512 512" width="512" xmlns="http://www.w3.org/2000/svg"><g><g><circle cx="256" cy="256" fill="#ba5d4f" r="201.63"/><circle cx="200.597" cy="412.661" fill="#a34f41" r="29.686"/><path d="m457.627 256c0 111.352-90.275 201.627-201.627 201.627-6.233 0-12.403-.278-18.492-.845 102.689-9.333 183.136-95.662 183.136-200.782s-80.447-191.449-183.136-200.782c6.088-.567 12.259-.845 18.492-.845 111.352 0 201.627 90.275 201.627 201.627z" fill="#a34f41"/><circle cx="256" cy="256" fill="#5169cd" r="151.51"/><path d="m407.51 256c0 83.68-67.83 151.51-151.51 151.51-44.74 0-84.94-19.39-112.68-50.21 18.93 8.5 39.92 13.23 62.02 13.23 83.67 0 151.51-67.83 151.51-151.51 0-38.96-14.7-74.48-38.86-101.32 52.77 23.7 89.52 76.7 89.52 138.3z" fill="#3351c5"/><g><g><path d="m512 75.123c0-6.524-6.003-11.481-12.378-10.097-51.874 11.268-92.112 92.473-92.112 190.974s40.238 179.706 92.112 190.974c6.375 1.385 12.378-3.573 12.378-10.097z" fill="#d5887a"/><path d="m499.475 65.058c-6.058 1.332-11.954 3.629-17.648 6.785v165.053c-5.243-4.666-12.148-7.506-19.719-7.506-14.938 0-27.279 11.013-29.37 25.363-8.355 4.492-16.771 8.406-25.075 11.827.381 12.846 1.442 25.363 3.132 37.416 16.359-6.336 30.071-12.929 39.363-17.74 3.657 1.607 7.695 2.503 11.95 2.503 2.403 0 4.739-.286 6.976-.826 6.476-1.563 12.743 3.172 12.743 9.833v142.39c5.694 3.156 11.59 5.453 17.648 6.785 6.431 1.414 12.525-3.48 12.525-10.064v-361.754c0-6.585-6.094-11.479-12.525-10.065z" fill="#c86f5c"/><g><path d="m484.607 70.372v135.788c0 4.265-3.461 7.726-7.726 7.726s-7.726-3.461-7.726-7.726v-125.61c4.955-4.111 10.116-7.531 15.452-10.178z" fill="#ba5d4f"/></g><g><path d="m440.261 311.277c-4.268 0-7.726-3.459-7.726-7.726v-41.277c0-4.267 3.459-7.726 7.726-7.726s7.726 3.459 7.726 7.726v41.277c0 4.267-3.459 7.726-7.726 7.726z" fill="#ba5d4f"/></g></g><g><path d="m0 75.123c0-6.524 6.003-11.481 12.378-10.097 51.874 11.268 92.112 92.473 92.112 190.974s-40.238 179.706-92.112 190.974c-6.375 1.385-12.378-3.573-12.378-10.097z" fill="#d5887a"/><path d="m70.392 113.89v284.22c20.95-35.169 34.098-85.81 34.098-142.11s-13.148-106.941-34.098-142.11z" fill="#c86f5c"/><g><path d="m111.81 263.726h-18.168c-4.267 0-7.726-3.459-7.726-7.726s3.459-7.726 7.726-7.726h18.168c4.267 0 7.726 3.459 7.726 7.726.001 4.267-3.459 7.726-7.726 7.726z" fill="#ba5d4f"/></g></g></g><g><path d="m365.59 294.904c53.22-12.358 97.65-39.046 97.65-39.046l-6.969-38.762c-30.032 20.979-63.146 33.097-90.68 40.093v37.715z" fill="#fdb0a0"/></g><path d="m371.066 263.107c0-6.616-6.154-11.53-12.6-10.04-30.804 7.122-53.027 7.755-53.027 7.755h-98.887c-29.745 0-53.858 24.113-53.858 53.858v52.148c27.063 25.239 63.377 40.682 103.307 40.682 31.162 0 60.12-9.417 84.202-25.55v-62.801c0-2.546 1.859-4.723 4.378-5.089 6.193-.899 12.332-2.049 18.367-3.389 4.733-1.051 8.118-5.223 8.118-10.071z" fill="#fb4a59"/><path d="m371.061 263.108v37.499c0 4.852-3.379 9.024-8.118 10.075-6.03 1.334-12.168 2.486-18.365 3.385-2.521.366-4.382 2.542-4.382 5.089v62.804c-7.768 5.202-16.03 9.704-24.724 13.413v-71.803c0-5.027 3.626-9.34 8.586-10.152 4.766-.78 9.49-1.703 14.15-2.734 4.739-1.048 8.128-5.224 8.128-10.077v-37.499c0-2.709-1.03-5.141-2.699-6.954 4.646-.865 9.612-1.885 14.824-3.091 6.45-1.482 12.6 3.431 12.6 10.045z" fill="#f82f40"/></g><g><ellipse cx="259.163" cy="219.022" fill="#ffcec0" rx="55.547" ry="58.395"/><path d="m314.713 219.028c0 32.248-24.871 58.394-55.55 58.394-9.065 0-17.623-2.29-25.19-6.327 28.341-2.656 50.557-27.68 50.557-58.158 0-22.734-12.359-42.423-30.395-52.079 1.653-.154 3.329-.236 5.029-.236 30.678-.001 55.549 26.145 55.549 58.406z" fill="#fdb0a0"/></g><g><g><path d="m197.61 403.353c-4.267 0-7.726-3.459-7.726-7.726v-61.463c0-4.267 3.459-7.726 7.726-7.726s7.726 3.459 7.726 7.726v61.463c.001 4.266-3.459 7.726-7.726 7.726z" fill="#f82f40"/></g></g><g><circle cx="200.597" cy="389.582" fill="#ffcec0" r="29.686"/><path d="m230.287 389.584c0 16.39-13.289 29.69-29.69 29.69-7.809 0-14.907-3.018-20.202-7.943 16.225-.196 29.309-13.403 29.309-29.68 0-8.592-3.647-16.328-9.488-21.747.124-.01.258-.01.381-.01 16.4 0 29.69 13.289 29.69 29.69z" fill="#fdb0a0"/></g><g><circle cx="462.104" cy="235.843" fill="#ffcec0" r="29.686"/><path d="m491.788 235.839c0 16.4-13.289 29.69-29.679 29.69-3.853 0-7.541-.731-10.92-2.091 10.992-4.337 18.76-15.061 18.76-27.599 0-12.527-7.767-23.251-18.76-27.599 3.379-1.35 7.067-2.081 10.92-2.081 16.39.001 29.679 13.29 29.679 29.68z" fill="#fdb0a0"/></g><g><path d="m42.845 80.55v165.869c0 4.265-3.461 7.726-7.726 7.726s-7.726-3.461-7.726-7.726v-176.047c5.336 2.647 10.497 6.067 15.452 10.178z" fill="#ba5d4f"/></g><g><path d="m54.37 301.504c-4.267 0-7.726-3.459-7.726-7.726v-14.053c0-4.267 3.459-7.726 7.726-7.726s7.726 3.459 7.726 7.726v14.053c.001 4.267-3.459 7.726-7.726 7.726z" fill="#ba5d4f"/></g><g><path d="m62.099 337.333v73.339c-4.842 6.614-10.013 12.465-15.453 17.462v-90.8c0-4.265 3.461-7.726 7.726-7.726 4.266-.002 7.727 3.46 7.727 7.725z" fill="#ba5d4f"/></g><g><path d="m480.343 300.926v138.405c-5.357-3.132-10.518-7.026-15.453-11.631v-126.774c0-4.265 3.461-7.726 7.726-7.726s7.727 3.461 7.727 7.726z" fill="#ba5d4f"/></g></g></svg>